<svg width="99" height="103" viewBox="0 0 99 103" fill="none" xmlns="http://www.w3.org/2000/svg">
<circle cx="49" cy="54" r="49" fill="#DDF1EA"/>
<path d="M59.2085 37.6663C59.2085 40.3738 58.1329 42.9703 56.2185 44.8847C54.3041 46.7992 51.7075 47.8747 49.0001 47.8747C46.2927 47.8747 43.6962 46.7992 41.7817 44.8847C39.8673 42.9703 38.7918 40.3738 38.7918 37.6663C38.7918 34.9589 39.8673 32.3624 41.7817 30.448C43.6962 28.5335 46.2927 27.458 49.0001 27.458C51.7075 27.458 54.3041 28.5335 56.2185 30.448C58.1329 32.3624 59.2085 34.9589 59.2085 37.6663ZM28.5862 76.0987C28.6737 70.7423 30.8629 65.6349 34.6817 61.8779C38.5006 58.1209 43.643 56.0154 49.0001 56.0154C54.3572 56.0154 59.4997 58.1209 63.3185 61.8779C67.1374 65.6349 69.3266 70.7423 69.4141 76.0987C63.0097 79.0353 56.0456 80.5509 49.0001 80.5413C41.7155 80.5413 34.801 78.9516 28.5862 76.0987Z" stroke="#7FCCB1" stroke-width="3" stroke-linecap="round" stroke-linejoin="round"/>
<circle cx="82" cy="17" r="17" fill="#F7F7F7"/>
<path d="M81.3335 7.66699V27.667M91.3335 17.667H71.3335" stroke="#7FCCB1" stroke-width="1.5" stroke-linecap="round" stroke-linejoin="round"/>
</svg>
