<svg width="98" height="98" viewBox="0 0 98 98" fill="none" xmlns="http://www.w3.org/2000/svg">
<circle cx="49" cy="49" r="49" fill="#DDF1EA"/>
<path d="M59.2085 32.6663C59.2085 35.3738 58.1329 37.9703 56.2185 39.8847C54.3041 41.7992 51.7075 42.8747 49.0001 42.8747C46.2927 42.8747 43.6962 41.7992 41.7817 39.8847C39.8673 37.9703 38.7918 35.3738 38.7918 32.6663C38.7918 29.9589 39.8673 27.3624 41.7817 25.448C43.6962 23.5335 46.2927 22.458 49.0001 22.458C51.7075 22.458 54.3041 23.5335 56.2185 25.448C58.1329 27.3624 59.2085 29.9589 59.2085 32.6663ZM28.5862 71.0987C28.6737 65.7423 30.8629 60.6349 34.6817 56.8779C38.5006 53.1209 43.643 51.0154 49.0001 51.0154C54.3572 51.0154 59.4997 53.1209 63.3185 56.8779C67.1374 60.6349 69.3266 65.7423 69.4141 71.0987C63.0097 74.0353 56.0456 75.5509 49.0001 75.5413C41.7155 75.5413 34.801 73.9516 28.5862 71.0987Z" stroke="#7FCCB1" stroke-width="3" stroke-linecap="round" stroke-linejoin="round"/>
</svg>
