<svg width="40" height="40" viewBox="0 0 40 40" fill="none" xmlns="http://www.w3.org/2000/svg">
<circle cx="20" cy="20" r="19.5" stroke="#DEDEDE"/>
<path d="M22.3087 24.106C23.8143 23.9277 25.2936 23.5724 26.7159 23.0474C25.5114 21.7131 24.8458 19.9787 24.8485 18.1811V17.575C24.8485 16.2891 24.3376 15.0559 23.4284 14.1467C22.5191 13.2374 21.2859 12.7266 20 12.7266C18.7141 12.7266 17.4808 13.2374 16.5716 14.1467C15.6623 15.0559 15.1515 16.2891 15.1515 17.575V18.1811C15.1539 19.9788 14.488 21.7132 13.2832 23.0474C14.6836 23.5645 16.16 23.9241 17.6913 24.106M22.3087 24.106C20.7749 24.2879 19.225 24.2879 17.6913 24.106M22.3087 24.106C22.4251 24.4695 22.4541 24.8554 22.3932 25.2322C22.3323 25.609 22.1833 25.9662 21.9583 26.2745C21.7332 26.5829 21.4386 26.8337 21.0983 27.0067C20.758 27.1796 20.3817 27.2697 20 27.2697C19.6183 27.2697 19.2419 27.1796 18.9016 27.0067C18.5613 26.8337 18.2667 26.5829 18.0417 26.2745C17.8167 25.9662 17.6677 25.609 17.6068 25.2322C17.5459 24.8554 17.5748 24.4695 17.6913 24.106" stroke="#414254" stroke-width="1.5" stroke-linecap="round" stroke-linejoin="round"/>
</svg>
