<svg width="99" height="99" viewBox="0 0 99 99" fill="none" xmlns="http://www.w3.org/2000/svg">
<circle cx="49.5" cy="49.5" r="49.5" fill="#DDF1EA" fill-opacity="0.4"/>
<path d="M55.252 63.1261C56.9411 63.6166 58.6914 63.8646 60.4502 63.8628C63.2788 63.8669 66.0707 63.2219 68.6109 61.9776C68.686 60.2027 68.1804 58.4517 67.1708 56.99C66.1612 55.5282 64.7026 54.4355 63.0161 53.8773C61.3295 53.3192 59.507 53.3261 57.8247 53.8969C56.1424 54.4678 54.6921 55.5715 53.6936 57.0408M55.252 63.1261V63.1202C55.252 60.9162 54.6857 58.8428 53.6936 57.0408M55.252 63.1261V63.3361C51.441 65.6314 47.0748 66.8407 42.6259 66.8332C38.0099 66.8332 33.6909 65.5559 30.0037 63.3361L30.0017 63.1202C30.0002 60.3171 30.9317 57.5932 32.6493 55.3779C34.3669 53.1627 36.773 51.5821 39.4881 50.8854C42.2033 50.1886 45.0731 50.4154 47.6452 51.5299C50.2172 52.6444 52.3452 54.5833 53.6936 57.0408M49.3112 37.8719C49.3112 39.6444 48.6071 41.3444 47.3537 42.5977C46.1004 43.8511 44.4004 44.5552 42.6279 44.5552C40.8553 44.5552 39.1554 43.8511 37.902 42.5977C36.6486 41.3444 35.9445 39.6444 35.9445 37.8719C35.9445 36.0993 36.6486 34.3994 37.902 33.146C39.1554 31.8926 40.8553 31.1885 42.6279 31.1885C44.4004 31.1885 46.1004 31.8926 47.3537 33.146C48.6071 34.3994 49.3112 36.0993 49.3112 37.8719ZM65.6484 42.3275C65.6484 43.7061 65.1007 45.0283 64.1259 46.0031C63.151 46.978 61.8289 47.5256 60.4502 47.5256C59.0716 47.5256 57.7494 46.978 56.7745 46.0031C55.7997 45.0283 55.252 43.7061 55.252 42.3275C55.252 40.9488 55.7997 39.6266 56.7745 38.6518C57.7494 37.6769 59.0716 37.1293 60.4502 37.1293C61.8289 37.1293 63.151 37.6769 64.1259 38.6518C65.1007 39.6266 65.6484 40.9488 65.6484 42.3275Z" stroke="#7FCCB1" stroke-width="4" stroke-linecap="round" stroke-linejoin="round"/>
</svg>
