<svg width="39" height="57" viewBox="0 0 39 57" fill="none" xmlns="http://www.w3.org/2000/svg">
<g clip-path="url(#clip0_133_4203)">
<path d="M19.2496 37.9088C29.7183 37.9088 38.2049 29.4222 38.2049 18.9534C38.2049 8.48466 29.7183 -0.00195312 19.2496 -0.00195312C8.7808 -0.00195312 0.294189 8.48466 0.294189 18.9534C0.294189 29.4222 8.7808 37.9088 19.2496 37.9088Z" fill="#7D4666"/>
<path d="M12.3896 12.0928H26.1097C27.0529 12.0928 27.8247 12.8645 27.8247 13.8078V24.0978C27.8247 25.0411 27.0529 25.8129 26.1097 25.8129H12.3896C11.4463 25.8129 10.6746 25.0411 10.6746 24.0978V13.8078C10.6746 12.8645 11.4463 12.0928 12.3896 12.0928Z" stroke="white" stroke-width="1.08316" stroke-linecap="round" stroke-linejoin="round"/>
<path d="M27.8247 13.8086L19.2496 19.8111L10.6746 13.8086" stroke="white" stroke-width="1.08316" stroke-linecap="round" stroke-linejoin="round"/>
</g>
<path d="M5.02842 54.4082V47.3184H9.47339V48.2392H6.09812V50.3994H9.24145V51.3168H6.09812V53.4874H9.51494V54.4082H5.02842ZM13.9521 50.9637V51.8603H10.8088V50.9637H13.9521ZM15.3317 54.4082V49.0909H16.3252V49.9563H16.391C16.5017 49.6632 16.6829 49.4347 16.9345 49.2709C17.186 49.1047 17.4872 49.0216 17.838 49.0216C18.1934 49.0216 18.4911 49.1047 18.7312 49.2709C18.9735 49.437 19.1523 49.6655 19.2677 49.9563H19.3231C19.4501 49.6724 19.652 49.4463 19.9289 49.2778C20.2059 49.107 20.5359 49.0216 20.919 49.0216C21.4014 49.0216 21.7949 49.1728 22.0995 49.4751C22.4065 49.7774 22.5599 50.2333 22.5599 50.8425V54.4082H21.5248V50.9395C21.5248 50.5794 21.4268 50.3186 21.2306 50.1571C21.0344 49.9955 20.8002 49.9148 20.5278 49.9148C20.1909 49.9148 19.9289 50.0186 19.742 50.2263C19.5551 50.4317 19.4616 50.696 19.4616 51.0191V54.4082H18.43V50.8737C18.43 50.5852 18.34 50.3533 18.16 50.1779C17.9799 50.0025 17.7457 49.9148 17.4572 49.9148C17.261 49.9148 17.0799 49.9667 16.9137 50.0705C16.7498 50.1721 16.6171 50.314 16.5156 50.4963C16.4164 50.6787 16.3667 50.8898 16.3667 51.1299V54.4082H15.3317ZM25.4947 54.5259C25.1577 54.5259 24.8531 54.4636 24.5808 54.339C24.3084 54.212 24.0926 54.0286 23.9334 53.7885C23.7765 53.5485 23.698 53.2543 23.698 52.9058C23.698 52.6058 23.7557 52.3588 23.8711 52.1649C23.9865 51.9711 24.1423 51.8176 24.3384 51.7045C24.5346 51.5914 24.7539 51.506 24.9962 51.4483C25.2385 51.3907 25.4855 51.3468 25.737 51.3168C26.0555 51.2799 26.314 51.2499 26.5125 51.2268C26.7109 51.2014 26.8552 51.161 26.9452 51.1056C27.0352 51.0502 27.0802 50.9602 27.0802 50.8356V50.8114C27.0802 50.509 26.9948 50.2748 26.824 50.1086C26.6555 49.9425 26.404 49.8594 26.0693 49.8594C25.7209 49.8594 25.4462 49.9367 25.2454 50.0913C25.047 50.2436 24.9096 50.4133 24.8335 50.6002L23.8607 50.3786C23.9761 50.0555 24.1446 49.7948 24.3661 49.5963C24.59 49.3955 24.8473 49.2501 25.1381 49.1601C25.4289 49.0678 25.7347 49.0216 26.0555 49.0216C26.2678 49.0216 26.4928 49.047 26.7306 49.0978C26.9706 49.1462 27.1944 49.2362 27.4021 49.3678C27.6122 49.4993 27.7841 49.6874 27.918 49.9321C28.0518 50.1744 28.1187 50.4894 28.1187 50.8771V54.4082H27.1079V53.6812H27.0663C26.9994 53.8151 26.899 53.9466 26.7652 54.0759C26.6313 54.2051 26.4594 54.3124 26.2494 54.3978C26.0393 54.4832 25.7878 54.5259 25.4947 54.5259ZM25.7197 53.6951C26.0059 53.6951 26.2505 53.6385 26.4536 53.5254C26.659 53.4124 26.8148 53.2646 26.921 53.0823C27.0294 52.8977 27.0837 52.7004 27.0837 52.4904V51.8049C27.0467 51.8418 26.9752 51.8765 26.869 51.9088C26.7652 51.9388 26.6463 51.9653 26.5125 51.9884C26.3786 52.0092 26.2482 52.0288 26.1213 52.0472C25.9943 52.0634 25.8882 52.0772 25.8028 52.0888C25.602 52.1142 25.4185 52.1569 25.2524 52.2169C25.0885 52.2769 24.9569 52.3634 24.8577 52.4765C24.7608 52.5873 24.7123 52.735 24.7123 52.9196C24.7123 53.1758 24.8069 53.3697 24.9962 53.5012C25.1854 53.6304 25.4266 53.6951 25.7197 53.6951ZM29.4974 54.4082V49.0909H30.5325V54.4082H29.4974ZM30.0201 48.2704C29.8401 48.2704 29.6855 48.2104 29.5563 48.0904C29.4293 47.9681 29.3659 47.8227 29.3659 47.6542C29.3659 47.4834 29.4293 47.338 29.5563 47.218C29.6855 47.0957 29.8401 47.0345 30.0201 47.0345C30.2002 47.0345 30.3536 47.0957 30.4806 47.218C30.6098 47.338 30.6744 47.4834 30.6744 47.6542C30.6744 47.8227 30.6098 47.9681 30.4806 48.0904C30.3536 48.2104 30.2002 48.2704 30.0201 48.2704ZM32.9601 47.3184V54.4082H31.925V47.3184H32.9601Z" fill="#414254"/>
<defs>
<clipPath id="clip0_133_4203">
<rect width="37.9108" height="37.9108" fill="white" transform="translate(0.294189 -0.00195312)"/>
</clipPath>
</defs>
</svg>
