<svg width="414" height="242" viewBox="0 0 414 242" fill="none" xmlns="http://www.w3.org/2000/svg">
<path d="M27.8992 0.345895C26.5358 3.28148 25.943 6.51607 26.1767 9.74435C26.4103 12.9726 27.4628 16.0881 29.2347 18.7968C31.0066 21.5054 33.4395 23.7179 36.3038 25.2253C39.168 26.7328 42.3692 27.4855 45.6051 27.4124C44.917 21.8169 42.9575 16.4531 39.8766 11.7317C36.7956 7.01043 32.675 3.05685 27.8303 0.173828" fill="#7D4666"/>
<path d="M379.987 220.13C377.966 220.876 376.168 222.124 374.762 223.756C373.355 225.388 372.387 227.35 371.946 229.459C371.506 231.567 371.609 233.753 372.244 235.812C372.88 237.87 374.029 239.733 375.582 241.226C377.89 238.258 379.491 234.803 380.263 231.124C381.036 227.444 380.959 223.637 380.039 219.992" fill="#7D4666"/>
<path d="M326.457 127.213C324.895 127.638 323.468 128.455 322.311 129.586C321.154 130.717 320.306 132.125 319.845 133.676C319.385 135.228 319.329 136.871 319.682 138.45C320.035 140.029 320.785 141.492 321.862 142.699C323.777 140.632 325.193 138.154 326.002 135.454C326.81 132.755 326.989 129.906 326.525 127.127" fill="#455A64"/>
</svg>
