<svg width="44" height="45" viewBox="0 0 44 45" fill="none" xmlns="http://www.w3.org/2000/svg">
<g clip-path="url(#clip0_189_556)">
<path d="M21.0833 10.5832H4.58333C3.3682 10.5846 2.20326 11.068 1.34403 11.9272C0.484808 12.7864 0.00145554 13.9514 0 15.1665L0 27.9998C0 30.5262 2.05517 32.5832 4.58333 32.5832H5.14617L3.71433 36.8768C3.6528 37.0621 3.652 37.2621 3.71205 37.4478C3.7721 37.6335 3.88986 37.7952 4.04819 37.9094C4.20652 38.0235 4.39715 38.0842 4.59233 38.0824C4.78751 38.0807 4.97704 38.0167 5.13333 37.8998L12.2228 32.5832H21.0833C23.6115 32.5832 25.6667 30.5262 25.6667 27.9998V15.1665C25.6667 12.6402 23.6115 10.5832 21.0833 10.5832ZM13.3888 26.8962C13.2302 27.0166 13.0367 27.0821 12.8376 27.0827C12.6385 27.0834 12.4446 27.0192 12.2852 26.8998C11.7773 26.5203 7.32783 23.103 7.32783 19.8122C7.32783 17.7332 9.009 16.0832 11 16.0832C11.4913 16.0832 12.1532 16.2115 12.8223 16.7303C13.3668 16.3405 14.019 16.1297 14.6887 16.1272C16.6998 16.1272 18.3333 17.6947 18.3333 19.6233C18.3333 23.0352 13.8948 26.5093 13.3888 26.8962ZM39.4167 6.9165H22.9167C22.569 6.91829 22.2226 6.96013 21.8845 7.04117C21.6751 7.0887 21.489 7.20823 21.3587 7.37893C21.2284 7.54962 21.1622 7.76063 21.1716 7.97516C21.181 8.18969 21.2654 8.39412 21.4101 8.55278C21.5548 8.71145 21.7506 8.81428 21.9633 8.84334C25.1222 9.28334 27.5018 12.0003 27.5018 15.1665V27.9998C27.5018 28.243 27.5984 28.4761 27.7703 28.648C27.9422 28.8199 28.1754 28.9165 28.4185 28.9165H31.779L38.8685 34.2332C39.0317 34.356 39.2242 34.4165 39.4185 34.4165H39.4552C39.6221 34.4169 39.786 34.3716 39.9292 34.2857C40.0723 34.1997 40.1892 34.0763 40.2673 33.9287C40.3455 33.7812 40.3818 33.6151 40.3724 33.4484C40.3631 33.2817 40.3083 33.1207 40.2142 32.9828L38.8538 28.9165H39.4167C41.9448 28.9165 44 26.8595 44 24.3332V11.4998C44 8.9735 41.9448 6.9165 39.4167 6.9165ZM35.3815 23.1708C35.2223 23.2908 35.0283 23.3553 34.8291 23.3546C34.6298 23.354 34.4362 23.2881 34.2778 23.1672C33.7718 22.7822 29.3333 19.3062 29.3333 16.0208C29.3333 13.9657 30.9687 12.3963 32.978 12.3963C33.6472 12.3963 34.2943 12.609 34.8443 12.9995C35.3612 12.584 36.0035 12.3559 36.6667 12.3523C38.6577 12.3523 40.3388 14.0023 40.3388 15.9548C40.3388 19.374 35.8893 22.7932 35.3815 23.1708Z" fill="#7D4666"/>
</g>
<defs>
<clipPath id="clip0_189_556">
<rect width="44" height="44" fill="white" transform="translate(0 0.5)"/>
</clipPath>
</defs>
</svg>
