<svg width="366" height="117" viewBox="0 0 366 117" fill="none" xmlns="http://www.w3.org/2000/svg">
<g opacity="0.6" clip-path="url(#clip0_163_6497)">
<path d="M333.342 30.7644C332.154 31.7792 331.244 33.0795 330.697 34.5429C330.15 36.0064 329.985 37.5849 330.216 39.13C330.447 40.675 331.068 42.1359 332.019 43.375C332.971 44.6142 334.222 45.5909 335.655 46.2134C336.481 43.6165 336.704 40.8653 336.306 38.1692C335.908 35.4732 334.9 32.9036 333.358 30.6562" fill="#455A64"/>
<path d="M101.956 0.332215C101.297 1.75154 101.01 3.31542 101.123 4.87625C101.236 6.43708 101.745 7.94339 102.602 9.25298C103.459 10.5626 104.635 11.6323 106.02 12.3611C107.405 13.0899 108.952 13.4539 110.517 13.4185C110.184 10.7132 109.237 8.11983 107.747 5.83713C106.258 3.55443 104.265 1.64293 101.923 0.249023" fill="#7FCCB1"/>
<path d="M272.186 106.595C271.209 106.956 270.34 107.559 269.66 108.348C268.98 109.137 268.512 110.086 268.299 111.105C268.086 112.125 268.135 113.182 268.443 114.177C268.75 115.172 269.306 116.073 270.057 116.794C271.173 115.36 271.947 113.689 272.32 111.91C272.693 110.131 272.656 108.291 272.211 106.528" fill="#7FCCB1"/>
<path d="M12.0658 42.5364C10.5738 42.0737 8.9887 41.998 7.45945 42.3166C5.9302 42.6352 4.50712 43.3375 3.32404 44.3575C2.14096 45.3775 1.23678 46.6817 0.69652 48.1474C0.156264 49.6131 -0.00230509 51.1921 0.235727 52.7359C2.86758 52.0542 5.30929 50.7812 7.37513 49.0138C9.44096 47.2463 11.0765 45.031 12.1573 42.5364" fill="#7FCCB1"/>
<path d="M341.436 23.3268C341.456 24.1072 341.674 24.8697 342.07 25.5428C342.465 26.2159 343.025 26.7775 343.697 27.175C344.369 27.5725 345.131 27.7928 345.911 27.8152C346.691 27.8377 347.465 27.6616 348.158 27.3034C347.413 26.163 346.417 25.208 345.246 24.5116C344.075 23.8151 342.761 23.3956 341.403 23.2852" fill="#455A64"/>
<path d="M246.305 61.6715C245.55 61.877 244.86 62.2719 244.301 62.8188C243.742 63.3657 243.331 64.0464 243.109 64.7964C242.886 65.5464 242.859 66.3408 243.03 67.1043C243.2 67.8678 243.563 68.575 244.084 69.1589C245.01 68.1595 245.694 66.9612 246.085 65.6561C246.476 64.351 246.563 62.9737 246.338 61.6299" fill="#455A64"/>
<path d="M79.2611 100.156C78.5077 100.364 77.8195 100.76 77.2615 101.307C76.7035 101.854 76.2941 102.534 76.0718 103.283C75.8496 104.033 75.8218 104.826 75.9912 105.589C76.1605 106.352 76.5214 107.059 77.0398 107.644C77.9654 106.642 78.6497 105.443 79.0404 104.136C79.4312 102.83 79.518 101.452 79.2944 100.106" fill="#7FCCB1"/>
</g>
<defs>
<clipPath id="clip0_163_6497">
<rect width="366" height="116.52" fill="white" transform="translate(0 0.239258)"/>
</clipPath>
</defs>
</svg>
