<svg width="414" height="145" viewBox="0 0 414 145" fill="none" xmlns="http://www.w3.org/2000/svg">
<g clip-path="url(#clip0_133_3927)">
<rect width="416" height="145" transform="translate(-1)" fill="#F6F3F0"/>
<g opacity="0.5">
<path d="M59.4289 24.6813C59.4289 24.6813 66.8372 56.5635 81.6822 61.326C95.1381 65.6444 110.843 61.1559 123.259 67.9406C131.443 72.4668 136.422 81.0847 143.462 87.2457C156.068 98.292 175.751 100.361 190.378 92.1783C196.889 88.5402 202.776 82.984 210.222 82.2753C216.893 81.6422 223.158 85.1101 229.537 87.1417C241.295 90.8487 254.035 89.832 265.057 84.3069C271.672 80.9146 277.464 75.9725 284.353 73.1566C293.434 69.443 303.563 69.7454 313.324 68.7721C327.102 67.3925 341.484 62.7245 349.95 51.7632C354.732 45.5644 357.217 37.8726 362.15 31.7967C369.274 22.9709 380.425 18.662 389.676 12.1041C398.927 5.54625 406.902 -6.00091 402.801 -16.5748L-1 -17C-1 -17 12.0496 43.1265 59.4289 24.6813Z" fill="#A98467" fill-opacity="0.2"/>
<path d="M295.816 -16.5088L288.304 61.4959C288.304 61.4959 287.964 66.8821 282.88 68.2806C277.796 69.6791 272.485 47.8699 272.485 47.8699L267.213 50.1756L279.497 77.5788L285.979 99.2652L289.475 152.494L280.858 413.59L309.253 413.665C309.253 413.665 306.352 165.08 307.032 154.298C307.713 143.517 329.796 111.88 329.796 111.88L329.097 104.803L306.059 135.645L318.22 -16.4899L295.816 -16.5088Z" fill="#A98467" fill-opacity="0.3"/>
<path d="M10.4243 -17C10.4243 -17 26.4882 75.9537 31.2129 88.4647C35.9376 100.976 40.8419 115.414 40.8419 115.414L75.2565 53.4641L80.9262 56.5446L45.6705 125.998C45.6705 125.998 64.9189 149.101 65.8827 169.304C66.8466 189.507 65.8827 223.166 65.8827 223.166L83.005 415.338H55.2994V224.158C55.2994 224.158 61.073 175.068 58.1815 166.413C55.29 157.757 38.9331 129.844 38.9331 129.844C38.9331 129.844 21.395 107.704 19.0893 85.5731C16.7837 63.4427 2.86475 -17 2.86475 -17H10.4243Z" fill="#A98467" fill-opacity="0.3"/>
<path d="M149.916 -17C149.916 -17 127.586 32.4 124.248 59.1995L110.026 21.9511C105.005 25.7147 120.03 75.0566 120.03 75.0566C120.03 75.0566 108.788 130.262 108.972 158.706C109.155 187.15 108.972 300.056 108.972 300.056L81.969 422.84L112.658 422.927C112.658 422.927 125.922 317.626 125.08 306.751C124.239 295.876 124.248 156.19 124.248 156.19C124.248 156.19 130.053 90.1204 135.123 70.8771C140.193 51.6337 170.668 -17 170.668 -17H149.916Z" fill="#A98467" fill-opacity="0.4"/>
<path d="M395.733 -16.585C395.733 -16.585 376.985 31.0116 375.095 57.2904L359.315 21.7134C354.59 25.6444 371.835 73.0047 371.835 73.0047C371.835 73.0047 363.699 127.424 365.344 155.148C366.988 182.873 372.601 293.015 372.601 293.015L352.549 414.156L382.485 412.663C382.485 412.663 390.044 309.277 388.636 298.722C387.228 288.167 380.085 151.917 380.085 151.917C380.085 151.917 382.4 87.1693 386.302 68.1477C390.205 49.1261 415 -16.585 415 -16.585H395.733Z" fill="#A98467" fill-opacity="0.4"/>
<path d="M84.8477 95.0322C79.4747 96.3446 74.6657 99.3491 71.1302 103.603C67.5947 107.856 65.5199 113.133 65.2119 118.656C76.1827 117.342 85.2919 106.929 85.1312 95.8827" fill="#A98467" fill-opacity="0.2"/>
<path d="M328.075 7.76663C329.102 11.2094 331.209 14.2307 334.085 16.3847C336.96 18.5388 340.452 19.7114 344.044 19.7296C343.328 16.1962 341.381 13.0317 338.55 10.7994C335.72 8.56714 332.188 7.41207 328.585 7.53984" fill="#A98467" fill-opacity="0.3"/>
<path d="M351.547 66.249C354.647 68.6201 358.426 69.9338 362.328 69.9967C366.23 70.0597 370.05 68.8685 373.224 66.5986C370.342 63.9494 366.613 62.4082 362.701 62.249C358.789 62.0899 354.948 63.323 351.859 65.7292" fill="#A98467" fill-opacity="0.2"/>
<path d="M99.088 132.054C98.7932 135.121 99.4907 138.201 101.078 140.841C102.665 143.481 105.058 145.542 107.904 146.72C108.475 143.682 107.95 140.54 106.422 137.853C104.894 135.166 102.463 133.108 99.5605 132.045" fill="#A98467" fill-opacity="0.3"/>
<path d="M209.098 13.6152C207.664 16.3415 207.142 19.4559 207.61 22.5006C208.078 25.5453 209.51 28.3596 211.696 30.5296C213.372 27.9324 214.071 24.8247 213.67 21.7601C213.268 18.6954 211.792 15.8728 209.504 13.7948" fill="#A98467" fill-opacity="0.3"/>
</g>
<g opacity="0.54" filter="url(#filter0_f_133_3927)">
<circle cx="403.943" cy="-79.0575" r="185.943" fill="#7FCCB1"/>
</g>
<path d="M321.539 163.483C320.611 158.801 320.884 153.961 322.333 149.413C323.783 144.866 326.36 140.76 329.826 137.478C333.292 134.197 337.532 131.847 342.152 130.648C346.772 129.45 351.62 129.441 356.244 130.623C355.941 126.46 356.502 122.28 357.891 118.344C359.28 114.408 361.468 110.802 364.317 107.751C367.165 104.7 370.614 102.272 374.446 100.617C378.278 98.9621 382.41 98.1171 386.584 98.1349C390.485 81.1571 408.076 68.4763 425.419 70.1481V165L321.539 163.483Z" fill="white"/>
<path d="M362.214 116.55C362.756 116.641 363.274 116.841 363.738 117.137C364.201 117.433 364.599 117.82 364.909 118.275C365.527 119.187 365.927 120.229 366.078 121.321C366.428 123.416 365.86 125.794 365.082 127.768C362.951 126.769 361.811 124.279 361.315 122.981C360.529 120.93 360.352 116.744 362.214 116.534" fill="#CBB5A4"/>
<path d="M368.23 130.718C367.908 130.193 367.732 129.593 367.717 128.978C367.703 128.363 367.852 127.755 368.149 127.216C368.452 126.685 368.857 126.218 369.341 125.844C369.825 125.47 370.379 125.195 370.969 125.037C371.236 124.934 371.521 124.89 371.806 124.91C372.091 124.929 372.368 125.011 372.617 125.149C372.826 125.314 372.986 125.532 373.081 125.78C373.176 126.029 373.202 126.298 373.157 126.56C373.063 127.084 372.833 127.575 372.489 127.982C371.372 129.416 370.035 130.605 368.217 130.714" fill="#876A52"/>
<path d="M367.694 137.35C367.648 137.206 367.623 137.057 367.621 136.906C367.589 136.624 367.557 136.209 367.528 135.697C367.428 134.359 367.509 133.013 367.77 131.696C368.041 130.366 368.67 129.135 369.587 128.134C369.869 127.837 370.187 127.575 370.534 127.357C370.657 127.269 370.793 127.201 370.937 127.155C370.507 127.488 370.102 127.853 369.728 128.247C368.875 129.253 368.287 130.457 368.02 131.749C367.766 133.048 367.662 134.371 367.71 135.693C367.735 136.245 367.73 136.798 367.694 137.35Z" fill="#414254"/>
<path d="M362.709 119.726C362.82 119.945 362.91 120.175 362.979 120.411C363.136 120.858 363.358 121.507 363.62 122.308C364.144 123.92 364.829 126.152 365.534 128.634C366.239 131.117 366.811 133.385 367.202 135.033C367.399 135.839 367.553 136.52 367.649 136.983C367.712 137.221 367.754 137.464 367.774 137.709C367.682 137.482 367.609 137.247 367.557 137.007L367.041 135.073C366.61 133.437 366.005 131.181 365.304 128.699C364.603 126.217 363.942 123.981 363.459 122.361C363.229 121.579 363.056 120.934 362.891 120.439C362.809 120.207 362.749 119.968 362.709 119.726Z" fill="#414254"/>
<path d="M365.389 132.708C364.856 131.526 364.049 130.488 363.035 129.68C362.021 128.872 360.829 128.317 359.558 128.062C358.91 127.937 358.116 127.957 357.753 128.505C357.391 129.053 357.701 129.799 358.092 130.33C358.92 131.43 360.056 132.259 361.355 132.713C362.655 133.168 364.06 133.228 365.393 132.885" fill="#876A52"/>
<path d="M360.267 129.92C360.403 129.915 360.539 129.93 360.67 129.964C360.837 129.987 361.001 130.022 361.162 130.069C361.377 130.121 361.59 130.184 361.799 130.258C362.345 130.451 362.871 130.696 363.37 130.991C364.594 131.721 365.631 132.725 366.4 133.925C366.712 134.413 366.974 134.931 367.182 135.472C367.264 135.677 367.334 135.887 367.391 136.101C367.445 136.26 367.485 136.423 367.512 136.588C367.552 136.726 367.571 136.868 367.569 137.011C367.524 137.011 367.407 136.427 367.025 135.537C366.802 135.016 366.532 134.517 366.219 134.046C365.449 132.889 364.439 131.912 363.257 131.181C362.779 130.88 362.273 130.625 361.746 130.419C360.86 130.065 360.259 129.984 360.267 129.92Z" fill="#414254"/>
<path d="M-65 53.3212C-64.9027 53.2382 -64.7999 53.1619 -64.6924 53.0927L-63.7519 52.4598C-63.2443 52.1055 -62.7191 51.7769 -62.1785 51.4754C-61.5281 51.1238 -60.8073 50.6579 -59.9284 50.2624C-51.3555 46.0154 -41.5675 44.8992 -32.2585 47.1069C-27.7657 48.1723 -23.5019 50.0392 -19.6717 52.618C-17.5839 54.0444 -15.6198 55.6439 -13.8002 57.3996C-11.9154 59.2967 -10.2007 61.3555 -8.67587 63.5524C-5.41614 68.3056 -3.20769 73.6993 -2.19789 79.3738L-2.51432 79.2419C4.28008 74.3637 13.7641 72.9573 22.5538 75.3217C27.0613 76.4654 31.3093 78.4581 35.0703 81.1932C36.0282 81.8887 36.9467 82.637 37.8214 83.4346C38.2521 83.8389 38.7004 84.2257 39.1311 84.6476L40.3616 85.9572C40.7795 86.3858 41.1728 86.8377 41.5394 87.3108L42.6821 88.6996L43.7281 90.1763C44.0959 90.6577 44.4363 91.1595 44.7477 91.6793C46.4334 94.3142 47.8442 97.1152 48.9579 100.038C50.0806 102.889 50.9626 105.83 51.5948 108.828C52.1911 111.746 52.5963 114.7 52.8078 117.67C52.9702 120.548 52.9702 123.433 52.8078 126.311L52.4826 126.126C58.4662 122.539 65.4046 120.87 72.3648 121.344C75.6029 121.536 78.81 122.084 81.9279 122.979C84.8852 123.859 87.7518 125.019 90.4891 126.442C95.4604 129.092 99.924 132.601 103.674 136.805C106.911 140.401 109.738 144.345 112.103 148.566C114.024 152.002 115.699 155.571 117.113 159.245C118.343 162.462 119.284 165.266 119.943 167.578C121.288 172.193 121.789 174.759 121.789 174.759L121.657 174.293C121.578 173.977 121.455 173.52 121.297 172.922C120.989 171.709 120.506 169.916 119.803 167.648C119.099 165.381 118.168 162.55 116.92 159.342C115.484 155.691 113.798 152.143 111.874 148.724C109.503 144.532 106.673 140.617 103.436 137.051C99.6823 132.877 95.2185 129.402 90.2517 126.785C87.5693 125.375 84.7623 124.215 81.8664 123.322C78.7734 122.44 75.593 121.901 72.3824 121.714C65.5102 121.258 58.6625 122.91 52.7551 126.451L52.4123 126.662V126.267C52.56 123.403 52.5453 120.533 52.3683 117.67C52.1571 114.717 51.7519 111.781 51.1553 108.881C50.5377 105.907 49.6733 102.991 48.5712 100.161C47.4674 97.2653 46.0683 94.4908 44.3961 91.8815C44.0884 91.3629 43.7457 90.8706 43.3941 90.3872L42.3129 88.9721L41.1879 87.5833C40.8218 87.1178 40.4316 86.6719 40.0188 86.2473L38.7971 84.9552C38.384 84.5421 37.9181 84.1641 37.505 83.7598C36.642 82.971 35.7352 82.2315 34.789 81.5448C31.0727 78.8409 26.8756 76.8692 22.4219 75.7348C13.7378 73.3968 4.37678 74.7768 -2.30336 79.5671L-2.56705 79.7517L-2.61979 79.4441C-3.61605 73.832 -5.79424 68.4958 -9.00988 63.7897C-11.9152 59.5066 -15.6043 55.8115 -19.8827 52.8993C-23.6733 50.3301 -27.8951 48.4633 -32.3464 47.3882C-36.1466 46.4648 -40.0607 46.0977 -43.9663 46.2983C-49.4889 46.5727 -54.8996 47.9568 -59.8756 50.3679C-60.7546 50.7546 -61.4753 51.2029 -62.1258 51.5545C-62.7762 51.9061 -63.2948 52.2313 -63.7167 52.5038L-64.6748 53.1103L-65 53.3212Z" fill="#414254"/>
<path d="M-1.69145 150.78C-2.31878 147.419 -2.07658 143.954 -0.987871 140.714C0.100842 137.473 1.99993 134.565 4.52901 132.264C7.0581 129.964 10.1332 128.349 13.4623 127.572C16.7914 126.794 20.2639 126.881 23.55 127.824C25.6144 119.106 35.3684 113.03 44.1307 115C52.8931 116.97 59.0863 126.634 57.2428 135.405C60.1006 134.145 63.2298 133.624 66.3419 133.89C69.4541 134.156 72.4492 135.201 75.0515 136.929C80.1899 140.422 83.3451 144.442 83.0296 150.663" fill="#7A9AAF"/>
<path d="M55.1829 146.146L55.1469 146.047L55.0522 145.75C54.9376 145.368 54.8007 144.993 54.6421 144.627C54.0512 143.287 53.1992 142.078 52.1359 141.071C50.5565 139.566 48.5449 138.595 46.3845 138.294C43.7382 137.996 41.0753 138.69 38.9112 140.241C38.074 140.838 37.3336 141.56 36.7161 142.382L36.5584 142.599L36.5178 142.333C36.1763 140.066 35.2952 137.914 33.9486 136.059C33.3716 135.262 32.7212 134.521 32.0059 133.845C31.383 133.267 30.7137 132.741 30.0046 132.272C28.986 131.596 27.8846 131.054 26.7277 130.659C26.3266 130.505 25.9975 130.442 25.7812 130.37C25.6698 130.341 25.56 130.307 25.4521 130.267C25.567 130.277 25.6804 130.299 25.7902 130.334C26.1142 130.401 26.4346 130.484 26.7503 130.582C27.9266 130.952 29.0472 131.479 30.0812 132.151C30.8072 132.614 31.4919 133.139 32.1276 133.719C32.8569 134.396 33.5196 135.142 34.1064 135.946C35.4862 137.819 36.3882 140.001 36.7342 142.301L36.5358 142.252C37.1689 141.408 37.9292 140.667 38.7895 140.057C41.0063 138.463 43.7418 137.761 46.4521 138.091C48.6448 138.408 50.6807 139.411 52.2667 140.958C53.337 141.985 54.1813 143.224 54.7457 144.596C54.9447 145.096 55.0913 145.616 55.1829 146.146Z" fill="#414254"/>
<g opacity="0.3">
<path d="M26.5203 130.204C28.8273 129.78 31.2091 130.092 33.3291 131.096C35.4491 132.099 37.1999 133.744 38.3341 135.797C40.5878 133.801 44.0225 133.508 46.7675 134.716C49.5125 135.924 51.5408 138.434 52.6271 141.233C51.6262 140.044 50.3573 139.109 48.9247 138.506C47.4922 137.902 45.9368 137.647 44.3866 137.762C42.8364 137.877 41.3356 138.358 40.0075 139.166C38.6795 139.974 37.5622 141.086 36.7475 142.41C36.2221 139.822 35.0862 137.398 33.4342 135.338C31.7823 133.278 29.6622 131.643 27.2505 130.569" fill="#414254"/>
</g>
<path d="M9.36982 123.988C8.58553 125.003 7.08457 125.259 5.87208 124.854C4.67261 124.376 3.65066 123.538 2.94678 122.456C4.01322 121.859 5.26743 121.693 6.45241 121.992C7.63739 122.29 8.66341 123.03 9.32024 124.061" fill="#A98467"/>
<path d="M12.1283 123.424C10.2127 123.569 8.42326 122.153 7.66602 120.387C6.90877 118.62 7.00794 116.6 7.4136 114.721C9.14597 115.316 10.5855 116.55 11.4377 118.171C12.2898 119.793 12.4901 121.678 11.9976 123.443" fill="#CBB5A4"/>
<path fill-rule="evenodd" clip-rule="evenodd" d="M195.36 28.627C197.294 33.3354 194.026 39.7268 200.089 39.3409C200.241 38.3106 200.105 36.9354 199.67 35.2113C200.27 35.8106 201.017 37.6045 201.427 39.1767C205.701 34.4026 199.629 30.1786 195.36 28.627Z" fill="#7D4666"/>
<path fill-rule="evenodd" clip-rule="evenodd" d="M208.71 26.5625C209.797 31.5336 205.454 37.297 211.509 37.9251C211.842 36.9358 211.944 35.5565 211.817 33.779C212.301 34.4728 212.728 36.3652 212.86 37.9866C217.909 33.9843 212.654 28.8038 208.71 26.5625Z" fill="#7D4666"/>
<path fill-rule="evenodd" clip-rule="evenodd" d="M177.742 34.969C182.376 37.2555 184.24 44.1682 188.53 39.9648C187.951 39.0945 186.916 38.1504 185.426 37.1323C186.28 37.198 188.053 38.0642 189.424 38.9796C189.408 32.6374 181.994 33.3804 177.742 34.969Z" fill="#7D4666"/>
<path fill-rule="evenodd" clip-rule="evenodd" d="M173.062 39.0254C176.297 42.9908 175.045 50.0349 180.738 47.9619C180.582 46.9316 180.049 45.6549 179.125 44.1238C179.876 44.5302 181.116 46.0367 181.974 47.4283C184.663 41.6567 177.606 39.3127 173.062 39.0254Z" fill="#7D4666"/>
<path fill-rule="evenodd" clip-rule="evenodd" d="M237.485 33.1262C233.056 35.7698 226.061 33.6762 227.457 39.456C228.52 39.4314 229.887 39.0743 231.554 38.3682C231.045 39.0455 229.362 40.0595 227.843 40.7163C233.368 44.0454 236.627 37.4939 237.485 33.1221V33.1262Z" fill="#7D4666"/>
<path fill-rule="evenodd" clip-rule="evenodd" d="M162.492 49.4395C167.348 51.2333 173.821 47.9124 173.546 53.8441C172.496 54.0124 171.088 53.9098 169.314 53.5198C169.942 54.0945 171.789 54.7841 173.407 55.1577C168.608 59.4268 164.167 53.5814 162.492 49.4436V49.4395Z" fill="#7D4666"/>
<path fill-rule="evenodd" clip-rule="evenodd" d="M161.51 54.9482C164.647 58.0147 170.886 57.6534 168.538 62.1771C167.66 61.9472 166.601 61.3807 165.357 60.4694C165.64 61.1303 166.83 62.3044 167.955 63.15C162.68 64.8289 161.322 58.7453 161.506 54.9482H161.51Z" fill="#7D4666"/>
<path fill-rule="evenodd" clip-rule="evenodd" d="M239.788 38.7578C237.391 42.0418 231.611 42.6411 234.476 46.4423C235.248 46.1016 236.131 45.4243 237.124 44.398C236.968 45.0466 236.061 46.3027 235.162 47.2469C240.264 47.994 240.556 42.2142 239.788 38.7578Z" fill="#7D4666"/>
<path fill-rule="evenodd" clip-rule="evenodd" d="M254.985 57.7639C250.978 59.3771 245.498 56.7582 245.876 61.7005C246.754 61.8155 247.928 61.6964 249.398 61.327C248.889 61.8196 247.366 62.4435 246.024 62.7884C250.133 66.2365 253.692 61.2531 254.985 57.7598V57.7639Z" fill="#7D4666"/>
<path fill-rule="evenodd" clip-rule="evenodd" d="M251.085 66.4499C247.115 66.9671 242.85 63.3589 241.988 67.862C242.748 68.1699 243.823 68.3341 245.227 68.3423C244.652 68.6666 243.142 68.8677 241.857 68.8677C244.693 72.8988 249.082 69.27 251.081 66.4458L251.085 66.4499Z" fill="#7D4666"/>
<path fill-rule="evenodd" clip-rule="evenodd" d="M218.007 28.8203C219.813 33.5862 216.365 39.8996 222.445 39.6697C222.625 38.6435 222.527 37.2642 222.141 35.5237C222.724 36.1395 223.422 37.9539 223.791 39.5425C228.2 34.871 222.239 30.4828 218.007 28.8203Z" fill="#7D4666"/>
<path fill-rule="evenodd" clip-rule="evenodd" d="M251.812 48.9678C248.864 50.5441 244.406 48.9842 245.129 52.7649C245.818 52.7813 246.713 52.5884 247.813 52.182C247.465 52.6048 246.344 53.2123 245.338 53.59C248.807 55.9052 251.118 51.7674 251.808 48.9678H251.812Z" fill="#7D4666"/>
<path fill-rule="evenodd" clip-rule="evenodd" d="M156.724 66.208C161.802 67.653 168.107 63.7779 168.308 69.8245C167.257 70.079 165.817 70.079 163.982 69.8245C164.663 70.3581 166.597 70.9164 168.271 71.1709C163.744 75.8793 158.756 70.2883 156.724 66.2121V66.208Z" fill="#7D4666"/>
<path fill-rule="evenodd" clip-rule="evenodd" d="M175.238 52.7603C178.185 52.5346 181.182 55.3588 181.998 52.0748C181.452 51.8162 180.664 51.6561 179.63 51.5945C180.065 51.3811 181.19 51.2867 182.134 51.3359C180.205 48.2531 176.826 50.7571 175.233 52.7603H175.238Z" fill="#7D4666"/>
<path fill-rule="evenodd" clip-rule="evenodd" d="M186.666 44.4191C186.567 47.3255 183.341 49.9403 186.612 51.1061C186.937 50.6012 187.191 49.85 187.372 48.8443C187.544 49.2958 187.511 50.4042 187.355 51.3196C190.725 49.7802 188.542 46.1925 186.67 44.415L186.666 44.4191Z" fill="#7D4666"/>
<path fill-rule="evenodd" clip-rule="evenodd" d="M171.235 62.0986C174.027 60.7029 178.144 62.2751 177.573 58.7325C176.933 58.6997 176.092 58.8557 175.053 59.2046C175.39 58.8187 176.453 58.281 177.397 57.9526C174.224 55.7031 171.954 59.5043 171.235 62.0986Z" fill="#7D4666"/>
<path fill-rule="evenodd" clip-rule="evenodd" d="M188.468 29.2061C189.933 32.1739 188.098 36.4595 192.01 35.9505C192.064 35.2773 191.912 34.3906 191.555 33.2905C191.969 33.6558 192.532 34.7847 192.872 35.7863C195.43 32.5064 191.304 30.0312 188.468 29.2061Z" fill="#7D4666"/>
<path fill-rule="evenodd" clip-rule="evenodd" d="M205.261 38.0107C204.26 40.445 200.701 41.6929 203.11 43.6674C203.545 43.3349 203.997 42.7766 204.465 41.9761C204.465 42.4113 204.091 43.339 203.669 44.0738C207.014 43.7823 206.287 40.0838 205.261 38.0107Z" fill="#7D4666"/>
<path fill-rule="evenodd" clip-rule="evenodd" d="M207.293 37.174C208.804 39.3456 212.551 39.8176 210.634 42.2478C210.138 42.0138 209.575 41.5622 208.943 40.8808C209.034 41.3036 209.604 42.1369 210.179 42.7609C206.85 43.1755 206.747 39.4071 207.297 37.1699L207.293 37.174Z" fill="#7D4666"/>
<path fill-rule="evenodd" clip-rule="evenodd" d="M195.315 40.9297C197.179 41.8451 199.908 40.786 199.543 43.1423C199.116 43.1669 198.558 43.0684 197.864 42.8385C198.09 43.093 198.8 43.446 199.428 43.6595C197.326 45.1701 195.803 42.6497 195.311 40.9297H195.315Z" fill="#7D4666"/>
<path fill-rule="evenodd" clip-rule="evenodd" d="M171.305 77.8743C172.984 76.1256 176.416 76.2077 175.065 73.7611C174.585 73.9048 174.01 74.2373 173.341 74.7628C173.489 74.3933 174.125 73.7242 174.733 73.2357C171.814 72.4147 171.153 75.7849 171.305 77.8702V77.8743Z" fill="#7D4666"/>
<path fill-rule="evenodd" clip-rule="evenodd" d="M170.722 65.293C171.978 67.4399 175.468 68.1541 173.481 70.301C173.033 70.0465 172.537 69.5786 171.991 68.8971C172.044 69.3035 172.52 70.1245 173.009 70.7526C169.848 70.9045 170.033 67.3578 170.718 65.293H170.722Z" fill="#7D4666"/>
<path fill-rule="evenodd" clip-rule="evenodd" d="M181.506 68.6342C184.519 67.608 188.443 69.759 188.373 66.1097C187.733 65.9865 186.863 66.0317 185.767 66.241C186.161 65.9003 187.31 65.5021 188.308 65.301C185.43 62.5999 182.602 66.1179 181.502 68.6342H181.506Z" fill="#7D4666"/>
<path fill-rule="evenodd" clip-rule="evenodd" d="M218.044 39.0742C216 40.7737 212.252 40.2564 213.442 43.0971C213.984 43.0027 214.653 42.7112 215.446 42.2186C215.24 42.6045 214.465 43.2572 213.742 43.7128C216.841 44.9772 217.962 41.373 218.04 39.0742H218.044Z" fill="#7D4666"/>
<path fill-rule="evenodd" clip-rule="evenodd" d="M192.388 62.7802C195.713 62.6365 198.98 65.9246 200.023 62.2548C199.42 61.9469 198.537 61.7334 197.375 61.6267C197.876 61.4009 199.141 61.3394 200.204 61.4297C198.151 57.8912 194.252 60.584 192.384 62.7802H192.388Z" fill="#7D4666"/>
<path fill-rule="evenodd" clip-rule="evenodd" d="M185.607 57.9898C187.479 57.0908 188.263 54.3241 189.966 56.0317C189.728 56.3807 189.309 56.7542 188.706 57.1565C189.051 57.136 189.765 56.7953 190.323 56.434C190.286 58.9832 187.31 58.6507 185.611 57.9898H185.607Z" fill="#7D4666"/>
<path fill-rule="evenodd" clip-rule="evenodd" d="M189.248 45.5929C191.272 46.0855 193.693 44.464 193.87 46.8408C193.46 46.9557 192.893 46.9803 192.166 46.9064C192.446 47.1076 193.213 47.2964 193.878 47.3703C192.166 49.2955 190.114 47.1651 189.248 45.5887V45.5929Z" fill="#7D4666"/>
<path fill-rule="evenodd" clip-rule="evenodd" d="M213.27 44.9238C215.101 47.5592 219.657 48.1339 217.326 51.0854C216.722 50.8021 216.037 50.2521 215.269 49.427C215.38 49.9401 216.074 50.9499 216.768 51.7134C212.724 52.2143 212.601 47.6454 213.27 44.9279V44.9238Z" fill="#7D4666"/>
<path fill-rule="evenodd" clip-rule="evenodd" d="M229.546 44.3652C229.509 46.9349 232.247 49.3692 229.312 50.2682C229.05 49.8084 228.857 49.1352 228.738 48.2444C228.565 48.6344 228.549 49.6155 228.647 50.4324C225.737 48.9382 227.818 45.8635 229.542 44.3693L229.546 44.3652Z" fill="#7D4666"/>
<path fill-rule="evenodd" clip-rule="evenodd" d="M228.249 44.1437C226.098 44.4803 223.722 42.5797 223.323 45.0426C223.742 45.1986 224.329 45.2725 225.093 45.2561C224.785 45.4408 223.964 45.5722 223.27 45.5927C224.875 47.7437 227.207 45.7077 228.249 44.1437Z" fill="#7D4666"/>
<path fill-rule="evenodd" clip-rule="evenodd" d="M238.943 52.1407C236.04 51.9026 233.582 48.6885 232.252 51.759C232.74 52.0915 233.483 52.3747 234.476 52.5964C234.017 52.7401 232.908 52.6539 231.997 52.4568C233.372 55.7531 237.071 53.8443 238.943 52.1407Z" fill="#7D4666"/>
<path fill-rule="evenodd" clip-rule="evenodd" d="M167.331 42.1035C169.966 44.0862 174.568 43.2283 173.271 46.8119C172.594 46.7257 171.752 46.4055 170.738 45.8431C171.013 46.307 172.015 47.0705 172.934 47.5919C169.178 49.3365 167.569 44.9483 167.331 42.1035Z" fill="#7D4666"/>
<path fill-rule="evenodd" clip-rule="evenodd" d="M245.28 43.3555C243.265 45.9826 238.544 46.3644 240.802 49.5129C241.438 49.2502 242.169 48.7125 242.998 47.8997C242.859 48.4251 242.095 49.4308 241.344 50.182C245.482 50.8881 245.835 46.1838 245.28 43.3555Z" fill="#7D4666"/>
<path fill-rule="evenodd" clip-rule="evenodd" d="M245.432 58.7002C242.957 57.4441 241.997 53.725 239.669 55.9581C239.977 56.4301 240.523 56.9433 241.319 57.4974C240.86 57.4564 239.915 56.9843 239.185 56.4835C239.156 59.8906 243.142 59.5294 245.432 58.7002Z" fill="#7D4666"/>
<path fill-rule="evenodd" clip-rule="evenodd" d="M235.921 65.8219C233.228 64.0239 232.666 59.5495 229.62 61.8483C229.908 62.4394 230.47 63.1126 231.311 63.8638C230.782 63.7571 229.752 63.0757 228.976 62.3943C228.434 66.3679 233.126 66.4828 235.921 65.8219Z" fill="#7D4666"/>
<path fill-rule="evenodd" clip-rule="evenodd" d="M226.459 56.6807C223.126 56.6028 220.093 53.1012 218.795 56.6972C219.378 57.0461 220.244 57.317 221.394 57.5017C220.881 57.6947 219.608 57.67 218.553 57.51C220.355 61.1839 224.44 58.7497 226.459 56.6807Z" fill="#7D4666"/>
<path fill-rule="evenodd" clip-rule="evenodd" d="M209.091 50.8389C210.754 53.6631 215.351 54.5908 212.74 57.4232C212.149 57.0907 211.492 56.475 210.774 55.576C210.848 56.1097 211.476 57.1893 212.125 58.0185C207.962 58.2278 208.196 53.5564 209.091 50.8389Z" fill="#7D4666"/>
<path fill-rule="evenodd" clip-rule="evenodd" d="M208.283 67.1768C209.769 69.2087 213.348 69.5782 211.575 71.9303C211.099 71.721 210.549 71.2981 209.933 70.666C210.027 71.0683 210.594 71.8441 211.152 72.4311C207.995 72.895 207.811 69.3196 208.283 67.1768Z" fill="#7D4666"/>
<path fill-rule="evenodd" clip-rule="evenodd" d="M202.063 49.8584C201.23 51.7549 202.494 54.3862 200.036 54.1686C199.982 53.7499 200.052 53.1916 200.245 52.4938C199.995 52.7319 199.674 53.4544 199.49 54.0906C197.798 52.1079 200.311 50.4495 202.059 49.8584H202.063Z" fill="#7D4666"/>
<path fill-rule="evenodd" clip-rule="evenodd" d="M203.299 26C203.755 29.0787 200.865 32.4284 204.535 33.0523C204.777 32.4612 204.9 31.6238 204.896 30.5319C205.163 30.9752 205.344 32.1492 205.356 33.1426C208.607 30.8972 205.614 27.527 203.299 26Z" fill="#7D4666"/>
<path fill-rule="evenodd" clip-rule="evenodd" d="M228.011 29.5674C227.124 31.702 223.992 32.7775 226.094 34.5221C226.476 34.2347 226.874 33.7421 227.288 33.0443C227.288 33.4261 226.956 34.2388 226.582 34.8792C229.517 34.637 228.902 31.39 228.007 29.5674H228.011Z" fill="#7D4666"/>
<path fill-rule="evenodd" clip-rule="evenodd" d="M244.349 40.3633C243.076 41.4142 240.753 41.0858 241.488 42.8509C241.824 42.7934 242.239 42.6128 242.732 42.309C242.604 42.5471 242.12 42.9494 241.672 43.2327C243.594 44.0208 244.296 41.7877 244.349 40.3633Z" fill="#7D4666"/>
<path fill-rule="evenodd" clip-rule="evenodd" d="M159.331 90.3746C163.608 89.4263 168.645 92.9525 169.109 87.9527C168.251 87.6899 167.056 87.616 165.525 87.7392C166.116 87.3328 167.746 86.9634 169.146 86.8361C165.628 82.7106 161.215 87.0988 159.331 90.3746Z" fill="#7D4666"/>
<path fill-rule="evenodd" clip-rule="evenodd" d="M171.79 93.4032C175.459 91.4328 176.9 85.772 180.336 89.0848C179.88 89.8072 179.068 90.5995 177.885 91.4615C178.567 91.3876 179.967 90.6446 181.054 89.8647C181.079 95.0164 175.184 94.5936 171.794 93.4032H171.79Z" fill="#7D4666"/>
<path fill-rule="evenodd" clip-rule="evenodd" d="M257.222 81.9508C251.902 81.684 246.582 86.9301 245.006 81.0313C245.983 80.5428 247.399 80.2103 249.258 80.0502C248.466 79.6808 246.438 79.5699 244.735 79.7054C248.117 74.0446 254.291 78.4082 257.222 81.9508Z" fill="#7D4666"/>
<path fill-rule="evenodd" clip-rule="evenodd" d="M243.881 92.0198C239.48 89.5322 232.74 91.7201 233.914 86.0471C234.952 86.0471 236.291 86.3713 237.937 87.024C237.42 86.3755 235.749 85.419 234.246 84.8074C239.521 81.4454 242.9 87.7711 243.877 92.0198H243.881Z" fill="#7D4666"/>
<path fill-rule="evenodd" clip-rule="evenodd" d="M167.775 80.8344C171.088 80.5512 173.961 76.828 175.406 80.3788C174.84 80.7688 173.99 81.0931 172.853 81.3517C173.374 81.5159 174.638 81.4132 175.681 81.1875C174.039 85.0051 169.873 82.8007 167.779 80.8385L167.775 80.8344Z" fill="#7D4666"/>
<path fill-rule="evenodd" clip-rule="evenodd" d="M244.854 72.6035C241.344 73.6913 236.866 71.0765 236.849 75.3005C237.588 75.4606 238.594 75.4442 239.866 75.2348C239.402 75.6166 238.064 76.0353 236.902 76.2364C240.158 79.4588 243.52 75.477 244.854 72.6035Z" fill="#7D4666"/>
<path fill-rule="evenodd" clip-rule="evenodd" d="M155 77.1803C159.323 77.3076 163.563 72.9522 164.926 77.7222C164.142 78.1368 162.996 78.4282 161.486 78.5924C162.134 78.8798 163.785 78.9331 165.164 78.7977C162.5 83.4568 157.426 80.0127 155 77.1803Z" fill="#7D4666"/>
<path fill-rule="evenodd" clip-rule="evenodd" d="M258.408 68.9464C254.931 69.7592 250.908 66.8365 250.457 71.0195C251.151 71.237 252.115 71.2904 253.355 71.1796C252.871 71.5244 251.545 71.8405 250.412 71.9513C253.199 75.3872 256.832 71.6968 258.408 68.9464Z" fill="#7D4666"/>
<path fill-rule="evenodd" clip-rule="evenodd" d="M199.272 81.8768C204.949 85.8709 204.945 91.6712 210.651 94.594C209.317 88.9004 210.729 83.8184 205.233 74.5002C202.77 70.3295 207.835 66.5817 206.85 61.9431C206.144 58.6139 205.364 54.5664 207.248 51.5493C209.288 48.2817 214.485 45.6586 211.928 37.3584C212.515 42.9945 209.366 47.4525 205.635 49.661C203.275 47.5757 201.538 43.7622 200.693 38.5776C200.331 44.1685 201.583 47.9944 204.231 51.2866C203.71 53.3062 203.291 55.9826 203.192 58.0967C201.321 57.3168 199.621 55.8595 198.094 53.7249C196.419 46.258 197.482 43.5774 188.521 39.1851C194.334 43.2244 195.799 47.9328 195.803 54.1313C189.913 54.1272 183.398 52.0172 180.718 46.4058C184.388 55.5721 188.846 54.5336 194.445 56.6518C197.154 57.6739 201.234 59.8618 202.532 62.4069C203.734 64.7591 200.385 68.0964 199.966 71.4214C198.689 70.506 196.678 70.2351 195.492 70.3049C193.201 64.2008 190.689 60.1697 183.632 60.4406C180.866 56.4014 178.456 54.1929 172.29 54.3407C176.178 55.1452 180.324 57.6369 181.342 61.3068C178.403 64.7755 172.5 65.3707 167.299 62.2715C171.297 65.9003 175.389 66.6802 179.577 64.6113C185.406 61.237 190.327 63.6097 192.166 70.4075C184.375 73.0101 186.514 71.13 180.533 70.4568C175.681 69.9108 171.703 72.4723 168.029 70.8139C172.044 73.8352 175.496 71.5897 179.774 72.4313C182.565 72.9813 183.846 73.6874 186.025 74.1718C189.946 75.042 192.667 73.3302 196.653 76.6347C196.932 76.8646 196.785 76.6881 197.072 76.9672C193.632 76.996 188.846 76.4952 183.706 79.4918C181.354 79.2004 178.538 79.7217 175.25 81.064C177.565 80.5591 180.365 80.1445 182.183 80.8423C180.484 83.5721 175.258 86.0885 167.976 87.3569C173.489 87.7387 179.035 86.068 183.09 82.9318C183.402 84.3316 181.92 86.8233 180.164 89.8158C182.249 88.6336 184.137 85.7314 185.266 82.0615C186.814 78.9253 194.917 79.1059 198.866 81.6059C199.005 81.6962 199.141 81.7865 199.272 81.8809V81.8768ZM207.626 76.3433C209.797 79.1183 210.171 82.4063 210.585 85.1485C211.751 81.532 214.559 76.8072 218.787 76.8893C222.285 76.9549 226.706 78.3917 227.876 79.6806C229.969 82.8989 232.584 85.1731 234.912 85.7355C232.403 83.3423 230.293 81.3555 230.207 79.9228C234.969 81.8234 240.761 81.9055 245.958 80.0213C238.61 80.8013 232.892 79.8202 230.507 77.661C232.063 76.4911 234.87 76.1216 237.231 75.9697C233.705 75.5839 230.848 75.8548 228.668 76.7825C226.923 75.0502 223.019 73.9747 219.506 73.0511C221.131 71.4173 222.428 71.0684 224.85 71.3147C227.087 71.5405 229.374 71.8935 231.004 71.405C233.717 70.5963 234.386 69.2704 242.567 68.4166C238.967 68.1621 236.188 68.2524 234.226 68.6875C231.944 69.1965 230.088 70.3377 227.473 69.2171C225.893 68.8025 224.924 67.9938 224.571 68.0102C225.7 60.9168 229.021 59.4144 235.704 60.0794C239.267 62.8585 242.76 63.5276 246.836 62.1114C241.143 62.2674 238.663 61.4381 236.123 57.6369C239.493 53.5402 240.244 55.2684 245.211 53.1215C239.197 53.4129 238.339 52.5263 233.52 57.6328C225.864 58.4333 223.319 59.5129 221.476 67.3698C218.98 67.8871 217.445 68.3673 216.718 68.9708C215.405 63.1745 215.532 57.6944 220.515 53.6674C225.125 53.5853 233.081 53.0517 235.187 46.3483C231.582 51.1347 225.856 52.1117 220.922 51.2784C221.016 44.5503 224.054 42.6128 228.216 39.7393C222.334 41.6727 218.923 45.2646 219.095 51.4713C215.955 54.2955 213.155 56.6148 212.675 61.5531C212.067 67.8296 214.173 69.5208 212.33 72.735C211.587 74.0322 210.118 74.3688 207.63 76.3351L207.626 76.3433ZM200.869 109.175C199.465 108.005 198.238 106.33 197.331 105.234C196.998 105.571 196.407 106.375 196.07 106.691C188.55 113.727 179.778 115.845 174.523 118.686C183.148 117.512 194.001 114.844 200.865 109.175H200.869ZM197.856 95.7229C197.454 98.2023 197.359 100.854 197.392 102.681C201.756 110.747 215.799 116.863 224.436 117.59C214.957 113.268 201.916 106.605 197.856 95.7229ZM201.247 86.2937C189.937 101.995 224.415 117.606 238.943 117.725C229.296 114.068 214.888 107.488 211.784 98.7441C211.595 98.2105 211.448 97.6686 211.345 97.1185C210.709 96.7655 210.122 96.4125 209.58 96.0595C204.432 92.6934 203.365 89.2616 201.247 86.2937ZM201.916 110.406C199.408 113.181 196.678 114.528 193.295 116.006C197.084 115.209 202.511 114.183 206.21 113.091C205.183 112.693 203.812 111.728 201.916 110.402V110.406Z" fill="#7D4666"/>
</g>
<defs>
<filter id="filter0_f_133_3927" x="-85.5391" y="-568.539" width="978.963" height="978.963" filterUnits="userSpaceOnUse" color-interpolation-filters="sRGB">
<feFlood flood-opacity="0" result="BackgroundImageFix"/>
<feBlend mode="normal" in="SourceGraphic" in2="BackgroundImageFix" result="shape"/>
<feGaussianBlur stdDeviation="151.77" result="effect1_foregroundBlur_133_3927"/>
</filter>
<clipPath id="clip0_133_3927">
<rect width="416" height="145" fill="white" transform="translate(-1)"/>
</clipPath>
</defs>
</svg>
