<svg width="394" height="168" viewBox="0 0 394 168" fill="none" xmlns="http://www.w3.org/2000/svg">
<g filter="url(#filter0_d_133_3878)">
<g clip-path="url(#clip0_133_3878)">
<path d="M14 20C14 14.4772 18.4772 10 24 10H370C375.523 10 380 14.4772 380 20V140C380 145.523 375.523 150 370 150H24C18.4772 150 14 145.523 14 140V20Z" fill="white"/>
<g opacity="0.54" filter="url(#filter1_f_133_3878)">
<circle cx="418.943" cy="-69.0575" r="185.943" fill="#7FCCB1"/>
</g>
<g opacity="0.92" filter="url(#filter2_f_133_3878)">
<circle cx="-55.0575" cy="143.943" r="185.943" fill="#DAD5CA"/>
</g>
<path d="M357 86L363 80L357 74" stroke="#414254" stroke-width="2" stroke-linecap="round" stroke-linejoin="round"/>
</g>
<path d="M14.5 20C14.5 14.7533 18.7533 10.5 24 10.5H370C375.247 10.5 379.5 14.7533 379.5 20V140C379.5 145.247 375.247 149.5 370 149.5H24C18.7533 149.5 14.5 145.247 14.5 140V20Z" stroke="#7FCCB1"/>
</g>
<defs>
<filter id="filter0_d_133_3878" x="0.1" y="0.1" width="393.8" height="167.8" filterUnits="userSpaceOnUse" color-interpolation-filters="sRGB">
<feFlood flood-opacity="0" result="BackgroundImageFix"/>
<feColorMatrix in="SourceAlpha" type="matrix" values="0 0 0 0 0 0 0 0 0 0 0 0 0 0 0 0 0 0 127 0" result="hardAlpha"/>
<feOffset dy="4"/>
<feGaussianBlur stdDeviation="6.95"/>
<feComposite in2="hardAlpha" operator="out"/>
<feColorMatrix type="matrix" values="0 0 0 0 0.498039 0 0 0 0 0.8 0 0 0 0 0.694118 0 0 0 0.25 0"/>
<feBlend mode="normal" in2="BackgroundImageFix" result="effect1_dropShadow_133_3878"/>
<feBlend mode="normal" in="SourceGraphic" in2="effect1_dropShadow_133_3878" result="shape"/>
</filter>
<filter id="filter1_f_133_3878" x="-70.5391" y="-558.539" width="978.963" height="978.963" filterUnits="userSpaceOnUse" color-interpolation-filters="sRGB">
<feFlood flood-opacity="0" result="BackgroundImageFix"/>
<feBlend mode="normal" in="SourceGraphic" in2="BackgroundImageFix" result="shape"/>
<feGaussianBlur stdDeviation="151.77" result="effect1_foregroundBlur_133_3878"/>
</filter>
<filter id="filter2_f_133_3878" x="-544.539" y="-345.539" width="978.963" height="978.963" filterUnits="userSpaceOnUse" color-interpolation-filters="sRGB">
<feFlood flood-opacity="0" result="BackgroundImageFix"/>
<feBlend mode="normal" in="SourceGraphic" in2="BackgroundImageFix" result="shape"/>
<feGaussianBlur stdDeviation="151.77" result="effect1_foregroundBlur_133_3878"/>
</filter>
<clipPath id="clip0_133_3878">
<path d="M14 20C14 14.4772 18.4772 10 24 10H370C375.523 10 380 14.4772 380 20V140C380 145.523 375.523 150 370 150H24C18.4772 150 14 145.523 14 140V20Z" fill="white"/>
</clipPath>
</defs>
</svg>
