<svg width="68" height="67" viewBox="0 0 68 67" fill="none" xmlns="http://www.w3.org/2000/svg">
<circle cx="34.075" cy="33.3289" r="33.3289" fill="#7FCCB1"/>
<path d="M37.9466 42.504C39.0839 42.8342 40.2624 43.0012 41.4466 43C43.3512 43.0028 45.231 42.5685 46.9413 41.7307C46.9919 40.5356 46.6515 39.3566 45.9717 38.3724C45.2919 37.3882 44.3098 36.6525 43.1743 36.2767C42.0387 35.9009 40.8116 35.9055 39.6789 36.2899C38.5462 36.6742 37.5696 37.4174 36.8973 38.4067M37.9466 42.504V42.5C37.9466 41.016 37.5653 39.62 36.8973 38.4067M37.9466 42.504V42.6453C35.3806 44.1908 32.4408 45.0051 29.4453 45C26.3373 45 23.4293 44.14 20.9466 42.6453L20.9453 42.5C20.9443 40.6126 21.5715 38.7786 22.728 37.287C23.8845 35.7955 25.5045 34.7312 27.3326 34.2621C29.1608 33.793 31.0931 33.9457 32.8249 34.6961C34.5567 35.4465 35.9894 36.752 36.8973 38.4067M33.9466 25.5C33.9466 26.6935 33.4725 27.8381 32.6286 28.682C31.7847 29.5259 30.6401 30 29.4466 30C28.2532 30 27.1086 29.5259 26.2647 28.682C25.4208 27.8381 24.9466 26.6935 24.9466 25.5C24.9466 24.3065 25.4208 23.1619 26.2647 22.318C27.1086 21.4741 28.2532 21 29.4466 21C30.6401 21 31.7847 21.4741 32.6286 22.318C33.4725 23.1619 33.9466 24.3065 33.9466 25.5ZM44.9466 28.5C44.9466 29.4283 44.5779 30.3185 43.9215 30.9749C43.2651 31.6313 42.3749 32 41.4466 32C40.5184 32 39.6282 31.6313 38.9718 30.9749C38.3154 30.3185 37.9466 29.4283 37.9466 28.5C37.9466 27.5717 38.3154 26.6815 38.9718 26.0251C39.6282 25.3687 40.5184 25 41.4466 25C42.3749 25 43.2651 25.3687 43.9215 26.0251C44.5779 26.6815 44.9466 27.5717 44.9466 28.5Z" stroke="white" stroke-width="1.5" stroke-linecap="round" stroke-linejoin="round"/>
</svg>
