<svg width="25" height="24" viewBox="0 0 25 24" fill="none" xmlns="http://www.w3.org/2000/svg">
<path d="M8.99805 9.32959C8.99805 9.42905 8.95854 9.52443 8.88821 9.59476C8.81789 9.66508 8.7225 9.70459 8.62305 9.70459C8.52359 9.70459 8.42821 9.66508 8.35788 9.59476C8.28756 9.52443 8.24805 9.42905 8.24805 9.32959C8.24805 9.23014 8.28756 9.13475 8.35788 9.06443C8.42821 8.9941 8.52359 8.95459 8.62305 8.95459C8.7225 8.95459 8.81789 8.9941 8.88821 9.06443C8.95854 9.13475 8.99805 9.23014 8.99805 9.32959ZM8.99805 9.32959H8.62305M12.748 9.32959C12.748 9.42905 12.7085 9.52443 12.6382 9.59476C12.5679 9.66508 12.4725 9.70459 12.373 9.70459C12.2736 9.70459 12.1782 9.66508 12.1079 9.59476C12.0376 9.52443 11.998 9.42905 11.998 9.32959C11.998 9.23014 12.0376 9.13475 12.1079 9.06443C12.1782 8.9941 12.2736 8.95459 12.373 8.95459C12.4725 8.95459 12.5679 8.9941 12.6382 9.06443C12.7085 9.13475 12.748 9.23014 12.748 9.32959ZM12.748 9.32959H12.373M16.498 9.32959C16.498 9.42905 16.4585 9.52443 16.3882 9.59476C16.3179 9.66508 16.2225 9.70459 16.123 9.70459C16.0236 9.70459 15.9282 9.66508 15.8579 9.59476C15.7876 9.52443 15.748 9.42905 15.748 9.32959C15.748 9.23014 15.7876 9.13475 15.8579 9.06443C15.9282 8.9941 16.0236 8.95459 16.123 8.95459C16.2225 8.95459 16.3179 8.9941 16.3882 9.06443C16.4585 9.13475 16.498 9.23014 16.498 9.32959ZM16.498 9.32959H16.123M2.62305 12.3396C2.62305 13.9396 3.74605 15.3336 5.33005 15.5666C6.41705 15.7266 7.51505 15.8496 8.62305 15.9356V20.5796L12.807 16.3966C13.0142 16.1902 13.2927 16.0714 13.585 16.0646C15.5367 16.0166 17.4836 15.8503 19.415 15.5666C21 15.3336 22.123 13.9406 22.123 12.3386V6.32059C22.123 4.71859 21 3.32559 19.416 3.09259C17.084 2.75031 14.7301 2.57885 12.373 2.57959C9.98105 2.57959 7.62905 2.75459 5.33005 3.09259C3.74605 3.32559 2.62305 4.71959 2.62305 6.32059V12.3386V12.3396Z" stroke="#414254" stroke-width="1.5" stroke-linecap="round" stroke-linejoin="round"/>
</svg>
