<svg width="25" height="24" viewBox="0 0 25 24" fill="none" xmlns="http://www.w3.org/2000/svg">
<path d="M11.843 3.42021C11.9836 3.27976 12.1742 3.20087 12.373 3.20087C12.5717 3.20087 12.7624 3.27976 12.903 3.42021L21.593 12.1102C21.6622 12.1818 21.745 12.2389 21.8365 12.2782C21.928 12.3174 22.0265 12.3381 22.126 12.3389C22.2256 12.3397 22.3244 12.3207 22.4165 12.2829C22.5087 12.2452 22.5924 12.1895 22.6628 12.119C22.7332 12.0486 22.7888 11.9648 22.8265 11.8726C22.8642 11.7804 22.8831 11.6816 22.8822 11.5821C22.8813 11.4825 22.8605 11.3841 22.8212 11.2926C22.7818 11.2011 22.7247 11.1184 22.653 11.0492L13.964 2.35921C13.7551 2.15028 13.507 1.98454 13.234 1.87147C12.961 1.75839 12.6685 1.7002 12.373 1.7002C12.0775 1.7002 11.7849 1.75839 11.5119 1.87147C11.239 1.98454 10.9909 2.15028 10.782 2.35921L2.09199 11.0492C2.02039 11.1184 1.96329 11.2012 1.92403 11.2927C1.88477 11.3843 1.86412 11.4827 1.86331 11.5823C1.86249 11.6819 1.88151 11.7806 1.91927 11.8728C1.95702 11.9649 2.01275 12.0486 2.0832 12.119C2.15365 12.1894 2.23742 12.245 2.32961 12.2827C2.4218 12.3204 2.52057 12.3393 2.62015 12.3384C2.71973 12.3375 2.81814 12.3168 2.90962 12.2774C3.00111 12.2381 3.08384 12.1809 3.15299 12.1092L11.843 3.42021Z" fill="#7D4666"/>
<path d="M12.373 5.01123L20.532 13.1702C20.562 13.2002 20.592 13.2282 20.623 13.2562V19.4542C20.623 20.4892 19.783 21.3292 18.748 21.3292H15.373C15.1741 21.3292 14.9834 21.2502 14.8427 21.1096C14.7021 20.9689 14.623 20.7781 14.623 20.5792V16.0792C14.623 15.8803 14.544 15.6896 14.4034 15.5489C14.2627 15.4082 14.072 15.3292 13.873 15.3292H10.873C10.6741 15.3292 10.4834 15.4082 10.3427 15.5489C10.2021 15.6896 10.123 15.8803 10.123 16.0792V20.5792C10.123 20.7781 10.044 20.9689 9.90338 21.1096C9.76272 21.2502 9.57196 21.3292 9.37305 21.3292H5.99805C5.50077 21.3292 5.02385 21.1317 4.67222 20.7801C4.32059 20.4284 4.12305 19.9515 4.12305 19.4542V13.2562C4.15416 13.2284 4.1845 13.1997 4.21405 13.1702L12.373 5.01123Z" fill="#7D4666"/>
</svg>
