<svg width="25" height="24" viewBox="0 0 25 24" fill="none" xmlns="http://www.w3.org/2000/svg">
<path d="M6.87305 6.45759V5.57959C6.87305 4.98285 7.1101 4.41056 7.53206 3.9886C7.95401 3.56664 8.52631 3.32959 9.12305 3.32959H16.623C17.2198 3.32959 17.7921 3.56664 18.214 3.9886C18.636 4.41056 18.873 4.98285 18.873 5.57959V6.45759M6.87305 6.45759C7.10805 6.37459 7.36005 6.32959 7.62305 6.32959H18.123C18.386 6.32959 18.638 6.37459 18.873 6.45759M6.87305 6.45759C6.43426 6.61272 6.05438 6.90011 5.78573 7.28015C5.51709 7.66019 5.37291 8.11419 5.37305 8.57959V9.45759M18.873 6.45759C19.3118 6.61272 19.6917 6.90011 19.9604 7.28015C20.229 7.66019 20.3732 8.11419 20.373 8.57959V9.45759M5.37305 9.45759C5.60805 9.37459 5.86005 9.32959 6.12305 9.32959H19.623C19.8785 9.32929 20.1321 9.37258 20.373 9.45759M5.37305 9.45759C4.49905 9.76659 3.87305 10.5996 3.87305 11.5796V17.5796C3.87305 18.1763 4.1101 18.7486 4.53206 19.1706C4.95401 19.5925 5.52631 19.8296 6.12305 19.8296H19.623C20.2198 19.8296 20.7921 19.5925 21.214 19.1706C21.636 18.7486 21.873 18.1763 21.873 17.5796V11.5796C21.8732 11.1142 21.729 10.6602 21.4604 10.2801C21.1917 9.90011 20.8118 9.61272 20.373 9.45759" stroke="#414254" stroke-width="1.5" stroke-linecap="round" stroke-linejoin="round"/>
</svg>
