<svg width="700" height="652" viewBox="0 0 700 652" fill="none" xmlns="http://www.w3.org/2000/svg">
<path d="M700 537.916C700 548.357 698.021 557.24 694.063 564.564C690.136 571.888 684.775 577.483 677.98 581.347C671.217 585.181 663.612 587.098 655.166 587.098C646.658 587.098 639.022 585.165 632.258 581.3C625.495 577.436 620.15 571.841 616.223 564.517C612.296 557.193 610.332 548.326 610.332 537.916C610.332 527.475 612.296 518.592 616.223 511.268C620.15 503.944 625.495 498.365 632.258 494.531C639.022 490.667 646.658 488.734 655.166 488.734C663.612 488.734 671.217 490.667 677.98 494.531C684.775 498.365 690.136 503.944 694.063 511.268C698.021 518.592 700 527.475 700 537.916ZM679.476 537.916C679.476 531.153 678.464 525.449 676.438 520.805C674.443 516.161 671.622 512.639 667.976 510.24C664.329 507.84 660.059 506.64 655.166 506.64C650.273 506.64 646.003 507.84 642.357 510.24C638.71 512.639 635.874 516.161 633.848 520.805C631.853 525.449 630.856 531.153 630.856 537.916C630.856 544.679 631.853 550.383 633.848 555.027C635.874 559.671 638.71 563.192 642.357 565.592C646.003 567.992 650.273 569.192 655.166 569.192C660.059 569.192 664.329 567.992 667.976 565.592C671.622 563.192 674.443 559.671 676.438 555.027C678.464 550.383 679.476 544.679 679.476 537.916Z" fill="white"/>
<path d="M552.171 585.789H518.23V490.043H552.451C562.082 490.043 570.372 491.96 577.323 495.794C584.273 499.596 589.618 505.066 593.358 512.203C597.129 519.34 599.015 527.88 599.015 537.822C599.015 547.796 597.129 556.367 593.358 563.535C589.618 570.704 584.242 576.205 577.229 580.038C570.248 583.872 561.895 585.789 552.171 585.789ZM538.473 568.444H551.329C557.313 568.444 562.347 567.384 566.43 565.265C570.544 563.115 573.629 559.795 575.686 555.307C577.775 550.788 578.819 544.96 578.819 537.822C578.819 530.748 577.775 524.966 575.686 520.478C573.629 515.99 570.559 512.686 566.477 510.567C562.394 508.448 557.36 507.388 551.376 507.388H538.473V568.444Z" fill="white"/>
<path d="M503.5 490.043V585.789H486.015L444.36 525.527H443.659V585.789H423.416V490.043H441.181L482.509 550.258H483.35V490.043H503.5Z" fill="white"/>
<path d="M343.433 585.789H321.741L354.794 490.043H380.881L413.886 585.789H392.194L368.211 511.923H367.463L343.433 585.789ZM342.078 548.154H393.316V563.956H342.078V548.154Z" fill="white"/>
<path d="M260.471 490.043L283.612 562.787H284.5L307.689 490.043H330.129L297.123 585.789H271.036L237.984 490.043H260.471Z" fill="white"/>
<path d="M235.572 537.916C235.572 548.357 233.593 557.24 229.635 564.564C225.708 571.888 220.347 577.483 213.553 581.347C206.789 585.181 199.185 587.098 190.738 587.098C182.23 587.098 174.594 585.165 167.831 581.3C161.067 577.436 155.722 571.841 151.795 564.517C147.868 557.193 145.905 548.326 145.905 537.916C145.905 527.475 147.868 518.592 151.795 511.268C155.722 503.944 161.067 498.365 167.831 494.531C174.594 490.667 182.23 488.734 190.738 488.734C199.185 488.734 206.789 490.667 213.553 494.531C220.347 498.365 225.708 503.944 229.635 511.268C233.593 518.592 235.572 527.475 235.572 537.916ZM215.049 537.916C215.049 531.153 214.036 525.449 212.01 520.805C210.015 516.161 207.195 512.639 203.548 510.24C199.901 507.84 195.632 506.64 190.738 506.64C185.845 506.64 181.575 507.84 177.929 510.24C174.282 512.639 171.446 516.161 169.42 520.805C167.425 525.449 166.428 531.153 166.428 537.916C166.428 544.679 167.425 550.383 169.42 555.027C171.446 559.671 174.282 563.192 177.929 565.592C181.575 567.992 185.845 569.192 190.738 569.192C195.632 569.192 199.901 567.992 203.548 565.592C207.195 563.192 210.015 559.671 212.01 555.027C214.036 550.383 215.049 544.679 215.049 537.916Z" fill="white"/>
<path d="M78.6149 585.789V490.043H98.8579V569.099H139.905V585.789H78.6149Z" fill="white"/>
<path d="M0 585.789V490.043H64.5158V506.733H20.243V529.548H61.1965V546.238H20.243V569.099H64.7028V585.789H0Z" fill="white"/>
<path fill-rule="evenodd" clip-rule="evenodd" d="M121.768 609.742H134.289V603.303H102.233V609.742H114.754V642.808H121.748V609.742H121.768ZM160.876 626.047C160.876 623.729 161.49 621.906 162.718 620.619C163.947 619.311 165.551 618.677 167.532 618.677C169.514 618.677 171.099 619.311 172.208 620.559C173.317 621.807 173.852 623.61 173.852 625.928V642.827H180.727V623.868C180.727 620.361 179.796 617.587 177.973 615.507C176.131 613.447 173.516 612.397 170.148 612.397C168.999 612.397 167.949 612.535 167.017 612.813C166.086 613.11 165.254 613.486 164.482 613.982C163.709 614.477 163.035 615.032 162.461 615.666C161.886 616.3 161.351 616.953 160.856 617.686V601.619H153.962V642.808H160.856V626.027L160.876 626.047ZM207.631 630.346H229.523C229.563 630.009 229.582 629.692 229.602 629.395C229.602 629.098 229.622 628.801 229.622 628.484C229.622 626.344 229.325 624.284 228.711 622.342C228.116 620.381 227.225 618.677 226.036 617.211C224.848 615.745 223.362 614.576 221.579 613.704C219.796 612.833 217.715 612.397 215.338 612.397C213.198 612.397 211.237 612.813 209.474 613.645C207.71 614.477 206.165 615.586 204.877 616.993C203.57 618.4 202.579 620.044 201.866 621.926C201.153 623.808 200.796 625.829 200.796 627.969C200.796 630.306 201.192 632.426 201.985 634.308C202.777 636.21 203.847 637.835 205.234 639.182C206.601 640.529 208.226 641.599 210.088 642.352C211.95 643.105 213.951 643.481 216.091 643.481C218.845 643.481 221.202 642.966 223.164 641.956C225.145 640.945 226.848 639.578 228.275 637.894L224.273 634.348C223.064 635.517 221.856 636.389 220.608 637.003C219.36 637.597 217.894 637.914 216.21 637.914C213.991 637.914 212.109 637.26 210.563 635.973C209.018 634.665 208.047 632.803 207.631 630.366V630.346ZM207.592 625.829C207.889 623.491 208.721 621.609 210.108 620.163C211.475 618.717 213.218 617.984 215.318 617.984C216.447 617.984 217.458 618.182 218.329 618.598C219.221 619.014 219.974 619.569 220.608 620.262C221.242 620.955 221.757 621.787 222.133 622.738C222.51 623.689 222.747 624.72 222.866 625.809H207.572L207.592 625.829ZM267.72 642.827H295.377V636.567H274.614V603.323H267.72V642.827ZM344.906 627.929C344.906 625.789 344.51 623.769 343.717 621.886C342.925 620.004 341.835 618.36 340.409 616.953C339.002 615.547 337.318 614.437 335.377 613.625C333.435 612.813 331.315 612.417 329.037 612.417C326.758 612.417 324.619 612.833 322.697 613.665C320.756 614.497 319.091 615.606 317.665 617.013C316.258 618.419 315.149 620.084 314.337 621.986C313.524 623.887 313.128 625.908 313.128 628.048C313.128 630.188 313.524 632.189 314.317 634.051C315.109 635.913 316.199 637.558 317.625 638.964C319.052 640.371 320.716 641.48 322.657 642.292C324.599 643.105 326.699 643.501 328.958 643.501C331.216 643.501 333.376 643.085 335.337 642.253C337.298 641.421 338.982 640.311 340.389 638.905C341.795 637.498 342.905 635.854 343.717 633.972C344.53 632.089 344.926 630.069 344.926 627.929H344.906ZM338.031 628.028C338.031 629.336 337.833 630.584 337.417 631.733C337.021 632.882 336.407 633.892 335.634 634.744C334.842 635.616 333.91 636.29 332.801 636.805C331.692 637.32 330.443 637.557 329.076 637.557C327.769 637.557 326.56 637.3 325.451 636.805C324.341 636.29 323.41 635.616 322.598 634.744C321.806 633.873 321.172 632.862 320.736 631.673C320.28 630.485 320.062 629.237 320.062 627.929C320.062 626.621 320.26 625.373 320.676 624.224C321.073 623.075 321.687 622.065 322.459 621.213C323.252 620.341 324.183 619.668 325.292 619.153C326.402 618.637 327.63 618.4 328.977 618.4C330.325 618.4 331.553 618.657 332.662 619.153C333.772 619.668 334.703 620.361 335.515 621.233C336.308 622.124 336.942 623.135 337.377 624.303C337.833 625.472 338.051 626.721 338.051 628.028H338.031ZM376.169 634.923L368.145 613.031H360.815L373.058 643.045H379.2L391.384 613.031H384.212L376.149 634.923H376.169ZM414.187 630.346H436.079C436.119 630.009 436.138 629.692 436.158 629.395C436.158 629.098 436.178 628.801 436.178 628.484C436.178 626.344 435.881 624.284 435.267 622.342C434.672 620.381 433.781 618.677 432.592 617.211C431.403 615.745 429.918 614.576 428.135 613.704C426.351 612.833 424.271 612.397 421.894 612.397C419.754 612.397 417.793 612.813 416.03 613.645C414.266 614.477 412.721 615.586 411.433 616.993C410.126 618.4 409.135 620.044 408.422 621.926C407.709 623.808 407.352 625.829 407.352 627.969C407.352 630.306 407.748 632.426 408.541 634.308C409.333 636.21 410.403 637.835 411.79 639.182C413.157 640.529 414.782 641.599 416.644 642.352C418.506 643.105 420.507 643.481 422.647 643.481C425.401 643.481 427.758 642.966 429.719 641.956C431.701 640.945 433.404 639.578 434.831 637.894L430.829 634.348C429.62 635.517 428.412 636.389 427.164 637.003C425.916 637.597 424.45 637.914 422.766 637.914C420.547 637.914 418.665 637.26 417.119 635.973C415.574 634.665 414.603 632.803 414.187 630.366V630.346ZM414.128 625.829C414.425 623.491 415.257 621.609 416.644 620.163C418.011 618.717 419.754 617.984 421.854 617.984C422.984 617.984 423.994 618.182 424.866 618.598C425.757 619.014 426.51 619.569 427.144 620.262C427.778 620.955 428.293 621.787 428.669 622.738C429.046 623.689 429.284 624.72 429.402 625.809H414.108L414.128 625.829ZM494.702 603.026H488.263L470.888 642.808H478L482.062 633.278H500.744L504.746 642.808H512.076L494.702 603.026ZM498.188 627.137H484.598L491.373 611.327L498.208 627.137H498.188ZM562.338 627.929C562.338 625.453 561.942 623.253 561.15 621.332C560.357 619.41 559.327 617.785 558.019 616.458C556.712 615.131 555.246 614.12 553.602 613.447C551.957 612.773 550.253 612.436 548.47 612.436C546.073 612.436 544.072 612.971 542.448 614.041C540.823 615.111 539.476 616.438 538.386 618.023V613.051H531.512V651.881H538.386L538.327 638.231C539.377 639.618 540.724 640.846 542.329 641.896C543.953 642.946 545.974 643.481 548.431 643.481C550.194 643.481 551.918 643.144 553.602 642.471C555.286 641.797 556.752 640.787 558.059 639.459C559.367 638.132 560.397 636.488 561.17 634.586C561.942 632.664 562.319 630.465 562.319 627.988L562.338 627.929ZM555.464 627.929C555.464 629.395 555.246 630.723 554.79 631.911C554.335 633.1 553.72 634.11 552.948 634.923C552.175 635.755 551.264 636.389 550.234 636.844C549.203 637.3 548.094 637.518 546.925 637.518C545.756 637.518 544.647 637.3 543.597 636.844C542.547 636.389 541.615 635.735 540.823 634.903C540.031 634.051 539.397 633.04 538.941 631.891C538.465 630.722 538.228 629.415 538.228 627.949C538.228 626.483 538.465 625.155 538.941 624.006C539.416 622.837 540.05 621.827 540.823 620.995C541.615 620.143 542.527 619.509 543.597 619.053C544.647 618.598 545.756 618.38 546.925 618.38C548.094 618.38 549.184 618.598 550.234 619.053C551.264 619.509 552.175 620.143 552.948 620.975C553.72 621.807 554.335 622.818 554.79 623.987C555.246 625.175 555.464 626.503 555.464 627.969V627.929ZM613.631 627.929C613.631 625.453 613.234 623.253 612.442 621.332C611.65 619.41 610.619 617.785 609.312 616.458C608.004 615.131 606.538 614.12 604.894 613.447C603.249 612.773 601.546 612.436 599.763 612.436C597.365 612.436 595.364 612.971 593.74 614.041C592.115 615.111 590.768 616.438 589.678 618.023V613.051H582.804V651.881H589.678L589.619 638.231C590.669 639.618 592.016 640.846 593.621 641.896C595.246 642.946 597.266 643.481 599.723 643.481C601.486 643.481 603.21 643.144 604.894 642.471C606.558 641.797 608.044 640.787 609.351 639.459C610.659 638.132 611.689 636.488 612.462 634.586C613.234 632.664 613.611 630.465 613.611 627.988L613.631 627.929ZM606.756 627.929C606.756 629.395 606.538 630.723 606.082 631.911C605.627 633.1 605.013 634.11 604.24 634.923C603.467 635.755 602.556 636.389 601.526 636.844C600.496 637.3 599.386 637.518 598.217 637.518C597.048 637.518 595.939 637.3 594.889 636.844C593.839 636.389 592.908 635.735 592.115 634.903C591.323 634.051 590.689 633.04 590.233 631.891C589.758 630.722 589.52 629.415 589.52 627.949C589.52 626.483 589.758 625.155 590.233 624.006C590.709 622.837 591.343 621.827 592.115 620.995C592.908 620.143 593.819 619.509 594.889 619.053C595.939 618.598 597.048 618.38 598.217 618.38C599.386 618.38 600.476 618.598 601.526 619.053C602.556 619.509 603.467 620.143 604.24 620.975C605.013 621.807 605.627 622.818 606.082 623.987C606.538 625.175 606.756 626.503 606.756 627.969V627.929Z" fill="white"/>
<path fill-rule="evenodd" clip-rule="evenodd" d="M302.549 12.798C311.88 35.5219 296.11 66.3686 325.372 64.5063C326.105 59.5336 325.451 52.8967 323.351 44.5758C326.244 47.4683 329.849 56.126 331.83 63.7139C352.454 40.673 323.153 20.2868 302.549 12.798Z" fill="white"/>
<path fill-rule="evenodd" clip-rule="evenodd" d="M366.976 2.83275C372.226 26.8246 351.266 54.6401 380.488 57.6713C382.093 52.8967 382.588 46.24 381.974 37.6616C384.311 41.0097 386.372 50.1429 387.006 57.9685C411.374 38.6522 386.015 13.6499 366.976 2.83275Z" fill="white"/>
<path fill-rule="evenodd" clip-rule="evenodd" d="M217.518 43.4054C239.885 54.4405 248.88 87.8032 269.583 67.5161C266.79 63.3161 261.797 58.7594 254.605 53.8461C258.726 54.1631 267.285 58.3433 273.902 62.7613C273.823 32.1524 238.043 35.7383 217.518 43.4054Z" fill="white"/>
<path fill-rule="evenodd" clip-rule="evenodd" d="M194.933 62.9825C210.544 82.1205 204.502 116.117 231.98 106.112C231.228 101.14 228.652 94.9783 224.195 87.5885C227.82 89.5499 233.803 96.8208 237.944 103.537C250.92 75.6818 216.864 64.3693 194.933 62.9825Z" fill="white"/>
<path fill-rule="evenodd" clip-rule="evenodd" d="M505.856 34.5116C484.479 47.2703 450.72 37.1664 457.456 65.0611C462.587 64.9423 469.184 63.2187 477.228 59.8111C474.771 63.08 466.648 67.9734 459.318 71.1433C485.985 87.2105 501.715 55.5912 505.856 34.4918V34.5116Z" fill="white"/>
<path fill-rule="evenodd" clip-rule="evenodd" d="M143.917 113.243C167.354 121.901 198.597 105.873 197.27 134.501C192.198 135.313 185.403 134.818 176.844 132.936C179.875 135.709 188.79 139.038 196.596 140.841C173.436 161.445 152 133.233 143.917 113.263V113.243Z" fill="white"/>
<path fill-rule="evenodd" clip-rule="evenodd" d="M139.182 139.83C154.318 154.629 184.432 152.886 173.1 174.718C168.86 173.609 163.749 170.875 157.746 166.477C159.113 169.666 164.858 175.333 170.286 179.414C144.828 187.517 138.271 158.156 139.162 139.83H139.182Z" fill="white"/>
<path fill-rule="evenodd" clip-rule="evenodd" d="M516.97 61.6911C505.4 77.5404 477.505 80.4329 491.333 98.7785C495.058 97.1341 499.317 93.8652 504.112 88.9123C503.359 92.0425 498.981 98.1049 494.642 102.662C519.268 106.267 520.674 78.3725 516.97 61.6911Z" fill="white"/>
<path fill-rule="evenodd" clip-rule="evenodd" d="M590.313 153.419C570.977 161.205 544.528 148.565 546.351 172.418C550.591 172.973 556.257 172.399 563.349 170.616C560.893 172.993 553.543 176.004 547.064 177.669C566.896 194.31 584.072 170.259 590.313 153.399V153.419Z" fill="white"/>
<path fill-rule="evenodd" clip-rule="evenodd" d="M571.491 195.34C552.333 197.836 531.749 180.422 527.588 202.155C531.253 203.641 536.444 204.434 543.22 204.473C540.446 206.038 533.155 207.009 526.954 207.009C540.644 226.464 561.823 208.951 571.471 195.32L571.491 195.34Z" fill="white"/>
<path fill-rule="evenodd" clip-rule="evenodd" d="M411.849 13.7292C420.567 36.7305 403.925 67.2008 433.266 66.0913C434.138 61.1384 433.662 54.4817 431.8 46.0816C434.613 49.0533 437.981 57.8101 439.764 65.4772C461.042 42.9315 432.275 21.7529 411.849 13.7292Z" fill="white"/>
<path fill-rule="evenodd" clip-rule="evenodd" d="M574.998 110.967C560.774 118.575 539.258 111.046 542.745 129.293C546.073 129.372 550.392 128.441 555.702 126.479C554.018 128.52 548.609 131.452 543.756 133.275C560.496 144.449 571.65 124.478 574.979 110.967H574.998Z" fill="white"/>
<path fill-rule="evenodd" clip-rule="evenodd" d="M116.082 194.173C140.589 201.147 171.02 182.445 171.99 211.627C166.919 212.856 159.965 212.856 151.109 211.627C154.398 214.203 163.729 216.897 171.812 218.126C149.96 240.85 125.889 213.866 116.082 194.193V194.173Z" fill="white"/>
<path fill-rule="evenodd" clip-rule="evenodd" d="M205.433 129.271C219.657 128.181 234.12 141.811 238.062 125.962C235.427 124.714 231.624 123.941 226.631 123.644C228.731 122.614 234.159 122.158 238.716 122.396C229.405 107.517 213.1 119.603 205.413 129.271H205.433Z" fill="white"/>
<path fill-rule="evenodd" clip-rule="evenodd" d="M260.588 89.0135C260.112 103.04 244.54 115.66 260.33 121.287C261.895 118.85 263.124 115.224 263.995 110.37C264.828 112.55 264.669 117.899 263.916 122.317C280.181 114.887 269.642 97.5721 260.608 88.9936L260.588 89.0135Z" fill="white"/>
<path fill-rule="evenodd" clip-rule="evenodd" d="M186.117 174.34C199.589 167.604 219.46 175.192 216.706 158.094C213.615 157.936 209.554 158.688 204.542 160.372C206.166 158.51 211.297 155.915 215.854 154.33C200.54 143.473 189.584 161.819 186.117 174.34Z" fill="white"/>
<path fill-rule="evenodd" clip-rule="evenodd" d="M269.285 15.5914C276.358 29.9152 267.502 50.5986 286.383 48.1419C286.64 44.8928 285.907 40.6135 284.184 35.304C286.184 37.0672 288.899 42.5154 290.543 47.3495C302.886 31.52 282.975 19.5736 269.285 15.5914Z" fill="white"/>
<path fill-rule="evenodd" clip-rule="evenodd" d="M350.334 58.0856C345.5 69.8338 328.324 75.8566 339.953 85.386C342.053 83.7812 344.232 81.0869 346.491 77.2236C346.491 79.3236 344.688 83.801 342.647 87.3473C358.794 85.9407 355.287 68.0904 350.334 58.0856Z" fill="white"/>
<path fill-rule="evenodd" clip-rule="evenodd" d="M360.14 54.0473C367.431 64.5277 385.519 66.806 376.267 78.5345C373.87 77.4052 371.156 75.226 368.105 71.9372C368.54 73.9778 371.294 77.9996 374.068 81.011C358.001 83.0119 357.505 64.8249 360.16 54.0275L360.14 54.0473Z" fill="white"/>
<path fill-rule="evenodd" clip-rule="evenodd" d="M302.331 72.1735C311.325 76.5915 324.5 71.4801 322.737 82.8519C320.676 82.9708 317.982 82.4953 314.634 81.3859C315.724 82.6142 319.151 84.318 322.182 85.3482C312.039 92.6389 304.688 80.4745 302.311 72.1735H302.331Z" fill="white"/>
<path fill-rule="evenodd" clip-rule="evenodd" d="M186.453 250.478C194.556 242.038 211.118 242.434 204.6 230.627C202.282 231.32 199.509 232.925 196.279 235.461C196.993 233.678 200.063 230.448 202.996 228.091C188.91 224.129 185.72 240.394 186.453 250.458V250.478Z" fill="white"/>
<path fill-rule="evenodd" clip-rule="evenodd" d="M183.64 189.755C189.702 200.117 206.542 203.564 196.953 213.926C194.794 212.697 192.396 210.439 189.761 207.15C190.019 209.111 192.317 213.074 194.675 216.105C179.42 216.838 180.311 199.721 183.62 189.755H183.64Z" fill="white"/>
<path fill-rule="evenodd" clip-rule="evenodd" d="M235.685 205.882C250.226 200.929 269.166 211.31 268.83 193.698C265.739 193.104 261.539 193.322 256.249 194.332C258.151 192.688 263.698 190.766 268.513 189.795C254.625 176.759 240.974 193.738 235.665 205.882H235.685Z" fill="white"/>
<path fill-rule="evenodd" clip-rule="evenodd" d="M412.028 63.2186C402.162 71.4206 384.074 68.9244 389.819 82.634C392.434 82.1783 395.664 80.7717 399.487 78.3943C398.497 80.2566 394.752 83.4067 391.266 85.6057C406.223 91.7077 411.632 74.3131 412.008 63.2186H412.028Z" fill="white"/>
<path fill-rule="evenodd" clip-rule="evenodd" d="M288.204 177.629C304.252 176.936 320.022 192.805 325.054 175.093C322.142 173.607 317.882 172.577 312.275 172.062C314.692 170.973 320.794 170.675 325.926 171.111C316.02 154.034 297.199 167.03 288.184 177.629H288.204Z" fill="white"/>
<path fill-rule="evenodd" clip-rule="evenodd" d="M255.477 154.511C264.511 150.172 268.295 136.819 276.516 145.06C275.367 146.744 273.347 148.547 270.434 150.489C272.099 150.39 275.546 148.745 278.24 147.002C278.062 159.305 263.698 157.7 255.496 154.511H255.477Z" fill="white"/>
<path fill-rule="evenodd" clip-rule="evenodd" d="M273.049 94.6795C282.816 97.0569 294.505 89.2314 295.357 100.702C293.376 101.257 290.642 101.376 287.135 101.019C288.483 101.99 292.187 102.901 295.397 103.258C287.135 112.55 277.23 102.267 273.049 94.6597V94.6795Z" fill="white"/>
<path fill-rule="evenodd" clip-rule="evenodd" d="M388.987 91.4501C397.823 104.169 419.814 106.943 408.561 121.187C405.649 119.82 402.34 117.166 398.635 113.183C399.17 115.66 402.518 120.534 405.867 124.219C386.352 126.636 385.758 104.585 388.987 91.4699V91.4501Z" fill="white"/>
<path fill-rule="evenodd" clip-rule="evenodd" d="M467.541 88.7539C467.362 101.156 480.577 112.904 466.411 117.243C465.143 115.024 464.212 111.775 463.638 107.476C462.806 109.358 462.726 114.093 463.202 118.035C449.155 110.824 459.2 95.9852 467.521 88.7737L467.541 88.7539Z" fill="white"/>
<path fill-rule="evenodd" clip-rule="evenodd" d="M461.281 87.6846C450.899 89.3091 439.429 80.1364 437.507 92.0233C439.528 92.7762 442.361 93.1328 446.046 93.0535C444.56 93.945 440.597 94.579 437.249 94.6781C444.996 105.059 456.249 95.2328 461.281 87.6846Z" fill="white"/>
<path fill-rule="evenodd" clip-rule="evenodd" d="M512.889 126.28C498.883 125.131 487.015 109.619 480.596 124.438C482.954 126.043 486.54 127.41 491.334 128.48C489.115 129.173 483.766 128.757 479.368 127.806C486.005 143.715 503.855 134.502 512.889 126.28Z" fill="white"/>
<path fill-rule="evenodd" clip-rule="evenodd" d="M167.274 77.8383C179.993 87.4073 202.202 83.2667 195.941 100.562C192.672 100.146 188.611 98.6009 183.717 95.8867C185.045 98.1254 189.879 101.81 194.317 104.326C176.189 112.746 168.423 91.5678 167.274 77.8383Z" fill="white"/>
<path fill-rule="evenodd" clip-rule="evenodd" d="M543.477 83.8806C533.75 96.56 510.966 98.4025 521.863 113.598C524.933 112.33 528.46 109.735 532.462 105.812C531.788 108.348 528.103 113.202 524.478 116.827C544.448 120.235 546.152 97.5308 543.477 83.8806Z" fill="white"/>
<path fill-rule="evenodd" clip-rule="evenodd" d="M544.211 157.938C532.265 151.876 527.629 133.926 516.395 144.704C517.881 146.982 520.516 149.459 524.36 152.133C522.141 151.935 517.584 149.657 514.058 147.24C513.919 163.683 533.156 161.94 544.211 157.938Z" fill="white"/>
<path fill-rule="evenodd" clip-rule="evenodd" d="M498.308 192.309C485.311 183.632 482.597 162.037 467.897 173.132C469.284 175.984 471.998 179.234 476.059 182.859C473.504 182.344 468.531 179.055 464.786 175.767C462.171 194.944 484.816 195.499 498.308 192.309Z" fill="white"/>
<path fill-rule="evenodd" clip-rule="evenodd" d="M452.642 148.191C436.555 147.814 421.914 130.915 415.653 148.27C418.467 149.954 422.647 151.261 428.194 152.153C425.718 153.084 419.576 152.965 414.484 152.193C423.182 169.924 442.894 158.176 452.642 148.191Z" fill="white"/>
<path fill-rule="evenodd" clip-rule="evenodd" d="M368.818 119.997C376.842 133.628 399.031 138.105 386.43 151.775C383.577 150.17 380.408 147.199 376.941 142.86C377.297 145.435 380.328 150.646 383.459 154.648C363.37 155.658 364.499 133.113 368.818 119.997Z" fill="white"/>
<path fill-rule="evenodd" clip-rule="evenodd" d="M364.916 198.849C372.088 208.656 389.364 210.439 380.805 221.791C378.507 220.781 375.852 218.74 372.88 215.689C373.336 217.63 376.07 221.375 378.764 224.208C363.529 226.447 362.638 209.191 364.916 198.849Z" fill="white"/>
<path fill-rule="evenodd" clip-rule="evenodd" d="M334.901 115.265C330.879 124.418 336.981 137.118 325.114 136.068C324.856 134.047 325.193 131.352 326.124 127.984C324.916 129.133 323.37 132.62 322.479 135.691C314.317 126.122 326.441 118.118 334.881 115.265H334.901Z" fill="white"/>
<path fill-rule="evenodd" clip-rule="evenodd" d="M340.865 0.118607C343.064 14.9773 329.117 31.1436 346.828 34.155C347.997 31.3021 348.592 27.2605 348.572 21.9906C349.859 24.1303 350.731 29.7964 350.791 34.5908C366.481 23.7539 352.039 7.48853 340.865 0.118607Z" fill="white"/>
<path fill-rule="evenodd" clip-rule="evenodd" d="M460.13 17.335C455.851 27.637 440.735 32.8277 450.878 41.2476C452.721 39.8608 454.643 37.4834 456.644 34.1155C456.644 35.9579 455.039 39.8806 453.236 42.9712C467.401 41.8024 464.429 26.1314 460.111 17.335H460.13Z" fill="white"/>
<path fill-rule="evenodd" clip-rule="evenodd" d="M538.981 69.4396C532.839 74.5114 521.626 72.9264 525.172 81.4454C526.797 81.168 528.797 80.2963 531.175 78.8303C530.561 79.9794 528.223 81.9209 526.063 83.2879C535.335 87.0917 538.723 76.3142 538.981 69.4396Z" fill="white"/>
<path fill-rule="evenodd" clip-rule="evenodd" d="M128.661 310.807C149.305 306.23 173.614 323.248 175.853 299.118C171.712 297.85 165.947 297.493 158.557 298.088C161.41 296.126 169.275 294.343 176.031 293.729C159.052 273.818 137.755 294.997 128.661 310.807Z" fill="white"/>
<path fill-rule="evenodd" clip-rule="evenodd" d="M188.792 325.423C206.503 315.914 213.457 288.594 230.039 304.582C227.84 308.068 223.918 311.892 218.212 316.053C221.5 315.696 228.256 312.11 233.506 308.346C233.625 333.209 205.176 331.169 188.811 325.423H188.792Z" fill="white"/>
<path fill-rule="evenodd" clip-rule="evenodd" d="M601.11 270.151C575.434 268.863 549.758 294.182 542.151 265.713C546.866 263.356 553.701 261.751 562.676 260.978C558.852 259.195 549.065 258.66 540.843 259.314C557.168 231.994 586.965 253.053 601.11 270.151Z" fill="white"/>
<path fill-rule="evenodd" clip-rule="evenodd" d="M536.722 318.747C515.484 306.741 482.953 317.301 488.619 289.921C493.632 289.921 500.09 291.486 508.035 294.636C505.539 291.506 497.475 286.89 490.224 283.938C515.682 267.712 531.987 298.242 536.702 318.747H536.722Z" fill="white"/>
<path fill-rule="evenodd" clip-rule="evenodd" d="M169.416 264.764C185.404 263.397 199.272 245.427 206.246 262.564C203.512 264.447 199.411 266.012 193.923 267.26C196.439 268.052 202.541 267.557 207.573 266.467C199.648 284.892 179.54 274.253 169.436 264.783L169.416 264.764Z" fill="white"/>
<path fill-rule="evenodd" clip-rule="evenodd" d="M541.418 225.04C524.479 230.29 502.864 217.67 502.785 238.056C506.351 238.829 511.205 238.749 517.346 237.739C515.108 239.582 508.649 241.602 503.042 242.573C518.753 258.125 534.979 238.908 541.418 225.04Z" fill="white"/>
<path fill-rule="evenodd" clip-rule="evenodd" d="M107.761 247.128C128.622 247.742 149.088 226.722 155.665 249.743C151.881 251.744 146.354 253.15 139.063 253.943C142.193 255.33 150.158 255.587 156.814 254.934C143.957 277.42 119.47 260.798 107.761 247.128Z" fill="white"/>
<path fill-rule="evenodd" clip-rule="evenodd" d="M606.835 207.389C590.054 211.312 570.639 197.206 568.459 217.394C571.808 218.444 576.463 218.702 582.446 218.167C580.109 219.831 573.709 221.356 568.241 221.891C581.694 238.474 599.227 220.663 606.835 207.389Z" fill="white"/>
<path fill-rule="evenodd" clip-rule="evenodd" d="M321.429 269.794C348.829 289.071 348.809 317.065 376.347 331.171C369.908 303.692 376.724 279.165 350.196 234.193C338.309 214.064 362.756 195.976 358.002 173.589C354.594 157.522 350.83 137.988 359.923 123.426C369.77 107.656 394.851 94.9965 382.509 54.9374C385.342 82.1387 370.146 103.654 352.137 114.313C340.746 104.248 332.365 85.8435 328.284 60.8214C326.541 87.8048 332.583 106.269 345.362 122.158C342.846 131.905 340.825 144.823 340.35 155.026C331.315 151.261 323.113 144.228 315.743 133.926C307.66 97.8889 312.792 84.952 269.543 63.7535C297.596 83.2482 304.669 105.972 304.689 135.888C276.259 135.868 244.818 125.685 231.881 98.6022C249.592 142.842 271.108 137.829 298.131 148.052C311.207 152.985 330.899 163.545 337.16 175.828C342.965 187.18 326.798 203.287 324.778 219.334C318.616 214.916 308.908 213.609 303.183 213.945C292.128 184.486 280.003 165.031 245.947 166.338C232.594 146.843 220.965 136.185 191.208 136.898C209.969 140.781 229.979 152.807 234.892 170.518C220.707 187.259 192.218 190.132 167.117 175.174C186.413 192.688 206.165 196.452 226.373 186.467C254.506 170.182 278.26 181.633 287.136 214.441C249.533 227.001 259.855 217.928 230.989 214.678C207.572 212.044 188.375 224.406 170.643 216.402C190.019 230.983 206.681 220.146 227.324 224.208C240.796 226.863 246.977 230.27 257.497 232.608C276.417 236.808 289.553 228.547 308.79 244.495C310.137 245.604 309.424 244.752 310.81 246.1C294.208 246.238 271.108 243.821 246.304 258.284C234.952 256.877 221.361 259.393 205.492 265.872C216.666 263.435 230.177 261.434 238.954 264.802C230.752 277.977 205.531 290.121 170.386 296.243C196.993 298.085 223.758 290.022 243.332 274.886C244.838 281.642 237.686 293.667 229.206 308.11C239.271 302.404 248.384 288.397 253.832 270.686C261.301 255.55 300.409 256.422 319.468 268.487C320.142 268.923 320.795 269.358 321.429 269.814V269.794ZM361.746 243.088C372.226 256.481 374.029 272.35 376.03 285.584C381.657 268.13 395.208 245.327 415.614 245.723C432.493 246.04 453.831 252.974 459.477 259.195C469.581 274.727 482.201 285.703 493.434 288.417C481.329 276.867 471.146 267.278 470.73 260.364C493.711 269.537 521.665 269.933 546.747 260.839C511.284 264.604 483.687 259.869 472.176 249.448C479.685 243.801 493.236 242.018 504.628 241.285C487.609 239.423 473.82 240.731 463.3 245.208C454.88 236.848 436.04 231.657 419.081 227.199C426.926 219.314 433.187 217.63 444.876 218.819C455.673 219.909 466.708 221.613 474.573 219.255C487.669 215.352 490.898 208.953 530.383 204.832C513.008 203.604 499.595 204.04 490.125 206.14C479.11 208.596 470.155 214.104 457.535 208.695C449.908 206.694 445.232 202.791 443.528 202.871C448.977 168.636 465.004 161.385 497.258 164.595C514.454 178.007 531.314 181.236 550.987 174.401C523.508 175.154 511.542 171.152 499.278 152.807C515.544 133.035 519.169 141.375 543.141 131.014C514.117 132.421 509.977 128.141 486.718 152.787C449.769 156.65 437.486 161.861 428.591 199.78C416.545 202.276 409.135 204.594 405.629 207.507C399.289 179.533 399.903 153.084 423.955 133.649C446.203 133.253 484.598 130.677 494.761 98.3248C477.367 121.425 449.729 126.14 425.916 122.119C426.372 89.6473 441.032 80.2962 461.121 66.4281C432.731 75.7594 416.268 93.0946 417.1 123.05C401.944 136.68 388.432 147.874 386.114 171.707C383.182 201.999 393.346 210.161 384.45 225.674C380.864 231.934 373.772 233.559 361.766 243.049L361.746 243.088ZM329.136 401.542C322.361 395.895 316.437 387.812 312.059 382.522C310.454 384.147 307.601 388.03 305.976 389.556C269.681 423.513 227.344 433.735 201.985 447.445C243.609 441.779 295.991 428.902 329.116 401.542H329.136ZM314.594 336.619C312.653 348.585 312.197 361.383 312.356 370.2C333.415 409.129 401.191 438.649 442.875 442.155C397.13 421.294 334.188 389.14 314.594 336.619ZM330.959 291.112C276.378 366.891 442.776 442.235 512.889 442.809C466.332 425.157 396.793 393.399 381.815 351.2C380.904 348.625 380.191 346.01 379.695 343.355C376.625 341.651 373.792 339.947 371.176 338.244C346.333 321.998 341.182 305.435 330.959 291.112ZM334.188 407.485C322.083 420.878 308.908 427.376 292.584 434.508C310.87 430.665 337.061 425.712 354.911 420.442C349.958 418.52 343.341 413.864 334.188 407.465V407.485Z" fill="white"/>
</svg>
