<svg width="104" height="93" viewBox="0 0 104 93" fill="none" xmlns="http://www.w3.org/2000/svg">
<path fill-rule="evenodd" clip-rule="evenodd" d="M40.3601 2.62695C42.2935 7.33535 39.026 13.7268 45.089 13.3409C45.2409 12.3106 45.1055 10.9354 44.6703 9.21132C45.2697 9.81065 46.0168 11.6045 46.4273 13.1767C50.7005 8.40265 44.6293 4.17863 40.3601 2.62695Z" fill="#7D4666"/>
<path fill-rule="evenodd" clip-rule="evenodd" d="M53.7095 0.5625C54.7973 5.53362 50.4543 11.297 56.5091 11.9251C56.8416 10.9358 56.9442 9.55649 56.817 7.77904C57.3014 8.47278 57.7283 10.3652 57.8597 11.9866C62.9088 7.98429 57.6544 2.80381 53.7095 0.5625Z" fill="#7D4666"/>
<path fill-rule="evenodd" clip-rule="evenodd" d="M22.7417 8.96901C27.3762 11.2555 29.2399 18.1682 33.5296 13.9648C32.9508 13.0945 31.9163 12.1504 30.4262 11.1323C31.28 11.198 33.0534 12.0642 34.4244 12.9796C34.408 6.63739 26.9944 7.38039 22.7417 8.96901Z" fill="#7D4666"/>
<path fill-rule="evenodd" clip-rule="evenodd" d="M18.062 13.0254C21.2967 16.9908 20.0447 24.0349 25.7383 21.9619C25.5823 20.9316 25.0487 19.6549 24.1251 18.1238C24.8763 18.5302 26.116 20.0367 26.9739 21.4283C29.6627 15.6567 22.6062 13.3127 18.062 13.0254Z" fill="#7D4666"/>
<path fill-rule="evenodd" clip-rule="evenodd" d="M82.4853 7.12617C78.0561 9.76977 71.0612 7.67624 72.4569 13.456C73.5201 13.4314 74.887 13.0743 76.5536 12.3682C76.0446 13.0455 74.3616 14.0595 72.8427 14.7163C78.368 18.0454 81.6274 11.4939 82.4853 7.12207V7.12617Z" fill="#7D4666"/>
<path fill-rule="evenodd" clip-rule="evenodd" d="M7.4917 23.4395C12.3479 25.2333 18.8214 21.9124 18.5464 27.8441C17.4955 28.0124 16.0875 27.9098 14.3142 27.5198C14.9422 28.0945 16.7895 28.7841 18.4068 29.1577C13.6081 33.4268 9.16653 27.5814 7.4917 23.4436V23.4395Z" fill="#7D4666"/>
<path fill-rule="evenodd" clip-rule="evenodd" d="M6.51044 28.9482C9.64664 32.0147 15.8862 31.6534 13.5381 36.1771C12.6597 35.9472 11.6006 35.3807 10.3568 34.4694C10.64 35.1303 11.8305 36.3044 12.9552 37.15C7.68036 38.8289 6.32162 32.7453 6.50634 28.9482H6.51044Z" fill="#7D4666"/>
<path fill-rule="evenodd" clip-rule="evenodd" d="M84.7881 12.7578C82.3908 16.0418 76.611 16.6411 79.4762 20.4423C80.248 20.1016 81.1305 19.4243 82.124 18.398C81.968 19.0466 81.0608 20.3027 80.1618 21.2469C85.2643 21.994 85.5557 16.2142 84.7881 12.7578Z" fill="#7D4666"/>
<path fill-rule="evenodd" clip-rule="evenodd" d="M99.9849 31.7639C95.9784 33.3771 90.4983 30.7582 90.8759 35.7005C91.7544 35.8155 92.9284 35.6964 94.398 35.327C93.889 35.8196 92.366 36.4435 91.0237 36.7884C95.1328 40.2365 98.6918 35.2531 99.9849 31.7598V31.7639Z" fill="#7D4666"/>
<path fill-rule="evenodd" clip-rule="evenodd" d="M96.0849 40.4499C92.1154 40.9671 87.8503 37.3589 86.9883 41.862C87.7477 42.1699 88.8232 42.3341 90.2271 42.3423C89.6524 42.6666 88.1418 42.8677 86.8569 42.8677C89.6935 46.8988 94.0817 43.27 96.0808 40.4458L96.0849 40.4499Z" fill="#7D4666"/>
<path fill-rule="evenodd" clip-rule="evenodd" d="M63.0071 2.82031C64.8133 7.58618 61.3651 13.8996 67.4446 13.6697C67.6252 12.6435 67.5267 11.2642 67.1408 9.52373C67.7237 10.1395 68.4215 11.9539 68.791 13.5425C73.1997 8.87104 67.2393 4.48283 63.0071 2.82031Z" fill="#7D4666"/>
<path fill-rule="evenodd" clip-rule="evenodd" d="M96.8117 22.9678C93.8643 24.5441 89.4063 22.9842 90.1288 26.7649C90.8184 26.7813 91.7133 26.5884 92.8134 26.182C92.4645 26.6048 91.3439 27.2123 90.3381 27.59C93.8068 29.9052 96.1179 25.7674 96.8076 22.9678H96.8117Z" fill="#7D4666"/>
<path fill-rule="evenodd" clip-rule="evenodd" d="M1.72412 40.208C6.80197 41.653 13.1072 37.7779 13.3083 43.8245C12.2575 44.079 10.8166 44.079 8.98171 43.8245C9.66314 44.3581 11.5966 44.9164 13.2714 45.1709C8.74362 49.8793 3.75608 44.2883 1.72412 40.2121V40.208Z" fill="#7D4666"/>
<path fill-rule="evenodd" clip-rule="evenodd" d="M20.2375 26.7603C23.1849 26.5346 26.1815 29.3588 26.9984 26.0748C26.4524 25.8162 25.6643 25.6561 24.6298 25.5945C25.065 25.3811 26.1897 25.2867 27.1339 25.3359C25.2045 22.2531 21.8261 24.7571 20.2334 26.7603H20.2375Z" fill="#7D4666"/>
<path fill-rule="evenodd" clip-rule="evenodd" d="M31.6657 18.4191C31.5671 21.3255 28.3406 23.9403 31.6123 25.1061C31.9366 24.6012 32.1911 23.85 32.3717 22.8443C32.5441 23.2958 32.5113 24.4042 32.3553 25.3196C35.7255 23.7802 33.5416 20.1925 31.6698 18.415L31.6657 18.4191Z" fill="#7D4666"/>
<path fill-rule="evenodd" clip-rule="evenodd" d="M16.2354 36.0986C19.0267 34.7029 23.144 36.2751 22.5734 32.7325C21.933 32.6997 21.0915 32.8557 20.053 33.2046C20.3896 32.8187 21.4528 32.281 22.3969 31.9526C19.2238 29.7031 16.9537 33.5043 16.2354 36.0986Z" fill="#7D4666"/>
<path fill-rule="evenodd" clip-rule="evenodd" d="M33.4678 3.20605C34.9332 6.17395 33.0983 10.4595 37.0104 9.95052C37.0637 9.2773 36.9118 8.39063 36.5547 7.2905C36.9693 7.65584 37.5317 8.78471 37.8724 9.78632C40.4298 6.50645 36.3043 4.03115 33.4678 3.20605Z" fill="#7D4666"/>
<path fill-rule="evenodd" clip-rule="evenodd" d="M50.2612 12.0107C49.2596 14.445 45.7006 15.6929 48.1102 17.6674C48.5454 17.3349 48.9969 16.7766 49.4649 15.9761C49.4649 16.4113 49.0913 17.339 48.6685 18.0738C52.0141 17.7823 51.2875 14.0838 50.2612 12.0107Z" fill="#7D4666"/>
<path fill-rule="evenodd" clip-rule="evenodd" d="M52.293 11.174C53.8037 13.3456 57.5515 13.8176 55.6345 16.2478C55.1378 16.0138 54.5754 15.5622 53.9432 14.8808C54.0335 15.3036 54.6041 16.1369 55.1788 16.7609C51.8497 17.1755 51.7471 13.4071 52.2971 11.1699L52.293 11.174Z" fill="#7D4666"/>
<path fill-rule="evenodd" clip-rule="evenodd" d="M40.3149 14.9297C42.1785 15.8451 44.9084 14.786 44.543 17.1423C44.1161 17.1669 43.5578 17.0684 42.8641 16.8385C43.0899 17.093 43.8 17.446 44.4281 17.6595C42.3263 19.1701 40.8034 16.6497 40.3108 14.9297H40.3149Z" fill="#7D4666"/>
<path fill-rule="evenodd" clip-rule="evenodd" d="M16.3049 51.8743C17.9838 50.1256 21.4156 50.2077 20.0651 47.7611C19.5848 47.9048 19.0101 48.2373 18.341 48.7628C18.4887 48.3933 19.125 47.7242 19.7325 47.2357C16.8139 46.4147 16.153 49.7849 16.3049 51.8702V51.8743Z" fill="#7D4666"/>
<path fill-rule="evenodd" clip-rule="evenodd" d="M15.7222 39.293C16.9783 41.4399 20.4675 42.1541 18.4807 44.301C18.0333 44.0465 17.5366 43.5786 16.9906 42.8971C17.044 43.3035 17.5202 44.1245 18.0087 44.7526C14.8478 44.9045 15.0326 41.3578 15.7181 39.293H15.7222Z" fill="#7D4666"/>
<path fill-rule="evenodd" clip-rule="evenodd" d="M26.5058 42.6342C29.5189 41.608 33.4432 43.759 33.3734 40.1097C32.7331 39.9865 31.8628 40.0317 30.7668 40.241C31.1608 39.9003 32.3102 39.5021 33.3077 39.301C30.4302 36.5999 27.6018 40.1179 26.5017 42.6342H26.5058Z" fill="#7D4666"/>
<path fill-rule="evenodd" clip-rule="evenodd" d="M63.0441 13.0742C60.9998 14.7737 57.252 14.2564 58.4424 17.0971C58.9843 17.0027 59.6534 16.7112 60.4457 16.2186C60.2404 16.6045 59.4646 17.2572 58.7421 17.7128C61.8413 18.9772 62.962 15.373 63.04 13.0742H63.0441Z" fill="#7D4666"/>
<path fill-rule="evenodd" clip-rule="evenodd" d="M37.3879 36.7802C40.7129 36.6365 43.9805 39.9246 45.0231 36.2548C44.4197 35.9469 43.5371 35.7334 42.3754 35.6267C42.8762 35.4009 44.1406 35.3394 45.2038 35.4297C43.1513 31.8912 39.2516 34.584 37.3838 36.7802H37.3879Z" fill="#7D4666"/>
<path fill-rule="evenodd" clip-rule="evenodd" d="M30.6067 31.9898C32.4786 31.0908 33.2626 28.3241 34.9662 30.0317C34.7281 30.3807 34.3094 30.7542 33.7059 31.1565C34.0508 31.136 34.765 30.7953 35.3233 30.434C35.2864 32.9832 32.3102 32.6507 30.6108 31.9898H30.6067Z" fill="#7D4666"/>
<path fill-rule="evenodd" clip-rule="evenodd" d="M34.2478 19.5929C36.2716 20.0855 38.6935 18.464 38.87 20.8408C38.4595 20.9557 37.893 20.9803 37.1664 20.9064C37.4456 21.1076 38.2132 21.2964 38.8782 21.3703C37.1664 23.2955 35.114 21.1651 34.2478 19.5887V19.5929Z" fill="#7D4666"/>
<path fill-rule="evenodd" clip-rule="evenodd" d="M58.2701 18.9238C60.1009 21.5592 64.6574 22.1339 62.3258 25.0854C61.7224 24.8021 61.0369 24.2521 60.2692 23.427C60.3801 23.9401 61.0738 24.9499 61.7676 25.7134C57.7242 26.2143 57.601 21.6454 58.2701 18.9279V18.9238Z" fill="#7D4666"/>
<path fill-rule="evenodd" clip-rule="evenodd" d="M74.5464 18.3652C74.5094 20.9349 77.2475 23.3692 74.3124 24.2682C74.0497 23.8084 73.8567 23.1352 73.7377 22.2444C73.5653 22.6344 73.5489 23.6155 73.6474 24.4324C70.737 22.9382 72.8182 19.8635 74.5423 18.3693L74.5464 18.3652Z" fill="#7D4666"/>
<path fill-rule="evenodd" clip-rule="evenodd" d="M73.2493 18.1437C71.0983 18.4803 68.7216 16.5797 68.3234 19.0426C68.7421 19.1986 69.3291 19.2725 70.0926 19.2561C69.7848 19.4408 68.9638 19.5722 68.27 19.5927C69.8751 21.7437 72.2067 19.7077 73.2493 18.1437Z" fill="#7D4666"/>
<path fill-rule="evenodd" clip-rule="evenodd" d="M83.9427 26.1407C81.0405 25.9026 78.5816 22.6885 77.2516 25.759C77.7401 26.0915 78.4831 26.3747 79.4765 26.5964C79.0167 26.7401 77.9084 26.6539 76.9971 26.4568C78.3722 29.7531 82.0708 27.8443 83.9427 26.1407Z" fill="#7D4666"/>
<path fill-rule="evenodd" clip-rule="evenodd" d="M12.3311 16.1035C14.9664 18.0862 19.5681 17.2283 18.2709 20.8119C17.5936 20.7257 16.7521 20.4055 15.7382 19.8431C16.0132 20.307 17.0148 21.0705 17.9343 21.5919C14.1783 23.3365 12.5691 18.9483 12.3311 16.1035Z" fill="#7D4666"/>
<path fill-rule="evenodd" clip-rule="evenodd" d="M90.2805 17.3555C88.2649 19.9826 83.5442 20.3644 85.802 23.5129C86.4382 23.2502 87.1689 22.7125 87.9981 21.8997C87.8585 22.4251 87.095 23.4308 86.3438 24.182C90.4816 24.8881 90.8346 20.1838 90.2805 17.3555Z" fill="#7D4666"/>
<path fill-rule="evenodd" clip-rule="evenodd" d="M90.4325 32.7002C87.9572 31.4441 86.9966 27.725 84.6691 29.9581C84.977 30.4301 85.5229 30.9433 86.3193 31.4974C85.8596 31.4564 84.9154 30.9843 84.1847 30.4835C84.156 33.8906 88.1419 33.5294 90.4325 32.7002Z" fill="#7D4666"/>
<path fill-rule="evenodd" clip-rule="evenodd" d="M80.9214 39.8219C78.2285 38.0239 77.6661 33.5495 74.6202 35.8483C74.9076 36.4394 75.4699 37.1126 76.3115 37.8638C75.7819 37.7571 74.7516 37.0757 73.9757 36.3943C73.4339 40.3679 78.1259 40.4828 80.9214 39.8219Z" fill="#7D4666"/>
<path fill-rule="evenodd" clip-rule="evenodd" d="M71.4594 30.6807C68.1262 30.6028 65.0926 27.1012 63.7954 30.6972C64.3783 31.0461 65.2445 31.317 66.3939 31.5017C65.8807 31.6947 64.6082 31.67 63.5532 31.51C65.3553 35.1839 69.4397 32.7497 71.4594 30.6807Z" fill="#7D4666"/>
<path fill-rule="evenodd" clip-rule="evenodd" d="M54.091 24.8389C55.7535 27.6631 60.3511 28.5908 57.7403 31.4232C57.1492 31.0907 56.4924 30.475 55.7741 29.576C55.848 30.1097 56.476 31.1893 57.1246 32.0185C52.9622 32.2278 53.1961 27.5564 54.091 24.8389Z" fill="#7D4666"/>
<path fill-rule="evenodd" clip-rule="evenodd" d="M53.2826 41.1768C54.7686 43.2087 58.3481 43.5782 56.5748 45.9303C56.0986 45.721 55.5486 45.2981 54.9328 44.666C55.0272 45.0683 55.5937 45.8441 56.152 46.4311C52.9953 46.895 52.8105 43.3196 53.2826 41.1768Z" fill="#7D4666"/>
<path fill-rule="evenodd" clip-rule="evenodd" d="M47.0634 23.8584C46.2301 25.7549 47.4944 28.3862 45.0356 28.1686C44.9822 27.7499 45.052 27.1916 45.2449 26.4938C44.9945 26.7319 44.6743 27.4544 44.4896 28.0906C42.7984 26.1079 45.3106 24.4495 47.0593 23.8584H47.0634Z" fill="#7D4666"/>
<path fill-rule="evenodd" clip-rule="evenodd" d="M48.2992 0C48.7549 3.07873 45.865 6.42838 49.5348 7.05234C49.777 6.46122 49.9002 5.62381 49.8961 4.53189C50.1629 4.97522 50.3435 6.14925 50.3558 7.14265C53.607 4.89723 50.6144 1.52705 48.2992 0Z" fill="#7D4666"/>
<path fill-rule="evenodd" clip-rule="evenodd" d="M73.0109 3.56738C72.1243 5.70197 68.9922 6.77747 71.0939 8.52208C71.4757 8.23473 71.8739 7.74214 72.2885 7.04429C72.2885 7.42605 71.956 8.23884 71.5824 8.87921C74.5175 8.63702 73.9017 5.38999 73.0068 3.56738H73.0109Z" fill="#7D4666"/>
<path fill-rule="evenodd" clip-rule="evenodd" d="M89.3489 14.3633C88.0764 15.4142 85.7529 15.0858 86.4877 16.8509C86.8243 16.7934 87.2389 16.6128 87.7315 16.309C87.6043 16.5471 87.1199 16.9494 86.6725 17.2327C88.5936 18.0208 89.2955 15.7877 89.3489 14.3633Z" fill="#7D4666"/>
<path fill-rule="evenodd" clip-rule="evenodd" d="M4.33057 64.3746C8.60794 63.4263 13.6447 66.9525 14.1086 61.9527C13.2507 61.6899 12.0561 61.616 10.525 61.7392C11.1161 61.3328 12.7458 60.9634 14.1455 60.8361C10.6276 56.7106 6.21475 61.0988 4.33057 64.3746Z" fill="#7D4666"/>
<path fill-rule="evenodd" clip-rule="evenodd" d="M16.7896 67.4032C20.4594 65.4328 21.9002 59.772 25.3361 63.0848C24.8804 63.8072 24.0677 64.5995 22.8854 65.4615C23.5669 65.3876 24.9667 64.6446 26.0545 63.8647C26.0791 69.0164 20.1844 68.5936 16.7937 67.4032H16.7896Z" fill="#7D4666"/>
<path fill-rule="evenodd" clip-rule="evenodd" d="M102.222 55.9508C96.9019 55.684 91.5819 60.9301 90.0055 55.0313C90.9825 54.5428 92.3987 54.2103 94.2583 54.0502C93.466 53.6808 91.4382 53.5699 89.7346 53.7054C93.1171 48.0446 99.291 52.4082 102.222 55.9508Z" fill="#7D4666"/>
<path fill-rule="evenodd" clip-rule="evenodd" d="M88.8808 66.0198C84.4803 63.5322 77.7399 65.7201 78.9139 60.0471C79.9525 60.0471 81.2907 60.3713 82.9368 61.024C82.4196 60.3755 80.7489 59.419 79.2464 58.8074C84.5213 55.4454 87.8997 61.7711 88.8767 66.0198H88.8808Z" fill="#7D4666"/>
<path fill-rule="evenodd" clip-rule="evenodd" d="M12.7749 54.8344C16.0876 54.5512 18.9611 50.828 20.406 54.3788C19.8396 54.7688 18.9898 55.0931 17.8528 55.3517C18.3741 55.5159 19.6384 55.4132 20.6811 55.1875C19.0391 59.0051 14.8725 56.8007 12.779 54.8385L12.7749 54.8344Z" fill="#7D4666"/>
<path fill-rule="evenodd" clip-rule="evenodd" d="M89.8538 46.6035C86.3441 47.6913 81.8655 45.0765 81.8491 49.3005C82.588 49.4606 83.5937 49.4442 84.8663 49.2348C84.4024 49.6166 83.0642 50.0353 81.9025 50.2364C85.1577 53.4588 88.5197 49.477 89.8538 46.6035Z" fill="#7D4666"/>
<path fill-rule="evenodd" clip-rule="evenodd" d="M0 51.1803C4.32253 51.3076 8.56296 46.9522 9.92581 51.7222C9.14176 52.1368 7.99648 52.4282 6.48585 52.5924C7.13444 52.8798 8.78463 52.9331 10.1639 52.7977C7.49978 57.4568 2.42604 54.0127 0 51.1803Z" fill="#7D4666"/>
<path fill-rule="evenodd" clip-rule="evenodd" d="M103.408 42.9464C99.9312 43.7592 95.9083 40.8365 95.4568 45.0195C96.1505 45.237 97.1152 45.2904 98.3549 45.1796C97.8705 45.5244 96.5446 45.8405 95.4116 45.9513C98.1989 49.3872 101.832 45.6968 103.408 42.9464Z" fill="#7D4666"/>
<path fill-rule="evenodd" clip-rule="evenodd" d="M44.2722 55.8768C49.9494 59.8709 49.9453 65.6712 55.6512 68.594C54.3171 62.9004 55.7292 57.8184 50.2326 48.5002C47.7696 44.3295 52.8352 40.5817 51.85 35.9431C51.1439 32.6139 50.364 28.5664 52.2481 25.5493C54.2883 22.2817 59.4852 19.6586 56.9278 11.3584C57.5148 16.9945 54.3663 21.4525 50.6349 23.661C48.2745 21.5757 46.5381 17.7622 45.6925 12.5776C45.3313 18.1685 46.5833 21.9944 49.231 25.2866C48.7097 27.3062 48.291 29.9826 48.1924 32.0967C46.3206 31.3168 44.6211 29.8595 43.0941 27.7249C41.4192 20.258 42.4824 17.5774 33.5213 13.1851C39.3339 17.2244 40.7994 21.9328 40.8035 28.1313C34.9129 28.1272 28.3983 26.0172 25.7177 20.4058C29.3876 29.5721 33.8456 28.5336 39.4447 30.6518C42.154 31.6739 46.2344 33.8618 47.5315 36.4069C48.7343 38.7591 45.3846 42.0964 44.9659 45.4214C43.6893 44.506 41.6779 44.2351 40.4915 44.3049C38.2009 38.2008 35.6887 34.1697 28.6323 34.4406C25.8655 30.4014 23.4559 28.1929 17.2902 28.3407C21.1776 29.1452 25.3237 31.6369 26.3417 35.3068C23.4025 38.7755 17.4996 39.3707 12.2986 36.2715C16.2968 39.9003 20.3895 40.6802 24.5765 38.6113C30.4056 35.237 35.3275 37.6097 37.1665 44.4075C29.3753 47.0101 31.5139 45.13 25.533 44.4568C20.6809 43.9108 16.7032 46.4723 13.0293 44.8139C17.0439 47.8352 20.4962 45.5897 24.7736 46.4313C27.565 46.9813 28.8457 47.6874 31.0255 48.1718C34.9457 49.042 37.6673 47.3302 41.6532 50.6347C41.9324 50.8646 41.7846 50.6881 42.0719 50.9672C38.632 50.996 33.8456 50.4952 28.7061 53.4918C26.354 53.2004 23.538 53.7217 20.2499 55.064C22.5651 54.5591 25.3647 54.1445 27.1832 54.8423C25.4838 57.5721 20.2581 60.0885 12.9759 61.3569C18.4889 61.7387 24.0347 60.068 28.0904 56.9318C28.4024 58.3316 26.9205 60.8233 25.1636 63.8158C27.2489 62.6336 29.1372 59.7314 30.266 56.0615C31.8136 52.9253 39.9168 53.1059 43.8658 55.6059C44.0054 55.6962 44.1408 55.7865 44.2722 55.8809V55.8768ZM52.6258 50.3433C54.7973 53.1183 55.1709 56.4063 55.5855 59.1485C56.7513 55.532 59.5591 50.8072 63.7872 50.8893C67.2846 50.9549 71.7057 52.3917 72.8756 53.6806C74.9692 56.8989 77.584 59.1731 79.9115 59.7355C77.4034 57.3423 75.2934 55.3555 75.2072 53.9228C79.969 55.8234 85.7611 55.9055 90.958 54.0213C83.6101 54.8013 77.8919 53.8202 75.5069 51.661C77.0627 50.4911 79.8705 50.1216 82.2309 49.9697C78.7047 49.5839 75.8476 49.8548 73.6679 50.7825C71.9233 49.0502 68.0194 47.9747 64.5056 47.0511C66.1311 45.4173 67.4283 45.0684 69.8503 45.3147C72.0875 45.5405 74.3739 45.8935 76.0036 45.405C78.717 44.5963 79.3861 43.2704 87.5673 42.4166C83.9673 42.1621 81.1882 42.2524 79.226 42.6875C76.9436 43.1965 75.0882 44.3377 72.4733 43.2171C70.8929 42.8025 69.9242 41.9938 69.5711 42.0102C70.7 34.9168 74.0209 33.4144 80.7038 34.0794C84.2669 36.8585 87.7602 37.5276 91.8365 36.1114C86.1429 36.2674 83.6635 35.4381 81.1225 31.6369C84.4927 27.5402 85.2439 29.2684 90.2109 27.1215C84.1971 27.4129 83.3392 26.5263 78.52 31.6328C70.8642 32.4333 68.3191 33.5129 66.476 41.3698C63.9802 41.8871 62.4449 42.3673 61.7183 42.9708C60.4047 37.1745 60.532 31.6944 65.5154 27.6674C70.1253 27.5853 78.0807 27.0517 80.1866 20.3483C76.5824 25.1347 70.856 26.1117 65.9218 25.2784C66.0162 18.5503 69.0539 16.6128 73.2163 13.7393C67.3339 15.6727 63.9227 19.2646 64.0951 25.4713C60.9548 28.2955 58.1552 30.6148 57.6749 35.5531C57.0674 41.8296 59.1732 43.5208 57.3301 46.735C56.5871 48.0322 55.1175 48.3688 52.6299 50.3351L52.6258 50.3433ZM45.869 83.1748C44.4651 82.0049 43.2377 80.3301 42.3305 79.2341C41.998 79.5707 41.4069 80.3753 41.0703 80.6913C33.55 87.7272 24.7777 89.8454 19.5233 92.6861C28.1479 91.512 39.0014 88.8438 45.8649 83.1748H45.869ZM42.856 69.7229C42.4537 72.2023 42.3593 74.8541 42.3921 76.6808C46.7557 84.747 60.7988 90.8634 69.4357 91.59C59.9573 87.2675 46.9158 80.6051 42.856 69.7229ZM46.2467 60.2937C34.9375 75.9952 69.4151 91.6064 83.9426 91.7255C74.2959 88.068 59.8875 81.4877 56.7841 72.7441C56.5953 72.2105 56.4475 71.6686 56.3449 71.1185C55.7086 70.7655 55.1216 70.4125 54.5798 70.0595C49.4321 66.6934 48.3648 63.2616 46.2467 60.2937ZM46.9158 84.4063C44.4077 87.1813 41.6779 88.5277 38.2954 90.0055C42.0842 89.2091 47.511 88.1829 51.2096 87.091C50.1833 86.6928 48.8123 85.7281 46.9158 84.4022V84.4063Z" fill="#7D4666"/>
</svg>
