<svg width="146" height="136" viewBox="0 0 146 136" fill="none" xmlns="http://www.w3.org/2000/svg">
<path d="M145.52 111.657C145.52 113.821 145.11 115.661 144.29 117.179C143.476 118.696 142.365 119.855 140.958 120.656C139.556 121.451 137.981 121.848 136.23 121.848C134.467 121.848 132.885 121.447 131.484 120.647C130.083 119.846 128.975 118.687 128.161 117.169C127.348 115.651 126.941 113.814 126.941 111.657C126.941 109.494 127.348 107.653 128.161 106.136C128.975 104.618 130.083 103.462 131.484 102.668C132.885 101.867 134.467 101.467 136.23 101.467C137.981 101.467 139.556 101.867 140.958 102.668C142.365 103.462 143.476 104.618 144.29 106.136C145.11 107.653 145.52 109.494 145.52 111.657ZM141.268 111.657C141.268 110.256 141.058 109.074 140.638 108.112C140.225 107.15 139.64 106.42 138.885 105.923C138.129 105.425 137.244 105.177 136.23 105.177C135.217 105.177 134.332 105.425 133.576 105.923C132.821 106.42 132.233 107.15 131.813 108.112C131.4 109.074 131.193 110.256 131.193 111.657C131.193 113.059 131.4 114.24 131.813 115.203C132.233 116.165 132.821 116.895 133.576 117.392C134.332 117.889 135.217 118.138 136.23 118.138C137.244 118.138 138.129 117.889 138.885 117.392C139.64 116.895 140.225 116.165 140.638 115.203C141.058 114.24 141.268 113.059 141.268 111.657Z" fill="white"/>
<path d="M114.89 121.577H107.857V101.738H114.948C116.944 101.738 118.661 102.135 120.101 102.93C121.542 103.718 122.649 104.851 123.424 106.33C124.205 107.809 124.596 109.578 124.596 111.638C124.596 113.705 124.205 115.481 123.424 116.966C122.649 118.451 121.535 119.591 120.082 120.385C118.636 121.18 116.905 121.577 114.89 121.577ZM112.052 117.983H114.716C115.956 117.983 116.998 117.763 117.844 117.324C118.697 116.879 119.336 116.191 119.762 115.261C120.195 114.325 120.411 113.117 120.411 111.638C120.411 110.172 120.195 108.974 119.762 108.044C119.336 107.114 118.7 106.43 117.854 105.991C117.008 105.552 115.965 105.332 114.725 105.332H112.052V117.983Z" fill="white"/>
<path d="M104.805 101.738V121.577H101.182L92.5516 109.091H92.4063V121.577H88.2119V101.738H91.8929L100.456 114.215H100.63V101.738H104.805Z" fill="white"/>
<path d="M71.6397 121.577H67.145L73.9935 101.738H79.3987L86.2375 121.577H81.7429L76.7736 106.272H76.6186L71.6397 121.577ZM71.3587 113.779H81.9754V117.053H71.3587V113.779Z" fill="white"/>
<path d="M54.4494 101.738L59.2443 116.811H59.4283L64.2329 101.738H68.8826L62.0437 121.577H56.6386L49.79 101.738H54.4494Z" fill="white"/>
<path d="M49.2906 111.657C49.2906 113.821 48.8805 115.661 48.0603 117.179C47.2467 118.696 46.1359 119.855 44.7281 120.656C43.3268 121.451 41.7511 121.848 40.001 121.848C38.238 121.848 36.6558 121.447 35.2545 120.647C33.8532 119.846 32.7456 118.687 31.932 117.169C31.1183 115.651 30.7114 113.814 30.7114 111.657C30.7114 109.494 31.1183 107.653 31.932 106.136C32.7456 104.618 33.8532 103.462 35.2545 102.668C36.6558 101.867 38.238 101.467 40.001 101.467C41.7511 101.467 43.3268 101.867 44.7281 102.668C46.1359 103.462 47.2467 104.618 48.0603 106.136C48.8805 107.653 49.2906 109.494 49.2906 111.657ZM45.0381 111.657C45.0381 110.256 44.8282 109.074 44.4084 108.112C43.9951 107.15 43.4107 106.42 42.6552 105.923C41.8996 105.425 41.0149 105.177 40.001 105.177C38.9871 105.177 38.1024 105.425 37.3468 105.923C36.5913 106.42 36.0036 107.15 35.5838 108.112C35.1705 109.074 34.9639 110.256 34.9639 111.657C34.9639 113.059 35.1705 114.24 35.5838 115.203C36.0036 116.165 36.5913 116.895 37.3468 117.392C38.1024 117.889 38.9871 118.138 40.001 118.138C41.0149 118.138 41.8996 117.889 42.6552 117.392C43.4107 116.895 43.9951 116.165 44.4084 115.203C44.8282 114.24 45.0381 113.059 45.0381 111.657Z" fill="white"/>
<path d="M16.769 121.577V101.738H20.9634V118.119H29.4683V121.577H16.769Z" fill="white"/>
<path d="M0.47998 121.577V101.738H13.8477V105.196H4.67433V109.924H13.1599V113.382H4.67433V118.119H13.8864V121.577H0.47998Z" fill="white"/>
<path fill-rule="evenodd" clip-rule="evenodd" d="M25.7101 126.539H28.3044V125.205H21.6626V126.539H24.2569V133.391H25.706V126.539H25.7101ZM33.8133 129.918C33.8133 129.438 33.9406 129.06 34.1951 128.793C34.4496 128.522 34.7821 128.391 35.1926 128.391C35.6031 128.391 35.9315 128.522 36.1614 128.781C36.3912 129.039 36.5021 129.413 36.5021 129.893V133.395H37.9265V129.466C37.9265 128.74 37.7336 128.165 37.3559 127.734C36.9741 127.307 36.4323 127.09 35.7344 127.09C35.4963 127.09 35.2788 127.118 35.0858 127.176C34.8929 127.237 34.7205 127.315 34.5604 127.418C34.4003 127.521 34.2607 127.636 34.1417 127.767C34.0227 127.898 33.9118 128.034 33.8092 128.186V124.856H32.3807V133.391H33.8092V129.914L33.8133 129.918ZM43.501 130.809H48.037C48.0452 130.739 48.0493 130.673 48.0534 130.612C48.0534 130.55 48.0576 130.488 48.0576 130.423C48.0576 129.979 47.996 129.553 47.8687 129.15C47.7456 128.744 47.5609 128.391 47.3146 128.087C47.0683 127.783 46.7604 127.541 46.3909 127.36C46.0215 127.18 45.5905 127.09 45.0979 127.09C44.6545 127.09 44.2481 127.176 43.8828 127.348C43.5175 127.521 43.1973 127.75 42.9304 128.042C42.6595 128.333 42.4543 128.674 42.3065 129.064C42.1587 129.454 42.0848 129.873 42.0848 130.316C42.0848 130.8 42.1669 131.24 42.3311 131.63C42.4953 132.024 42.717 132.36 43.0043 132.639C43.2876 132.919 43.6242 133.14 44.01 133.296C44.3959 133.452 44.8105 133.53 45.2539 133.53C45.8244 133.53 46.3129 133.424 46.7193 133.214C47.1298 133.005 47.4829 132.722 47.7784 132.373L46.9492 131.638C46.6988 131.88 46.4484 132.061 46.1898 132.188C45.9312 132.311 45.6274 132.377 45.2785 132.377C44.8187 132.377 44.4288 132.241 44.1086 131.974C43.7884 131.704 43.5872 131.318 43.501 130.813V130.809ZM43.4928 129.873C43.5544 129.388 43.7268 128.998 44.0142 128.699C44.2974 128.399 44.6586 128.247 45.0938 128.247C45.3277 128.247 45.5371 128.288 45.7177 128.374C45.9024 128.461 46.0584 128.576 46.1898 128.719C46.3211 128.863 46.4279 129.035 46.5059 129.232C46.5839 129.429 46.6331 129.643 46.6578 129.869H43.4887L43.4928 129.873ZM55.9514 133.395H61.6819V132.098H57.3799V125.209H55.9514V133.395ZM71.9444 130.308C71.9444 129.865 71.8623 129.446 71.6981 129.056C71.5339 128.666 71.3081 128.325 71.0125 128.034C70.7211 127.742 70.3722 127.512 69.9699 127.344C69.5676 127.176 69.1284 127.094 68.6563 127.094C68.1842 127.094 67.7409 127.18 67.3427 127.352C66.9404 127.525 66.5956 127.755 66.3 128.046C66.0086 128.337 65.7787 128.682 65.6104 129.076C65.4421 129.47 65.36 129.889 65.36 130.332C65.36 130.776 65.4421 131.19 65.6063 131.576C65.7705 131.962 65.9963 132.303 66.2918 132.594C66.5874 132.886 66.9322 133.116 67.3345 133.284C67.7368 133.452 68.1719 133.534 68.6399 133.534C69.1078 133.534 69.5553 133.448 69.9617 133.276C70.3681 133.103 70.717 132.873 71.0084 132.582C71.2999 132.291 71.5298 131.95 71.6981 131.56C71.8664 131.17 71.9485 130.751 71.9485 130.308H71.9444ZM70.5199 130.328C70.5199 130.599 70.4789 130.858 70.3927 131.096C70.3106 131.334 70.1833 131.543 70.0232 131.72C69.859 131.901 69.6661 132.04 69.4362 132.147C69.2064 132.254 68.9477 132.303 68.6645 132.303C68.3936 132.303 68.1432 132.249 67.9133 132.147C67.6834 132.04 67.4905 131.901 67.3222 131.72C67.158 131.539 67.0266 131.33 66.9363 131.084C66.8419 130.837 66.7967 130.579 66.7967 130.308C66.7967 130.037 66.8378 129.778 66.924 129.54C67.0061 129.302 67.1333 129.093 67.2934 128.916C67.4576 128.736 67.6506 128.596 67.8805 128.489C68.1103 128.383 68.3648 128.333 68.644 128.333C68.9231 128.333 69.1776 128.387 69.4075 128.489C69.6374 128.596 69.8303 128.74 69.9986 128.92C70.1628 129.105 70.2942 129.314 70.3845 129.557C70.4789 129.799 70.5241 130.057 70.5241 130.328H70.5199ZM78.422 131.757L76.7595 127.221H75.2407L77.7775 133.44H79.0501L81.5746 127.221H80.0886L78.4179 131.757H78.422ZM86.2995 130.809H90.8354C90.8437 130.739 90.8478 130.673 90.8519 130.612C90.8519 130.55 90.856 130.488 90.856 130.423C90.856 129.979 90.7944 129.553 90.6671 129.15C90.544 128.744 90.3593 128.391 90.113 128.087C89.8667 127.783 89.5588 127.541 89.1893 127.36C88.8199 127.18 88.3889 127.09 87.8963 127.09C87.4529 127.09 87.0466 127.176 86.6812 127.348C86.3159 127.521 85.9957 127.75 85.7289 128.042C85.4579 128.333 85.2527 128.674 85.1049 129.064C84.9571 129.454 84.8832 129.873 84.8832 130.316C84.8832 130.8 84.9653 131.24 85.1295 131.63C85.2937 132.024 85.5154 132.36 85.8027 132.639C86.086 132.919 86.4226 133.14 86.8085 133.296C87.1943 133.452 87.6089 133.53 88.0523 133.53C88.6229 133.53 89.1114 133.424 89.5178 133.214C89.9282 133.005 90.2813 132.722 90.5768 132.373L89.7476 131.638C89.4972 131.88 89.2468 132.061 88.9882 132.188C88.7296 132.311 88.4258 132.377 88.0769 132.377C87.6171 132.377 87.2272 132.241 86.907 131.974C86.5868 131.704 86.3857 131.318 86.2995 130.813V130.809ZM86.2871 129.873C86.3487 129.388 86.5211 128.998 86.8085 128.699C87.0917 128.399 87.4529 128.247 87.8881 128.247C88.1221 128.247 88.3314 128.288 88.512 128.374C88.6968 128.461 88.8527 128.576 88.9841 128.719C89.1155 128.863 89.2222 129.035 89.3002 129.232C89.3782 129.429 89.4274 129.643 89.4521 129.869H86.283L86.2871 129.873ZM102.982 125.148H101.648L98.0479 133.391H99.5216L100.363 131.416H104.234L105.063 133.391H106.582L102.982 125.148ZM103.705 130.144H100.889L102.292 126.868L103.709 130.144H103.705ZM116.996 130.308C116.996 129.795 116.914 129.339 116.75 128.941C116.586 128.543 116.372 128.206 116.102 127.931C115.831 127.656 115.527 127.447 115.186 127.307C114.845 127.168 114.492 127.098 114.123 127.098C113.626 127.098 113.212 127.209 112.875 127.43C112.538 127.652 112.259 127.927 112.034 128.255V127.225H110.609V135.271H112.034L112.021 132.442C112.239 132.73 112.518 132.984 112.85 133.202C113.187 133.419 113.606 133.53 114.115 133.53C114.48 133.53 114.837 133.46 115.186 133.321C115.535 133.181 115.839 132.972 116.11 132.697C116.381 132.422 116.594 132.081 116.754 131.687C116.914 131.289 116.992 130.833 116.992 130.32L116.996 130.308ZM115.572 130.308C115.572 130.612 115.527 130.887 115.432 131.133C115.338 131.379 115.211 131.589 115.051 131.757C114.891 131.929 114.702 132.061 114.488 132.155C114.275 132.249 114.045 132.295 113.803 132.295C113.561 132.295 113.331 132.249 113.113 132.155C112.896 132.061 112.703 131.925 112.538 131.753C112.374 131.576 112.243 131.367 112.148 131.129C112.05 130.887 112.001 130.616 112.001 130.312C112.001 130.008 112.05 129.733 112.148 129.495C112.247 129.253 112.378 129.044 112.538 128.871C112.703 128.695 112.891 128.563 113.113 128.469C113.331 128.374 113.561 128.329 113.803 128.329C114.045 128.329 114.271 128.374 114.488 128.469C114.702 128.563 114.891 128.695 115.051 128.867C115.211 129.039 115.338 129.249 115.432 129.491C115.527 129.737 115.572 130.012 115.572 130.316V130.308ZM127.624 130.308C127.624 129.795 127.542 129.339 127.378 128.941C127.214 128.543 127 128.206 126.729 127.931C126.458 127.656 126.155 127.447 125.814 127.307C125.473 127.168 125.12 127.098 124.751 127.098C124.254 127.098 123.839 127.209 123.503 127.43C123.166 127.652 122.887 127.927 122.661 128.255V127.225H121.237V135.271H122.661L122.649 132.442C122.867 132.73 123.146 132.984 123.478 133.202C123.815 133.419 124.233 133.53 124.742 133.53C125.108 133.53 125.465 133.46 125.814 133.321C126.159 133.181 126.467 132.972 126.738 132.697C127.008 132.422 127.222 132.081 127.382 131.687C127.542 131.289 127.62 130.833 127.62 130.32L127.624 130.308ZM126.2 130.308C126.2 130.612 126.155 130.887 126.06 131.133C125.966 131.379 125.839 131.589 125.678 131.757C125.518 131.929 125.33 132.061 125.116 132.155C124.903 132.249 124.673 132.295 124.431 132.295C124.188 132.295 123.958 132.249 123.741 132.155C123.523 132.061 123.33 131.925 123.166 131.753C123.002 131.576 122.871 131.367 122.776 131.129C122.678 130.887 122.628 130.616 122.628 130.312C122.628 130.008 122.678 129.733 122.776 129.495C122.875 129.253 123.006 129.044 123.166 128.871C123.33 128.695 123.519 128.563 123.741 128.469C123.958 128.374 124.188 128.329 124.431 128.329C124.673 128.329 124.898 128.374 125.116 128.469C125.33 128.563 125.518 128.695 125.678 128.867C125.839 129.039 125.966 129.249 126.06 129.491C126.155 129.737 126.2 130.012 126.2 130.316V130.308Z" fill="white"/>
<path fill-rule="evenodd" clip-rule="evenodd" d="M63.168 2.85254C65.1014 7.56094 61.8339 13.9524 67.8969 13.5665C68.0488 12.5362 67.9133 11.161 67.4782 9.43691C68.0775 10.0362 68.8246 11.8301 69.2351 13.4023C73.5084 8.62823 67.4371 4.40422 63.168 2.85254Z" fill="white"/>
<path fill-rule="evenodd" clip-rule="evenodd" d="M76.5174 0.788086C77.6052 5.7592 73.2622 11.5226 79.317 12.1506C79.6495 11.1613 79.7521 9.78208 79.6249 8.00462C80.1092 8.69836 80.5362 10.5908 80.6675 12.2122C85.7166 8.20987 80.4623 3.0294 76.5174 0.788086Z" fill="white"/>
<path fill-rule="evenodd" clip-rule="evenodd" d="M45.5498 9.1946C50.1843 11.4811 52.048 18.3938 56.3377 14.1903C55.7589 13.3201 54.7244 12.3759 53.2343 11.3579C54.0881 11.4236 55.8615 12.2897 57.2326 13.2051C57.2161 6.86297 49.8026 7.60597 45.5498 9.1946Z" fill="white"/>
<path fill-rule="evenodd" clip-rule="evenodd" d="M40.8701 13.251C44.1048 17.2164 42.8528 24.2605 48.5464 22.1875C48.3904 21.1571 47.8568 19.8805 46.9332 18.3493C47.6844 18.7557 48.9241 20.2623 49.782 21.6538C52.4708 15.8823 45.4143 13.5383 40.8701 13.251Z" fill="white"/>
<path fill-rule="evenodd" clip-rule="evenodd" d="M105.293 7.35176C100.864 9.99536 93.8693 7.90183 95.265 13.6816C96.3282 13.657 97.6951 13.2999 99.3617 12.5938C98.8527 13.2711 97.1697 14.2851 95.6509 14.9418C101.176 18.271 104.435 11.7194 105.293 7.34766V7.35176Z" fill="white"/>
<path fill-rule="evenodd" clip-rule="evenodd" d="M30.2998 23.665C35.156 25.4589 41.6295 22.138 41.3545 28.0697C40.3036 28.238 38.8956 28.1354 37.1223 27.7454C37.7503 28.3201 39.5976 29.0097 41.2149 29.3833C36.4162 33.6524 31.9746 27.807 30.2998 23.6691V23.665Z" fill="white"/>
<path fill-rule="evenodd" clip-rule="evenodd" d="M29.3185 29.1738C32.4547 32.2402 38.6943 31.879 36.3463 36.4027C35.4678 36.1728 34.4087 35.6063 33.1649 34.695C33.4481 35.3559 34.6386 36.5299 35.7633 37.3756C30.4885 39.0545 29.1297 32.9709 29.3144 29.1738H29.3185Z" fill="white"/>
<path fill-rule="evenodd" clip-rule="evenodd" d="M107.596 12.9834C105.199 16.2674 99.4191 16.8667 102.284 20.6679C103.056 20.3272 103.939 19.6499 104.932 18.6236C104.776 19.2722 103.869 20.5283 102.97 21.4725C108.072 22.2196 108.364 16.4398 107.596 12.9834Z" fill="white"/>
<path fill-rule="evenodd" clip-rule="evenodd" d="M122.793 31.9895C118.787 33.6027 113.306 30.9837 113.684 35.9261C114.563 36.0411 115.737 35.922 117.206 35.5526C116.697 36.0452 115.174 36.6691 113.832 37.0139C117.941 40.4621 121.5 35.4787 122.793 31.9854V31.9895Z" fill="white"/>
<path fill-rule="evenodd" clip-rule="evenodd" d="M118.893 40.6755C114.924 41.1927 110.658 37.5844 109.796 42.0876C110.556 42.3955 111.631 42.5597 113.035 42.5679C112.461 42.8922 110.95 43.0933 109.665 43.0933C112.502 47.1244 116.89 43.4956 118.889 40.6714L118.893 40.6755Z" fill="white"/>
<path fill-rule="evenodd" clip-rule="evenodd" d="M85.8154 3.0459C87.6216 7.81177 84.1734 14.1252 90.2529 13.8953C90.4335 12.8691 90.335 11.4898 89.9491 9.74931C90.532 10.3651 91.2299 12.1795 91.5993 13.7681C96.0081 9.09662 90.0477 4.70841 85.8154 3.0459Z" fill="white"/>
<path fill-rule="evenodd" clip-rule="evenodd" d="M119.62 23.1934C116.672 24.7697 112.214 23.2098 112.937 26.9905C113.627 27.0069 114.521 26.8139 115.622 26.4076C115.273 26.8304 114.152 27.4379 113.146 27.8156C116.615 30.1308 118.926 25.9929 119.616 23.1934H119.62Z" fill="white"/>
<path fill-rule="evenodd" clip-rule="evenodd" d="M24.5322 40.4336C29.6101 41.8785 35.9153 38.0035 36.1165 44.0501C35.0656 44.3046 33.6247 44.3046 31.7898 44.0501C32.4712 44.5837 34.4047 45.142 36.0795 45.3965C31.5517 50.1049 26.5642 44.5139 24.5322 40.4377V40.4336Z" fill="white"/>
<path fill-rule="evenodd" clip-rule="evenodd" d="M43.0456 26.9859C45.993 26.7602 48.9896 29.5844 49.8065 26.3004C49.2605 26.0418 48.4724 25.8817 47.4379 25.8201C47.8731 25.6067 48.9978 25.5122 49.942 25.5615C48.0126 22.4787 44.6342 24.9827 43.0415 26.9859H43.0456Z" fill="white"/>
<path fill-rule="evenodd" clip-rule="evenodd" d="M54.474 18.6447C54.3755 21.551 51.149 24.1659 54.4206 25.3317C54.7449 24.8268 54.9994 24.0756 55.1801 23.0699C55.3525 23.5214 55.3196 24.6298 55.1636 25.5452C58.5338 24.0058 56.35 20.4181 54.4781 18.6406L54.474 18.6447Z" fill="white"/>
<path fill-rule="evenodd" clip-rule="evenodd" d="M39.0435 36.3242C41.8348 34.9285 45.9521 36.5007 45.3815 32.9581C44.7412 32.9253 43.8996 33.0813 42.8611 33.4302C43.1977 33.0443 44.2609 32.5066 45.205 32.1782C42.0319 29.9287 39.7618 33.7299 39.0435 36.3242Z" fill="white"/>
<path fill-rule="evenodd" clip-rule="evenodd" d="M56.2759 3.43164C57.7414 6.39953 55.9064 10.6851 59.8185 10.1761C59.8718 9.50289 59.72 8.61622 59.3628 7.51608C59.7774 7.88143 60.3398 9.01029 60.6805 10.0119C63.2379 6.73204 59.1124 4.25674 56.2759 3.43164Z" fill="white"/>
<path fill-rule="evenodd" clip-rule="evenodd" d="M73.0693 12.2363C72.0677 14.6706 68.5087 15.9185 70.9183 17.893C71.3535 17.5605 71.805 17.0022 72.273 16.2017C72.273 16.6369 71.8994 17.5646 71.4766 18.2994C74.8222 18.0079 74.0956 14.3093 73.0693 12.2363Z" fill="white"/>
<path fill-rule="evenodd" clip-rule="evenodd" d="M75.1011 11.3996C76.6118 13.5711 80.3596 14.0432 78.4426 16.4734C77.9459 16.2394 77.3835 15.7878 76.7513 15.1064C76.8416 15.5292 77.4122 16.3625 77.9869 16.9865C74.6578 17.4011 74.5552 13.6327 75.1052 11.3955L75.1011 11.3996Z" fill="white"/>
<path fill-rule="evenodd" clip-rule="evenodd" d="M63.1232 15.1553C64.9869 16.0707 67.7167 15.0116 67.3514 17.3679C66.9244 17.3925 66.3662 17.294 65.6724 17.0641C65.8982 17.3186 66.6084 17.6716 67.2364 17.8851C65.1347 19.3957 63.6117 16.8753 63.1191 15.1553H63.1232Z" fill="white"/>
<path fill-rule="evenodd" clip-rule="evenodd" d="M39.113 52.0999C40.7919 50.3512 44.2237 50.4333 42.8732 47.9867C42.3929 48.1304 41.8182 48.4629 41.1491 48.9883C41.2968 48.6189 41.9331 47.9498 42.5407 47.4613C39.622 46.6403 38.9611 50.0105 39.113 52.0958V52.0999Z" fill="white"/>
<path fill-rule="evenodd" clip-rule="evenodd" d="M38.5303 39.5186C39.7864 41.6655 43.2756 42.3797 41.2888 44.5266C40.8414 44.2721 40.3447 43.8041 39.7987 43.1227C39.8521 43.5291 40.3283 44.3501 40.8168 44.9782C37.6559 45.13 37.8407 41.5834 38.5262 39.5186H38.5303Z" fill="white"/>
<path fill-rule="evenodd" clip-rule="evenodd" d="M49.3142 42.8598C52.3272 41.8336 56.2516 43.9846 56.1818 40.3353C55.5414 40.2121 54.6711 40.2573 53.5751 40.4666C53.9692 40.1259 55.1186 39.7277 56.1161 39.5266C53.2385 36.8255 50.4102 40.3435 49.3101 42.8598H49.3142Z" fill="white"/>
<path fill-rule="evenodd" clip-rule="evenodd" d="M85.8522 13.2998C83.8079 14.9993 80.0601 14.482 81.2505 17.3227C81.7924 17.2283 82.4615 16.9368 83.2538 16.4442C83.0485 16.8301 82.2727 17.4828 81.5502 17.9384C84.6495 19.2027 85.7701 15.5986 85.8481 13.2998H85.8522Z" fill="white"/>
<path fill-rule="evenodd" clip-rule="evenodd" d="M60.196 37.0058C63.521 36.8621 66.7886 40.1502 67.8312 36.4804C67.2278 36.1725 66.3452 35.959 65.1835 35.8523C65.6843 35.6265 66.9487 35.565 68.0119 35.6553C65.9594 32.1168 62.0597 34.8096 60.1919 37.0058H60.196Z" fill="white"/>
<path fill-rule="evenodd" clip-rule="evenodd" d="M53.4146 32.2154C55.2864 31.3164 56.0705 28.5497 57.774 30.2573C57.5359 30.6063 57.1172 30.9798 56.5138 31.3821C56.8586 31.3616 57.5729 31.0209 58.1312 30.6596C58.0942 33.2088 55.1181 32.8763 53.4187 32.2154H53.4146Z" fill="white"/>
<path fill-rule="evenodd" clip-rule="evenodd" d="M57.0557 19.8184C59.0794 20.311 61.5013 18.6896 61.6779 21.0664C61.2674 21.1813 60.7009 21.2059 59.9743 21.132C60.2534 21.3332 61.0211 21.522 61.6861 21.5959C59.9743 23.5211 57.9218 21.3906 57.0557 19.8143V19.8184Z" fill="white"/>
<path fill-rule="evenodd" clip-rule="evenodd" d="M81.0782 19.1494C82.909 21.7848 87.4655 22.3595 85.1339 25.311C84.5305 25.0277 83.845 24.4777 83.0773 23.6526C83.1882 24.1657 83.8819 25.1755 84.5757 25.939C80.5323 26.4398 80.4091 21.871 81.0782 19.1535V19.1494Z" fill="white"/>
<path fill-rule="evenodd" clip-rule="evenodd" d="M97.3545 18.5908C97.3175 21.1605 100.056 23.5948 97.1205 24.4938C96.8578 24.034 96.6649 23.3608 96.5458 22.47C96.3734 22.86 96.357 23.8411 96.4555 24.658C93.5451 23.1638 95.6263 20.0891 97.3504 18.5949L97.3545 18.5908Z" fill="white"/>
<path fill-rule="evenodd" clip-rule="evenodd" d="M96.0575 18.3692C93.9065 18.7059 91.5297 16.8053 91.1315 19.2682C91.5502 19.4242 92.1372 19.4981 92.9007 19.4817C92.5929 19.6664 91.7719 19.7978 91.0781 19.8183C92.6832 21.9693 95.0148 19.9332 96.0575 18.3692Z" fill="white"/>
<path fill-rule="evenodd" clip-rule="evenodd" d="M106.751 26.3663C103.849 26.1282 101.39 22.914 100.06 25.9846C100.548 26.3171 101.291 26.6003 102.285 26.822C101.825 26.9656 100.716 26.8794 99.8052 26.6824C101.18 29.9787 104.879 28.0699 106.751 26.3663Z" fill="white"/>
<path fill-rule="evenodd" clip-rule="evenodd" d="M35.1392 16.3291C37.7746 18.3118 42.3762 17.4539 41.0791 21.0375C40.4017 20.9513 39.5602 20.6311 38.5463 20.0687C38.8213 20.5326 39.8229 21.2961 40.7424 21.8174C36.9864 23.5621 35.3772 19.1738 35.1392 16.3291Z" fill="white"/>
<path fill-rule="evenodd" clip-rule="evenodd" d="M113.089 17.5811C111.073 20.2082 106.352 20.59 108.61 23.7385C109.246 23.4758 109.977 22.938 110.806 22.1253C110.667 22.6507 109.903 23.6564 109.152 24.4076C113.29 25.1137 113.643 20.4094 113.089 17.5811Z" fill="white"/>
<path fill-rule="evenodd" clip-rule="evenodd" d="M113.241 32.9258C110.765 31.6696 109.805 27.9505 107.477 30.1837C107.785 30.6557 108.331 31.1688 109.127 31.723C108.668 31.682 107.724 31.2099 106.993 30.7091C106.964 34.1162 110.95 33.755 113.241 32.9258Z" fill="white"/>
<path fill-rule="evenodd" clip-rule="evenodd" d="M103.729 40.0475C101.037 38.2495 100.474 33.7751 97.4283 36.0739C97.7157 36.665 98.2781 37.3382 99.1196 38.0894C98.59 37.9827 97.5597 37.3013 96.7838 36.6198C96.242 40.5935 100.934 40.7084 103.729 40.0475Z" fill="white"/>
<path fill-rule="evenodd" clip-rule="evenodd" d="M94.2675 30.9063C90.9343 30.8283 87.9007 27.3268 86.6035 30.9228C87.1864 31.2717 88.0526 31.5426 89.202 31.7273C88.6888 31.9203 87.4163 31.8956 86.3613 31.7355C88.1634 35.4095 92.2478 32.9752 94.2675 30.9063Z" fill="white"/>
<path fill-rule="evenodd" clip-rule="evenodd" d="M76.8991 25.0645C78.5616 27.8887 83.1592 28.8164 80.5485 31.6488C79.9573 31.3163 79.3005 30.7006 78.5822 29.8016C78.6561 30.3352 79.2841 31.4148 79.9327 32.244C75.7703 32.4534 76.0043 27.7819 76.8991 25.0645Z" fill="white"/>
<path fill-rule="evenodd" clip-rule="evenodd" d="M76.0907 41.4023C77.5767 43.4343 81.1563 43.8038 79.3829 46.1559C78.9067 45.9465 78.3567 45.5237 77.7409 44.8916C77.8353 45.2939 78.4018 46.0697 78.9601 46.6567C75.8034 47.1206 75.6187 43.5451 76.0907 41.4023Z" fill="white"/>
<path fill-rule="evenodd" clip-rule="evenodd" d="M69.8715 24.084C69.0382 25.9805 70.3025 28.6118 67.8437 28.3942C67.7903 27.9755 67.8601 27.4172 68.053 26.7194C67.8026 26.9575 67.4824 27.6799 67.2977 28.3162C65.6065 26.3335 68.1187 24.6751 69.8674 24.084H69.8715Z" fill="white"/>
<path fill-rule="evenodd" clip-rule="evenodd" d="M71.1071 0.225586C71.5628 3.30431 68.6729 6.65397 72.3427 7.27792C72.5849 6.68681 72.708 5.84939 72.7039 4.75747C72.9708 5.20081 73.1514 6.37483 73.1637 7.36823C76.4148 5.12282 73.4223 1.75263 71.1071 0.225586Z" fill="white"/>
<path fill-rule="evenodd" clip-rule="evenodd" d="M95.8193 3.79297C94.9326 5.92755 91.8005 7.00306 93.9023 8.74767C94.284 8.46032 94.6822 7.96772 95.0968 7.26988C95.0968 7.65164 94.7643 8.46443 94.3908 9.1048C97.3258 8.86261 96.7101 5.61558 95.8152 3.79297H95.8193Z" fill="white"/>
<path fill-rule="evenodd" clip-rule="evenodd" d="M112.157 14.5889C110.884 15.6397 108.561 15.3113 109.296 17.0765C109.632 17.019 110.047 16.8384 110.54 16.5346C110.412 16.7727 109.928 17.175 109.481 17.4582C111.402 18.2464 112.104 16.0133 112.157 14.5889Z" fill="white"/>
<path fill-rule="evenodd" clip-rule="evenodd" d="M27.1387 64.6002C31.416 63.6519 36.4528 67.1781 36.9167 62.1782C36.0588 61.9155 34.8642 61.8416 33.3331 61.9648C33.9242 61.5584 35.5539 61.1889 36.9537 61.0617C33.4357 56.9362 29.0229 61.3244 27.1387 64.6002Z" fill="white"/>
<path fill-rule="evenodd" clip-rule="evenodd" d="M39.5977 67.6288C43.2675 65.6584 44.7083 59.9976 48.1442 63.3103C47.6886 64.0328 46.8758 64.8251 45.6935 65.6871C46.375 65.6132 47.7748 64.8702 48.8626 64.0903C48.8872 69.242 42.9925 68.8192 39.6018 67.6288H39.5977Z" fill="white"/>
<path fill-rule="evenodd" clip-rule="evenodd" d="M125.03 56.1764C119.71 55.9096 114.39 61.1557 112.814 55.2569C113.791 54.7684 115.207 54.4359 117.067 54.2758C116.274 53.9064 114.247 53.7955 112.543 53.931C115.925 48.2702 122.099 52.6338 125.03 56.1764Z" fill="white"/>
<path fill-rule="evenodd" clip-rule="evenodd" d="M111.689 66.2454C107.288 63.7578 100.548 65.9457 101.722 60.2726C102.761 60.2726 104.099 60.5969 105.745 61.2496C105.228 60.601 103.557 59.6446 102.055 59.0329C107.329 55.671 110.708 61.9967 111.685 66.2454H111.689Z" fill="white"/>
<path fill-rule="evenodd" clip-rule="evenodd" d="M35.583 55.06C38.8957 54.7768 41.7692 51.0536 43.2141 54.6044C42.6477 54.9944 41.7979 55.3186 40.6609 55.5773C41.1822 55.7415 42.4465 55.6388 43.4892 55.4131C41.8472 59.2307 37.6807 57.0263 35.5871 55.0641L35.583 55.06Z" fill="white"/>
<path fill-rule="evenodd" clip-rule="evenodd" d="M112.662 46.8291C109.152 47.9169 104.674 45.302 104.657 49.5261C105.396 49.6862 106.402 49.6697 107.674 49.4604C107.211 49.8422 105.872 50.2609 104.711 50.462C107.966 53.6844 111.328 49.7026 112.662 46.8291Z" fill="white"/>
<path fill-rule="evenodd" clip-rule="evenodd" d="M22.8081 51.4059C27.1306 51.5331 31.3711 47.1778 32.7339 51.9478C31.9499 52.3624 30.8046 52.6538 29.294 52.818C29.9425 53.1054 31.5927 53.1587 32.972 53.0233C30.3079 57.6824 25.2341 54.2383 22.8081 51.4059Z" fill="white"/>
<path fill-rule="evenodd" clip-rule="evenodd" d="M126.216 43.172C122.739 43.9848 118.716 41.0621 118.265 45.245C118.959 45.4626 119.923 45.516 121.163 45.4051C120.679 45.75 119.353 46.066 118.22 46.1769C121.007 49.6127 124.64 45.9224 126.216 43.172Z" fill="white"/>
<path fill-rule="evenodd" clip-rule="evenodd" d="M67.0801 56.1024C72.7572 60.0965 72.7531 65.8968 78.459 68.8196C77.1249 63.126 78.537 58.044 73.0405 48.7257C70.5775 44.5551 75.643 40.8073 74.6578 36.1686C73.9518 32.8395 73.1718 28.792 75.056 25.7749C77.0962 22.5073 82.2931 19.8842 79.7357 11.584C80.3227 17.2201 77.1742 21.6781 73.4428 23.8866C71.0824 21.8013 69.346 17.9877 68.5004 12.8032C68.1391 18.3941 69.3912 22.22 72.0389 25.5121C71.5175 27.5318 71.0988 30.2082 71.0003 32.3223C69.1284 31.5423 67.429 30.0851 65.9019 27.9505C64.2271 20.4836 65.2903 17.803 56.3291 13.4107C62.1418 17.45 63.6073 22.1584 63.6114 28.3569C57.7207 28.3528 51.2061 26.2428 48.5256 20.6313C52.1954 29.7977 56.6534 28.7592 62.2526 30.8773C64.9619 31.8995 69.0422 34.0874 70.3394 36.6325C71.5422 38.9847 68.1925 42.322 67.7738 45.647C66.4971 44.7316 64.4857 44.4607 63.2994 44.5305C61.0088 38.4264 58.4966 34.3953 51.4401 34.6662C48.6734 30.6269 46.2638 28.4185 40.0981 28.5662C43.9855 29.3708 48.1315 31.8625 49.1495 35.5324C46.2104 39.0011 40.3074 39.5963 35.1064 36.497C39.1047 40.1258 43.1973 40.9058 47.3844 38.8369C53.2135 35.4626 58.1353 37.8353 59.9744 44.6331C52.1831 47.2356 54.3218 45.3556 48.3409 44.6824C43.4888 44.1364 39.5111 46.6979 35.8371 45.0395C39.8518 48.0607 43.3041 45.8153 47.5815 46.6568C50.3728 47.2069 51.6536 47.913 53.8333 48.3973C57.7536 49.2676 60.4752 47.5558 64.4611 50.8603C64.7402 51.0902 64.5924 50.9137 64.8798 51.1928C61.4398 51.2216 56.6534 50.7208 51.514 53.7174C49.1619 53.4259 46.3459 53.9473 43.0578 55.2896C45.373 54.7847 48.1726 54.3701 49.9911 55.0679C48.2916 57.7977 43.066 60.3141 35.7838 61.5825C41.2967 61.9643 46.8426 60.2936 50.8983 57.1574C51.2102 58.5572 49.7284 61.0489 47.9714 64.0414C50.0567 62.8592 51.945 59.9569 53.0739 56.2871C54.6215 53.1509 62.7247 53.3315 66.6737 55.8314C66.8132 55.9218 66.9487 56.0121 67.0801 56.1065V56.1024ZM75.4337 50.5689C77.6052 53.3438 77.9788 56.6319 78.3934 59.374C79.5592 55.7576 82.367 51.0327 86.5951 51.1148C90.0925 51.1805 94.5136 52.6173 95.6835 53.9062C97.777 57.1245 100.392 59.3987 102.719 59.961C100.211 57.5678 98.1013 55.581 98.0151 54.1484C102.777 56.049 108.569 56.1311 113.766 54.2469C106.418 55.0269 100.7 54.0458 98.3148 51.8866C99.8706 50.7167 102.678 50.3472 105.039 50.1953C101.513 49.8095 98.6555 50.0804 96.4757 51.0081C94.7311 49.2758 90.8273 48.2003 87.3134 47.2767C88.939 45.6429 90.2362 45.294 92.6581 45.5403C94.8953 45.7661 97.1818 46.1191 98.8115 45.6306C101.525 44.8219 102.194 43.496 110.375 42.6422C106.775 42.3877 103.996 42.478 102.034 42.9131C99.7515 43.4221 97.8961 44.5633 95.2812 43.4427C93.7008 43.0281 92.732 42.2194 92.379 42.2358C93.5079 35.1424 96.8288 33.64 103.512 34.305C107.075 37.0841 110.568 37.7532 114.644 36.337C108.951 36.4929 106.471 35.6637 103.93 31.8625C107.301 27.7658 108.052 29.494 113.019 27.3471C107.005 27.6385 106.147 26.7518 101.328 31.8584C93.672 32.6589 91.127 33.7385 89.2838 41.5954C86.788 42.1126 85.2528 42.5929 84.5262 43.1964C83.2126 37.4001 83.3398 31.92 88.3233 27.893C92.9332 27.8109 100.889 27.2773 102.994 20.5739C99.3903 25.3603 93.6638 26.3372 88.7297 25.5039C88.8241 18.7759 91.8618 16.8383 96.0242 13.9649C90.1418 15.8983 86.7305 19.4902 86.9029 25.6969C83.7626 28.5211 80.9631 30.8404 80.4828 35.7787C79.8752 42.0552 81.9811 43.7464 80.138 46.9606C79.395 48.2578 77.9254 48.5944 75.4378 50.5607L75.4337 50.5689ZM68.6769 83.4004C67.273 82.2305 66.0456 80.5557 65.1384 79.4597C64.8059 79.7963 64.2148 80.6008 63.8782 80.9169C56.3579 87.9528 47.5856 90.071 42.3312 92.9116C50.9557 91.7376 61.8093 89.0694 68.6728 83.4004H68.6769ZM65.6638 69.9484C65.2616 72.4278 65.1671 75.0797 65.2 76.9064C69.5636 84.9726 83.6067 91.089 92.2435 91.8156C82.7651 87.4931 69.7237 80.8307 65.6638 69.9484ZM69.0545 60.5193C57.7454 76.2208 92.223 91.832 106.75 91.9511C97.1038 88.2935 82.6954 81.7133 79.592 72.9697C79.4032 72.4361 79.2554 71.8942 79.1528 71.3441C78.5165 70.9911 77.9295 70.6381 77.3876 70.285C72.24 66.919 71.1727 63.4872 69.0545 60.5193ZM69.7237 84.6319C67.2155 87.4069 64.4857 88.7533 61.1032 90.2311C64.8921 89.4347 70.3189 88.4085 74.0175 87.3166C72.9912 86.9184 71.6202 85.9537 69.7237 84.6278V84.6319Z" fill="white"/>
</svg>
