<svg width="47" height="48" viewBox="0 0 47 48" fill="none" xmlns="http://www.w3.org/2000/svg">
<path d="M25.4237 0V5.40694H37.9621L28.6549 14.9122C25.6675 12.6487 21.9687 11.3092 17.9633 11.3092C8.04242 11.3093 0 19.5227 0 29.6546C0 39.7865 8.04242 48 17.9632 48C27.8839 48 35.9264 39.7865 35.9264 29.6546C35.9264 25.5639 34.6149 21.7864 32.3985 18.7354L41.7057 9.23025V22.0355H47V0H25.4237ZM17.9632 41.958C11.3097 41.958 5.91603 36.4495 5.91603 29.6545C5.91603 22.8595 11.3097 17.3511 17.9632 17.3511C24.6166 17.3511 30.0103 22.8595 30.0103 29.6545C30.0103 36.4496 24.6166 41.958 17.9632 41.958Z" fill="#7D4666"/>
</svg>
