<svg width="414" height="665" viewBox="0 0 414 665" fill="none" xmlns="http://www.w3.org/2000/svg">
  <path d="M149.342 701.771C143.925 678.806 134.083 655.891 116.07 640.669C98.0573 625.447 70.3784 619.966 50.3671 632.473C51.6241 610.966 45.9928 588.101 30.6826 572.93C15.3725 557.758 -10.798 552.818 -28.2828 565.388C-30.0068 555.878 -34.0623 546.945 -40.0862 539.388C-46.1101 531.831 -53.9142 525.885 -62.7997 522.084C-80.5735 514.668 -112.388 519.822 -117.843 528.105L-104.23 699.282L149.342 701.771Z" fill="white"/>
  <path d="M323.611 709.622C322.027 701.632 322.494 693.371 324.967 685.61C327.44 677.849 331.839 670.842 337.754 665.241C343.669 659.641 350.906 655.631 358.791 653.585C366.675 651.539 374.949 651.524 382.841 653.542C382.324 646.437 383.281 639.303 385.651 632.585C388.022 625.868 391.756 619.713 396.618 614.507C401.479 609.301 407.365 605.156 413.904 602.331C420.444 599.507 427.497 598.065 434.62 598.096C441.277 569.12 471.299 547.479 500.898 550.332V712.211L323.611 709.622Z" fill="white"/>
  <path d="M-27.307 666.247C-28.2041 661.441 -27.8577 656.486 -26.3008 651.851C-24.7438 647.217 -22.028 643.058 -18.4112 639.768C-14.7944 636.479 -10.3968 634.169 -5.63593 633.057C-0.875093 631.946 4.09085 632.07 8.79025 633.418C11.7425 620.951 25.6915 612.262 38.2224 615.079C50.7532 617.896 59.6099 631.716 56.9736 644.26C61.0606 642.457 65.5354 641.712 69.9861 642.093C74.4367 642.474 78.72 643.968 82.4414 646.439C89.7898 651.434 94.3019 657.184 93.8507 666.079" fill="#7FCCB1"/>
  <path d="M54.0276 659.621L53.976 659.479L53.8407 659.053C53.6768 658.507 53.481 657.971 53.2541 657.448C52.4091 655.532 51.1907 653.803 49.6702 652.363C47.4114 650.211 44.5347 648.822 41.4451 648.392C37.6608 647.965 33.8526 648.957 30.7578 651.176C29.5605 652.03 28.5017 653.063 27.6186 654.238L27.393 654.548L27.335 654.167C26.8467 650.925 25.5866 647.848 23.6608 645.195C22.8357 644.055 21.9055 642.996 20.8826 642.03C19.9919 641.203 19.0347 640.45 18.0206 639.78C16.5639 638.813 14.9889 638.038 13.3345 637.472C12.7608 637.253 12.2902 637.163 11.9808 637.06C11.8215 637.019 11.6644 636.969 11.5103 636.912C11.6745 636.926 11.8366 636.958 11.9937 637.008C12.457 637.104 12.9152 637.222 13.3667 637.363C15.0489 637.891 16.6514 638.646 18.1302 639.606C19.1684 640.268 20.1475 641.019 21.0567 641.849C22.0997 642.818 23.0473 643.884 23.8864 645.033C25.8597 647.712 27.1496 650.832 27.6444 654.122L27.3608 654.051C28.2661 652.844 29.3534 651.785 30.5838 650.912C33.7539 648.633 37.6658 647.629 41.5418 648.102C44.6776 648.554 47.5891 649.989 49.8571 652.201C51.3877 653.67 52.5952 655.442 53.4023 657.403C53.6869 658.119 53.8965 658.862 54.0276 659.621Z" fill="#263238"/>
  <path d="M393.029 632.938C393.955 633.093 394.839 633.433 395.63 633.939C396.421 634.445 397.101 635.105 397.629 635.881C398.684 637.438 399.366 639.217 399.624 641.08C400.222 644.656 399.252 648.713 397.925 652.082C394.287 650.377 392.341 646.127 391.495 643.913C390.154 640.413 389.852 633.268 393.029 632.91" fill="#7FCCB1"/>
  <path d="M403.296 657.116C402.748 656.221 402.446 655.196 402.422 654.147C402.398 653.097 402.652 652.06 403.158 651.14C403.675 650.233 404.367 649.437 405.193 648.798C406.019 648.16 406.964 647.691 407.972 647.42C408.426 647.244 408.914 647.17 409.4 647.204C409.886 647.237 410.358 647.376 410.785 647.612C411.14 647.894 411.414 648.266 411.576 648.689C411.738 649.113 411.783 649.572 411.706 650.019C411.545 650.915 411.152 651.752 410.565 652.447C408.66 654.895 406.377 656.923 403.275 657.109" fill="#7D4666"/>
  <path d="M402.381 668.435C402.303 668.19 402.261 667.936 402.257 667.679C402.202 667.197 402.147 666.489 402.099 665.616C401.927 663.331 402.066 661.034 402.512 658.787C402.975 656.517 404.047 654.416 405.613 652.708C406.094 652.2 406.637 651.754 407.229 651.381C407.439 651.232 407.671 651.116 407.917 651.037C407.182 651.604 406.492 652.227 405.854 652.901C404.397 654.617 403.394 656.672 402.938 658.877C402.505 661.093 402.328 663.352 402.409 665.609C402.452 666.551 402.443 667.494 402.381 668.435Z" fill="#263238"/>
  <path d="M393.875 638.356C394.063 638.731 394.217 639.123 394.335 639.525C394.603 640.289 394.982 641.396 395.429 642.764C396.323 645.515 397.492 649.325 398.695 653.561C399.899 657.797 400.875 661.668 401.542 664.481C401.879 665.856 402.14 667.019 402.305 667.809C402.413 668.215 402.484 668.629 402.519 669.047C402.361 668.66 402.237 668.259 402.147 667.851L401.267 664.55C400.531 661.758 399.5 657.907 398.303 653.671C397.107 649.435 395.979 645.618 395.154 642.854C394.762 641.52 394.466 640.419 394.184 639.574C394.045 639.178 393.942 638.771 393.875 638.356Z" fill="#263238"/>
  <path d="M398.448 660.513C397.538 658.496 396.161 656.725 394.431 655.346C392.7 653.967 390.666 653.021 388.497 652.584C387.39 652.371 386.035 652.406 385.416 653.341C384.797 654.276 385.327 655.548 385.994 656.456C387.408 658.332 389.346 659.747 391.564 660.523C393.781 661.299 396.179 661.401 398.454 660.816" fill="#7D4666"/>
  <path d="M389.707 655.755C389.939 655.747 390.17 655.773 390.395 655.83C390.679 655.869 390.959 655.929 391.234 656.009C391.601 656.098 391.964 656.205 392.32 656.332C393.253 656.661 394.151 657.08 395.002 657.584C397.091 658.829 398.861 660.543 400.174 662.59C400.706 663.423 401.153 664.308 401.508 665.231C401.647 665.581 401.767 665.939 401.865 666.303C401.957 666.575 402.026 666.853 402.071 667.136C402.139 667.37 402.172 667.613 402.168 667.858C402.092 667.858 401.893 666.86 401.239 665.341C400.859 664.453 400.399 663.601 399.864 662.796C398.55 660.822 396.826 659.155 394.81 657.907C393.993 657.394 393.129 656.959 392.231 656.607C390.718 656.002 389.693 655.865 389.707 655.755Z" fill="#263238"/>
  <defs>
    <filter id="filter0_f_133_5518" x="-670.576" y="0.208801" width="1472.03" height="1472.03" filterUnits="userSpaceOnUse" color-interpolation-filters="sRGB">
      <feFlood flood-opacity="0" result="BackgroundImageFix"/>
      <feBlend mode="normal" in="SourceGraphic" in2="BackgroundImageFix" result="shape"/>
      <feGaussianBlur stdDeviation="264.9" result="effect1_foregroundBlur_133_5518"/>
    </filter>
  </defs>
</svg>
