<svg width="414" height="517" viewBox="0 0 414 517" fill="none" xmlns="http://www.w3.org/2000/svg">
<path d="M178.257 53.083C175.609 54.9436 173.478 57.4484 172.066 60.361C170.655 63.2736 170.008 66.498 170.189 69.7297C170.369 72.9614 171.369 76.0939 173.096 78.8315C174.823 81.5691 177.219 83.8215 180.058 85.3762C182.26 80.1863 183.245 74.5614 182.937 68.9321C182.63 63.3029 181.038 57.8187 178.284 52.8995" fill="#7FCCB1"/>
<path d="M373.282 419.465C371.159 419.101 368.978 419.283 366.944 419.993C364.91 420.703 363.09 421.918 361.655 423.524C360.219 425.13 359.215 427.074 358.736 429.175C358.258 431.275 358.321 433.463 358.92 435.532C362.402 434.116 365.516 431.925 368.025 429.124C370.533 426.324 372.37 422.989 373.396 419.372" fill="#7FCCB1"/>
<path d="M373.382 312.232C371.817 311.819 370.173 311.813 368.606 312.214C367.038 312.615 365.599 313.41 364.425 314.523C363.251 315.637 362.38 317.031 361.897 318.575C361.413 320.119 361.331 321.762 361.66 323.346C364.352 322.513 366.818 321.075 368.867 319.141C370.917 317.208 372.497 314.83 373.485 312.191" fill="#455A64"/>
<path d="M34.3724 208.417C32.8084 208.01 31.1662 208.007 29.601 208.41C28.0357 208.813 26.5988 209.608 25.426 210.72C24.2531 211.832 23.3828 213.225 22.8972 214.766C22.4116 216.308 22.3268 217.948 22.6506 219.531C25.3439 218.695 27.8103 217.254 29.8613 215.318C31.9122 213.382 33.4933 211.003 34.4836 208.362" fill="#7FCCB1"/>
</svg>
