<svg width="414" height="665" viewBox="0 0 414 665" fill="none" xmlns="http://www.w3.org/2000/svg">
<path d="M149.342 701.771C143.925 678.806 134.083 655.891 116.07 640.669C98.0573 625.447 70.3784 619.966 50.3671 632.473C51.6241 610.966 45.9928 588.101 30.6826 572.93C15.3725 557.758 -10.798 552.818 -28.2828 565.388C-30.0068 555.878 -34.0623 546.945 -40.0862 539.388C-46.1101 531.831 -53.9142 525.885 -62.7997 522.084C-80.5735 514.668 -112.388 519.822 -117.843 528.105L-104.23 699.282L149.342 701.771Z" fill="white"/>
<path d="M-117.843 526.873C-117.704 526.755 -117.557 526.645 -117.403 526.546L-116.058 525.641C-115.332 525.135 -114.581 524.665 -113.808 524.234C-112.878 523.731 -111.847 523.065 -110.59 522.499C-98.3305 516.425 -84.333 514.829 -71.0204 517.986C-64.5953 519.51 -58.4977 522.18 -53.0203 525.868C-50.0345 527.907 -47.2257 530.195 -44.6236 532.706C-41.9282 535.419 -39.476 538.363 -37.2954 541.505C-32.6337 548.302 -29.4754 556.016 -28.0314 564.13L-28.4839 563.942C-18.7673 556.966 -5.20442 554.954 7.36547 558.336C13.8115 559.971 19.8866 562.821 25.265 566.732C26.6349 567.727 27.9484 568.797 29.1994 569.938C29.8153 570.516 30.4564 571.069 31.0723 571.672L32.8321 573.545C33.4297 574.158 33.9921 574.804 34.5164 575.481L36.1505 577.467L37.6463 579.579C38.1724 580.267 38.6592 580.985 39.1045 581.728C41.5152 585.496 43.5328 589.502 45.1254 593.682C46.731 597.76 47.9924 601.964 48.8964 606.252C49.7491 610.425 50.3285 614.649 50.6311 618.897C50.8633 623.013 50.8633 627.138 50.6311 631.254L50.166 630.99C58.723 625.86 68.6454 623.474 78.5991 624.152C83.2298 624.426 87.8162 625.21 92.2751 626.49C96.5042 627.748 100.604 629.406 104.518 631.442C111.628 635.232 118.011 640.249 123.373 646.262C128.003 651.404 132.046 657.045 135.428 663.081C138.176 667.995 140.57 673.099 142.592 678.353C144.352 682.954 145.697 686.963 146.64 690.269C148.563 696.869 149.28 700.539 149.28 700.539L149.091 699.873C148.978 699.42 148.802 698.767 148.576 697.912C148.136 696.177 147.444 693.613 146.439 690.37C145.433 687.127 144.101 683.079 142.316 678.491C140.262 673.27 137.852 668.197 135.101 663.307C131.71 657.312 127.663 651.714 123.034 646.614C117.665 640.645 111.282 635.674 104.179 631.932C100.343 629.915 96.3285 628.258 92.1871 626.98C87.7639 625.719 83.2157 624.948 78.6242 624.68C68.7964 624.028 59.0038 626.391 50.5556 631.455L50.0654 631.756V631.191C50.2767 627.095 50.2557 622.991 50.0026 618.897C49.7005 614.674 49.121 610.475 48.2679 606.328C47.3847 602.076 46.1485 597.905 44.5724 593.858C42.9938 589.717 40.9931 585.749 38.6017 582.017C38.1617 581.276 37.6715 580.572 37.1687 579.88L35.6226 577.857L34.0136 575.871C33.4901 575.205 32.9321 574.567 32.3418 573.96L30.5946 572.112C30.0038 571.522 29.3376 570.981 28.7469 570.403C27.5127 569.275 26.216 568.217 24.8628 567.235C19.5481 563.368 13.546 560.549 7.17691 558.926C-5.24214 555.583 -18.6291 557.556 -28.1822 564.407L-28.5593 564.671L-28.6347 564.231C-30.0594 556.205 -33.1744 548.574 -37.773 541.844C-41.9278 535.719 -47.2035 530.435 -53.322 526.27C-58.7429 522.596 -64.7804 519.926 -71.1461 518.389C-76.5807 517.068 -82.1781 516.543 -87.7635 516.83C-95.6612 517.222 -103.399 519.202 -110.515 522.65C-111.772 523.203 -112.803 523.844 -113.733 524.347C-114.663 524.849 -115.405 525.315 -116.008 525.704L-117.378 526.572L-117.843 526.873Z" fill="#263238"/>
<path d="M323.611 709.622C322.027 701.632 322.494 693.371 324.967 685.61C327.44 677.849 331.839 670.842 337.754 665.241C343.669 659.641 350.906 655.631 358.791 653.585C366.675 651.539 374.949 651.524 382.841 653.542C382.324 646.437 383.281 639.303 385.651 632.585C388.022 625.868 391.756 619.713 396.618 614.507C401.479 609.301 407.365 605.156 413.904 602.331C420.444 599.507 427.497 598.065 434.62 598.096C441.277 569.12 471.299 547.479 500.898 550.332V712.211L323.611 709.622Z" fill="white"/>
<path d="M500.898 550.458H500.465H499.207L497.157 550.384C496.218 550.32 495.275 550.32 494.336 550.384L490.785 550.596L489.792 550.659L488.735 550.818L486.548 551.156C485.787 551.272 484.994 551.378 484.191 551.526L481.729 552.149L479.098 552.804L476.393 553.724C467.543 556.769 459.45 561.677 452.659 568.116C451.637 569.012 450.674 569.972 449.774 570.99C448.854 572.047 447.893 573.03 446.973 574.161L444.406 577.532C444.184 577.817 443.951 578.102 443.75 578.409L443.169 579.339L441.986 581.209C438.726 586.505 436.322 592.282 434.863 598.328V598.518H434.663C427.141 598.524 419.712 600.173 412.894 603.347C409.303 605.009 405.908 607.065 402.771 609.476C399.565 611.968 396.674 614.839 394.158 618.025C386.22 628.125 382.281 640.795 383.094 653.616V653.964L382.756 653.88C376.185 652.248 369.343 652.021 362.678 653.214C356.586 654.277 350.746 656.474 345.464 659.692C343.043 661.167 340.765 662.865 338.659 664.764C337.602 665.641 336.715 666.656 335.764 667.586C334.813 668.515 333.999 669.541 333.238 670.566C330.338 674.294 327.986 678.418 326.253 682.813C324.835 686.389 323.846 690.121 323.305 693.93C323.146 694.754 323.115 695.568 323.02 696.35C322.925 697.132 322.872 697.871 322.861 698.59C322.851 699.308 322.808 699.995 322.777 700.703C322.745 701.411 322.777 701.971 322.829 702.563C322.829 703.736 322.956 704.772 323.03 705.67C323.08 706.424 323.168 707.175 323.294 707.921C323.39 708.512 323.453 708.977 323.506 709.294C323.559 709.611 323.559 709.77 323.559 709.77C323.559 709.77 323.559 709.611 323.463 709.305C323.368 708.999 323.316 708.523 323.21 707.931C323.104 707.339 322.967 706.579 322.893 705.68C322.819 704.782 322.671 703.747 322.66 702.563C322.66 701.982 322.66 701.358 322.586 700.703L322.65 698.59C322.659 697.837 322.708 697.086 322.798 696.339C322.882 695.557 322.914 694.733 323.062 693.909C323.578 690.073 324.55 686.312 325.957 682.707C327.681 678.273 330.034 674.109 332.942 670.344C333.703 669.287 334.612 668.346 335.478 667.332C336.345 666.318 337.328 665.356 338.395 664.468C340.513 662.547 342.805 660.828 345.243 659.333C350.564 656.075 356.45 653.846 362.594 652.76C369.316 651.543 376.22 651.763 382.851 653.404L382.534 653.669C381.683 640.707 385.662 627.889 393.704 617.687C396.24 614.459 399.164 611.555 402.411 609.043C405.575 606.606 409.003 604.533 412.63 602.861C419.519 599.662 427.024 598.003 434.62 598L434.388 598.191C435.867 592.098 438.299 586.278 441.595 580.945L442.789 579.064L443.381 578.123C443.581 577.817 443.824 577.542 444.036 577.246L446.667 573.801C447.597 572.745 448.569 571.688 449.488 570.631C450.402 569.612 451.376 568.649 452.405 567.746C459.253 561.29 467.413 556.388 476.329 553.375L479.055 552.456L481.687 551.822L484.17 551.219C484.984 551.071 485.776 550.976 486.537 550.86L488.735 550.532L489.792 550.384L490.796 550.332L494.357 550.162C495.296 550.097 496.239 550.097 497.178 550.162L499.292 550.279L500.549 550.353L500.898 550.458Z" fill="#263238"/>
<g opacity="0.6" filter="url(#filter0_f_133_5518)">
</g>
<path d="M-27.307 666.247C-28.2041 661.441 -27.8577 656.486 -26.3008 651.851C-24.7438 647.217 -22.028 643.058 -18.4112 639.768C-14.7944 636.479 -10.3968 634.169 -5.63593 633.057C-0.875093 631.946 4.09085 632.07 8.79025 633.418C11.7425 620.951 25.6915 612.262 38.2224 615.079C50.7532 617.896 59.6099 631.716 56.9736 644.26C61.0606 642.457 65.5354 641.712 69.9861 642.093C74.4367 642.474 78.72 643.968 82.4414 646.439C89.7898 651.434 94.3019 657.184 93.8507 666.079" fill="#7FCCB1"/>
<path d="M54.0276 659.621L53.976 659.479L53.8407 659.053C53.6768 658.507 53.481 657.971 53.2541 657.448C52.4091 655.532 51.1907 653.803 49.6702 652.363C47.4114 650.211 44.5347 648.822 41.4451 648.392C37.6608 647.965 33.8526 648.957 30.7578 651.176C29.5605 652.03 28.5017 653.063 27.6186 654.238L27.393 654.548L27.335 654.167C26.8467 650.925 25.5866 647.848 23.6608 645.195C22.8357 644.055 21.9055 642.996 20.8826 642.03C19.9919 641.203 19.0347 640.45 18.0206 639.78C16.5639 638.813 14.9889 638.038 13.3345 637.472C12.7608 637.253 12.2902 637.163 11.9808 637.06C11.8215 637.019 11.6644 636.969 11.5103 636.912C11.6745 636.926 11.8366 636.958 11.9937 637.008C12.457 637.104 12.9152 637.222 13.3667 637.363C15.0489 637.891 16.6514 638.646 18.1302 639.606C19.1684 640.268 20.1475 641.019 21.0567 641.849C22.0997 642.818 23.0473 643.884 23.8864 645.033C25.8597 647.712 27.1496 650.832 27.6444 654.122L27.3608 654.051C28.2661 652.844 29.3534 651.785 30.5838 650.912C33.7539 648.633 37.6658 647.629 41.5418 648.102C44.6776 648.554 47.5891 649.989 49.8571 652.201C51.3877 653.67 52.5952 655.442 53.4023 657.403C53.6869 658.119 53.8965 658.862 54.0276 659.621Z" fill="#263238"/>
<g opacity="0.3">
<path d="M13.0381 636.821C16.3373 636.215 19.7435 636.662 22.7753 638.097C25.807 639.533 28.3109 641.885 29.9329 644.821C33.1558 641.965 38.0676 641.546 41.9932 643.274C45.9188 645.001 48.8194 648.592 50.3729 652.595C48.9416 650.894 47.1269 649.557 45.0783 648.694C43.0296 647.831 40.8053 647.467 38.5883 647.631C36.3714 647.795 34.2251 648.483 32.3259 649.639C30.4268 650.794 28.829 652.384 27.6639 654.277C26.9125 650.577 25.288 647.11 22.9256 644.164C20.5632 641.219 17.5313 638.88 14.0823 637.344" fill="black"/>
</g>
<path d="M393.029 632.938C393.955 633.093 394.839 633.433 395.63 633.939C396.421 634.445 397.101 635.105 397.629 635.881C398.684 637.438 399.366 639.217 399.624 641.08C400.222 644.656 399.252 648.713 397.925 652.082C394.287 650.377 392.341 646.127 391.495 643.913C390.154 640.413 389.852 633.268 393.029 632.91" fill="#7FCCB1"/>
<path d="M403.296 657.116C402.748 656.221 402.446 655.196 402.422 654.147C402.398 653.097 402.652 652.06 403.158 651.14C403.675 650.233 404.367 649.437 405.193 648.798C406.019 648.16 406.964 647.691 407.972 647.42C408.426 647.244 408.914 647.17 409.4 647.204C409.886 647.237 410.358 647.376 410.785 647.612C411.14 647.894 411.414 648.266 411.576 648.689C411.738 649.113 411.783 649.572 411.706 650.019C411.545 650.915 411.152 651.752 410.565 652.447C408.66 654.895 406.377 656.923 403.275 657.109" fill="#7D4666"/>
<path d="M402.381 668.435C402.303 668.19 402.261 667.936 402.257 667.679C402.202 667.197 402.147 666.489 402.099 665.616C401.927 663.331 402.066 661.034 402.512 658.787C402.975 656.517 404.047 654.416 405.613 652.708C406.094 652.2 406.637 651.754 407.229 651.381C407.439 651.232 407.671 651.116 407.917 651.037C407.182 651.604 406.492 652.227 405.854 652.901C404.397 654.617 403.394 656.672 402.938 658.877C402.505 661.093 402.328 663.352 402.409 665.609C402.452 666.551 402.443 667.494 402.381 668.435Z" fill="#263238"/>
<path d="M393.875 638.356C394.063 638.731 394.217 639.123 394.335 639.525C394.603 640.289 394.982 641.396 395.429 642.764C396.323 645.515 397.492 649.325 398.695 653.561C399.899 657.797 400.875 661.668 401.542 664.481C401.879 665.856 402.14 667.019 402.305 667.809C402.413 668.215 402.484 668.629 402.519 669.047C402.361 668.66 402.237 668.259 402.147 667.851L401.267 664.55C400.531 661.758 399.5 657.907 398.303 653.671C397.107 649.435 395.979 645.618 395.154 642.854C394.762 641.52 394.466 640.419 394.184 639.574C394.045 639.178 393.942 638.771 393.875 638.356Z" fill="#263238"/>
<path d="M398.448 660.513C397.538 658.496 396.161 656.725 394.431 655.346C392.7 653.967 390.666 653.021 388.497 652.584C387.39 652.371 386.035 652.406 385.416 653.341C384.797 654.276 385.327 655.548 385.994 656.456C387.408 658.332 389.346 659.747 391.564 660.523C393.781 661.299 396.179 661.401 398.454 660.816" fill="#7D4666"/>
<path d="M389.707 655.755C389.939 655.747 390.17 655.773 390.395 655.83C390.679 655.869 390.959 655.929 391.234 656.009C391.601 656.098 391.964 656.205 392.32 656.332C393.253 656.661 394.151 657.08 395.002 657.584C397.091 658.829 398.861 660.543 400.174 662.59C400.706 663.423 401.153 664.308 401.508 665.231C401.647 665.581 401.767 665.939 401.865 666.303C401.957 666.575 402.026 666.853 402.071 667.136C402.139 667.37 402.172 667.613 402.168 667.858C402.092 667.858 401.893 666.86 401.239 665.341C400.859 664.453 400.399 663.601 399.864 662.796C398.55 660.822 396.826 659.155 394.81 657.907C393.993 657.394 393.129 656.959 392.231 656.607C390.718 656.002 389.693 655.865 389.707 655.755Z" fill="#263238"/>
<defs>
    <filter id="filter0_f_133_5518" x="-670.576" y="0.208801" width="1472.03" height="1472.03" filterUnits="userSpaceOnUse" color-interpolation-filters="sRGB">
      <feFlood flood-opacity="0" result="BackgroundImageFix"/>
      <feBlend mode="normal" in="SourceGraphic" in2="BackgroundImageFix" result="shape"/>
      <feGaussianBlur stdDeviation="264.9" result="effect1_foregroundBlur_133_5518"/>
    </filter>
  </defs>
</svg>
