<svg width="414" height="896" viewBox="0 0 414 896" fill="none" xmlns="http://www.w3.org/2000/svg">
<g opacity="0.5">
<path d="M-109.618 89.4284C-109.618 89.4284 -93.7233 157.833 -61.873 168.051C-33.0029 177.316 0.692429 167.686 27.3324 182.243C44.8896 191.954 55.574 210.444 70.6781 223.662C97.7235 247.362 139.954 251.802 171.338 234.245C185.307 226.44 197.938 214.519 213.914 212.998C228.227 211.64 241.669 219.08 255.353 223.439C280.582 231.393 307.916 229.211 331.563 217.357C345.755 210.079 358.183 199.475 372.963 193.434C392.446 185.466 414.18 186.115 435.123 184.027C464.682 181.067 495.539 171.051 513.704 147.534C523.963 134.234 529.295 117.731 539.878 104.695C555.165 85.7588 579.088 76.5139 598.936 62.4438C618.784 48.3736 635.895 23.5989 627.097 0.912325L-239.27 0C-239.27 0 -211.272 129.003 -109.618 89.4284Z" fill="#F5F5F5"/>
<path d="M397.558 1.05469L381.44 168.416C381.44 168.416 380.71 179.972 369.803 182.973C358.895 185.973 347.501 139.181 347.501 139.181L336.188 144.128L362.545 202.922L376.453 249.451L383.954 363.654L365.464 923.844L426.387 924.006C426.387 924.006 420.163 390.659 421.623 367.527C423.083 344.394 470.463 276.517 470.463 276.517L468.963 261.332L419.535 327.506L445.627 1.09524L397.558 1.05469Z" fill="#E6E6E6"/>
<path d="M84.5245 0C84.5245 0 36.6156 105.989 29.4541 163.488L-1.05978 83.5708C-11.8331 91.6456 20.4037 197.51 20.4037 197.51C20.4037 197.51 -3.71677 315.954 -3.32237 376.982C-2.92797 438.01 -3.32237 680.253 -3.32237 680.253L-61.2573 943.69L4.58633 943.877C4.58633 943.877 33.0452 717.949 31.2393 694.617C29.4334 671.286 29.4541 371.585 29.4541 371.585C29.4541 371.585 41.9088 229.83 52.7859 188.543C63.663 147.256 129.05 0 129.05 0H84.5245Z" fill="#EBEBEB"/>
<path d="M211.501 65.6875C208.424 71.5367 207.305 78.2189 208.309 84.7514C209.312 91.2839 212.386 97.322 217.076 101.978C220.672 96.4054 222.172 89.7378 221.311 83.1625C220.449 76.5872 217.282 70.5311 212.373 66.0727" fill="#E0E0E0"/>
</g>
</svg>
