<svg width="36" height="36" viewBox="0 0 36 36" fill="none" xmlns="http://www.w3.org/2000/svg">
<circle cx="18" cy="18" r="18" fill="#7D4666"/>
<path d="M17.2506 11.3871C17.2817 11.3113 17.3346 11.2465 17.4027 11.2009C17.4707 11.1552 17.5508 11.1309 17.6327 11.1309C17.7146 11.1309 17.7947 11.1552 17.8627 11.2009C17.9307 11.2465 17.9836 11.3113 18.0147 11.3871L19.5759 15.1422C19.6052 15.2124 19.6532 15.2733 19.7148 15.318C19.7764 15.3627 19.8491 15.3896 19.9249 15.3956L23.979 15.7204C24.3456 15.7498 24.494 16.2075 24.2148 16.4462L21.1261 19.0926C21.0684 19.142 21.0254 19.2063 21.0019 19.2785C20.9783 19.3506 20.975 19.4279 20.9924 19.5018L21.9365 23.4582C21.9555 23.5375 21.9505 23.6208 21.9222 23.6973C21.8939 23.7739 21.8436 23.8403 21.7776 23.8883C21.7115 23.9362 21.6327 23.9635 21.5512 23.9667C21.4697 23.97 21.389 23.9489 21.3194 23.9063L17.8479 21.7867C17.7831 21.7471 17.7086 21.7262 17.6327 21.7262C17.5567 21.7262 17.4822 21.7471 17.4174 21.7867L13.946 23.9071C13.8764 23.9497 13.7957 23.9707 13.7142 23.9675C13.6326 23.9643 13.5538 23.9369 13.4878 23.889C13.4218 23.841 13.3714 23.7746 13.3431 23.698C13.3148 23.6215 13.3099 23.5383 13.3288 23.4589L14.2729 19.5018C14.2904 19.4279 14.2872 19.3506 14.2636 19.2784C14.24 19.2062 14.197 19.1419 14.1392 19.0926L11.0506 16.4462C10.9884 16.3932 10.9433 16.3229 10.9211 16.2443C10.8989 16.1656 10.9005 16.0822 10.9257 16.0044C10.951 15.9267 10.9987 15.8582 11.0629 15.8076C11.1271 15.7571 11.2049 15.7267 11.2864 15.7204L15.3404 15.3956C15.4163 15.3896 15.489 15.3627 15.5506 15.318C15.6121 15.2733 15.6602 15.2124 15.6894 15.1422L17.2506 11.3871Z" fill="white"/>
</svg>
