<svg width="38" height="57" viewBox="0 0 38 57" fill="none" xmlns="http://www.w3.org/2000/svg">
<g clip-path="url(#clip0_133_4173)">
<path d="M19.0001 37.9088C29.4688 37.9088 37.9554 29.4222 37.9554 18.9534C37.9554 8.48466 29.4688 -0.00195312 19.0001 -0.00195312C8.53129 -0.00195312 0.0446777 8.48466 0.0446777 18.9534C0.0446777 29.4222 8.53129 37.9088 19.0001 37.9088Z" fill="#7D4666"/>
<g clip-path="url(#clip1_133_4173)">
<mask id="mask0_133_4173" style="mask-type:luminance" maskUnits="userSpaceOnUse" x="9" y="8" width="23" height="22">
<path d="M31.4565 8.12207H9.79321V29.7854H31.4565V8.12207Z" fill="white"/>
<path d="M21.0479 15.146C21.2814 15.146 21.471 15.3355 21.471 15.5691C21.471 15.8026 21.2814 15.9922 21.0479 15.9922C20.8143 15.9922 20.6248 15.8026 20.6248 15.5691C20.6248 15.3355 20.8143 15.146 21.0479 15.146Z" fill="white"/>
<path d="M21.0479 17.6841C21.2814 17.6841 21.471 17.8736 21.471 18.1072C21.471 18.3407 21.2814 18.5303 21.0479 18.5303C20.8143 18.5303 20.6248 18.3407 20.6248 18.1072C20.6248 17.8736 20.8143 17.6841 21.0479 17.6841Z" fill="white"/>
<path d="M15.1245 27.2466C15.3581 27.2466 15.5476 27.4361 15.5476 27.6697C15.5476 27.9032 15.3581 28.0928 15.1245 28.0928C14.891 28.0928 14.7014 27.9032 14.7014 27.6697C14.7014 27.4361 14.891 27.2466 15.1245 27.2466Z" fill="white"/>
</mask>
<g mask="url(#mask0_133_4173)">
<mask id="mask1_133_4173" style="mask-type:luminance" maskUnits="userSpaceOnUse" x="9" y="8" width="23" height="22">
<path d="M9.79321 8.12193H31.4564V29.7852H9.79321V8.12193Z" fill="white"/>
</mask>
<g mask="url(#mask1_133_4173)">
<path d="M20.9294 15.5691C20.9294 15.6346 20.9823 15.6876 21.0479 15.6876C21.1134 15.6876 21.1663 15.6346 21.1663 15.5691C21.1663 15.5035 21.1134 15.4506 21.0479 15.4506C20.9823 15.4506 20.9294 15.5035 20.9294 15.5691Z" fill="white" stroke="white" stroke-width="1.08316"/>
<path d="M20.9294 18.1072C20.9294 18.1727 20.9823 18.2256 21.0479 18.2256C21.1134 18.2256 21.1663 18.1727 21.1663 18.1072C21.1663 18.0416 21.1134 17.9887 21.0479 17.9887C20.9823 17.9887 20.9294 18.0416 20.9294 18.1072Z" fill="white" stroke="white" stroke-width="1.08316"/>
<path d="M15.0061 27.6697C15.0061 27.7352 15.059 27.7881 15.1245 27.7881C15.1901 27.7881 15.243 27.7352 15.243 27.6697C15.243 27.6041 15.1901 27.5512 15.1245 27.5512C15.059 27.5512 15.0061 27.6041 15.0061 27.6697Z" fill="white" stroke="white" stroke-width="1.08316"/>
<path d="M22.7404 13.0299H19.3555C18.888 13.0299 18.5093 13.4086 18.5093 13.8762V19.7997C18.5093 20.2672 18.888 20.6459 19.3555 20.6459H21.0479V23.1846L24.4328 20.6459H29.5101C29.9777 20.6459 30.3564 20.2672 30.3564 19.7997V13.8762C30.3564 13.4086 29.9777 13.0299 29.5101 13.0299H22.7404Z" stroke="white" stroke-width="1.08316" stroke-miterlimit="10" stroke-linecap="round" stroke-linejoin="round"/>
<path d="M22.7405 15.5693H27.8178" stroke="white" stroke-width="1.08316" stroke-miterlimit="10" stroke-linecap="round" stroke-linejoin="round"/>
<path d="M22.7405 18.1074H27.8178" stroke="white" stroke-width="1.08316" stroke-miterlimit="10" stroke-linecap="round" stroke-linejoin="round"/>
<path d="M22.7404 21.9156V27.6699C22.7404 28.6045 21.9826 29.3623 21.0479 29.3623H12.5857C11.6511 29.3623 10.8933 28.6045 10.8933 27.6699V10.2377C10.8933 9.30309 11.6511 8.5453 12.5857 8.5453H21.0479C21.9826 8.5453 22.7404 9.30309 22.7404 10.2377V13.0303" stroke="white" stroke-width="1.08316" stroke-miterlimit="10" stroke-linecap="round" stroke-linejoin="round"/>
<path d="M16.8169 27.6699H18.5093" stroke="white" stroke-width="1.08316" stroke-miterlimit="10" stroke-linecap="round" stroke-linejoin="round"/>
<path d="M22.7404 10.2373H10.8933" stroke="white" stroke-width="1.08316" stroke-miterlimit="10" stroke-linecap="round" stroke-linejoin="round"/>
<path d="M10.8933 25.9775H22.7404" stroke="white" stroke-width="1.08316" stroke-miterlimit="10" stroke-linecap="round" stroke-linejoin="round"/>
</g>
</g>
</g>
</g>
<path d="M12.6458 49.1809C12.6088 48.8531 12.4565 48.5993 12.1888 48.4193C11.9211 48.2369 11.5841 48.1458 11.1779 48.1458C10.8872 48.1458 10.6356 48.1919 10.4233 48.2842C10.2109 48.3743 10.0459 48.4989 9.92823 48.6581C9.81284 48.8151 9.75514 48.9939 9.75514 49.1947C9.75514 49.3632 9.79438 49.5086 9.87284 49.6309C9.95362 49.7532 10.0586 49.8559 10.1879 49.939C10.3194 50.0198 10.4602 50.0879 10.6102 50.1432C10.7602 50.1963 10.9045 50.2402 11.0429 50.2748L11.7353 50.4548C11.9615 50.5102 12.1934 50.5852 12.4311 50.6798C12.6688 50.7744 12.8892 50.8991 13.0923 51.0537C13.2954 51.2083 13.4593 51.3999 13.5839 51.6284C13.7108 51.8568 13.7743 52.1303 13.7743 52.4488C13.7743 52.8504 13.6705 53.207 13.4627 53.5185C13.2573 53.8301 12.9585 54.0759 12.5661 54.2559C12.1761 54.4359 11.7041 54.5259 11.1503 54.5259C10.6194 54.5259 10.1602 54.4417 9.77245 54.2732C9.38473 54.1047 9.08124 53.8659 8.86199 53.5566C8.64274 53.245 8.52158 52.8758 8.4985 52.4488H9.57167C9.59244 52.705 9.67552 52.9185 9.82092 53.0893C9.96862 53.2577 10.1567 53.3835 10.3852 53.4666C10.616 53.5474 10.8687 53.5878 11.1433 53.5878C11.4457 53.5878 11.7145 53.5404 11.9499 53.4458C12.1876 53.3489 12.3746 53.215 12.5107 53.0442C12.6469 52.8712 12.715 52.6692 12.715 52.4384C12.715 52.2284 12.655 52.0565 12.535 51.9226C12.4173 51.7888 12.2569 51.678 12.0538 51.5903C11.853 51.5026 11.6257 51.4253 11.3718 51.3583L10.5341 51.1299C9.96631 50.9752 9.51628 50.7479 9.18394 50.4479C8.85392 50.1479 8.6889 49.7509 8.6889 49.257C8.6889 48.8485 8.79968 48.492 9.02124 48.1873C9.24279 47.8827 9.54282 47.6461 9.92131 47.4776C10.2998 47.3069 10.7268 47.2215 11.2022 47.2215C11.6822 47.2215 12.1057 47.3057 12.4727 47.4742C12.8419 47.6427 13.1327 47.8746 13.345 48.17C13.5574 48.4631 13.6681 48.8001 13.6774 49.1809H12.6458ZM15.0526 47.3184H16.3508L18.6079 52.8296H18.691L20.9481 47.3184H22.2462V54.4082H21.2285V49.2778H21.1627L19.0718 54.3978H18.2271L16.1361 49.2743H16.0704V54.4082H15.0526V47.3184ZM27.6683 49.1809C27.6314 48.8531 27.4791 48.5993 27.2114 48.4193C26.9436 48.2369 26.6067 48.1458 26.2005 48.1458C25.9097 48.1458 25.6582 48.1919 25.4458 48.2842C25.2335 48.3743 25.0685 48.4989 24.9508 48.6581C24.8354 48.8151 24.7777 48.9939 24.7777 49.1947C24.7777 49.3632 24.8169 49.5086 24.8954 49.6309C24.9762 49.7532 25.0812 49.8559 25.2104 49.939C25.342 50.0198 25.4828 50.0879 25.6328 50.1432C25.7828 50.1963 25.927 50.2402 26.0655 50.2748L26.7579 50.4548C26.984 50.5102 27.216 50.5852 27.4537 50.6798C27.6914 50.7744 27.9118 50.8991 28.1149 51.0537C28.318 51.2083 28.4818 51.3999 28.6065 51.6284C28.7334 51.8568 28.7969 52.1303 28.7969 52.4488C28.7969 52.8504 28.693 53.207 28.4853 53.5185C28.2799 53.8301 27.981 54.0759 27.5887 54.2559C27.1987 54.4359 26.7267 54.5259 26.1728 54.5259C25.642 54.5259 25.1827 54.4417 24.795 54.2732C24.4073 54.1047 24.1038 53.8659 23.8845 53.5566C23.6653 53.245 23.5441 52.8758 23.5211 52.4488H24.5942C24.615 52.705 24.6981 52.9185 24.8435 53.0893C24.9912 53.2577 25.1793 53.3835 25.4077 53.4666C25.6385 53.5474 25.8912 53.5878 26.1659 53.5878C26.4682 53.5878 26.7371 53.5404 26.9725 53.4458C27.2102 53.3489 27.3971 53.215 27.5333 53.0442C27.6695 52.8712 27.7376 52.6692 27.7376 52.4384C27.7376 52.2284 27.6775 52.0565 27.5575 51.9226C27.4398 51.7888 27.2794 51.678 27.0763 51.5903C26.8756 51.5026 26.6482 51.4253 26.3944 51.3583L25.5566 51.1299C24.9889 50.9752 24.5388 50.7479 24.2065 50.4479C23.8765 50.1479 23.7115 49.7509 23.7115 49.257C23.7115 48.8485 23.8222 48.492 24.0438 48.1873C24.2653 47.8827 24.5654 47.6461 24.9439 47.4776C25.3224 47.3069 25.7493 47.2215 26.2247 47.2215C26.7048 47.2215 27.1283 47.3057 27.4952 47.4742C27.8645 47.6427 28.1553 47.8746 28.3676 48.17C28.5799 48.4631 28.6907 48.8001 28.6999 49.1809H27.6683Z" fill="#414254"/>
<defs>
<clipPath id="clip0_133_4173">
<rect width="37.9108" height="37.9108" fill="white" transform="translate(0.0446777 -0.00195312)"/>
</clipPath>
<clipPath id="clip1_133_4173">
<rect width="21.6633" height="21.6633" fill="white" transform="translate(9.79321 8.12207)"/>
</clipPath>
</defs>
</svg>
