<svg width="74" height="74" viewBox="0 0 74 74" fill="none" xmlns="http://www.w3.org/2000/svg">
<g filter="url(#filter0_d_226_1150)">
<rect x="4" width="66" height="66" rx="33" fill="#7D4666"/>
<path d="M30.5312 27.8818C30.5312 28.0725 30.4555 28.2553 30.3207 28.3901C30.1859 28.5249 30.0031 28.6006 29.8125 28.6006C29.6219 28.6006 29.4391 28.5249 29.3043 28.3901C29.1695 28.2553 29.0937 28.0725 29.0937 27.8818C29.0937 27.6912 29.1695 27.5084 29.3043 27.3736C29.4391 27.2388 29.6219 27.1631 29.8125 27.1631C30.0031 27.1631 30.1859 27.2388 30.3207 27.3736C30.4555 27.5084 30.5312 27.6912 30.5312 27.8818ZM30.5312 27.8818H29.8125M37.7187 27.8818C37.7187 28.0725 37.643 28.2553 37.5082 28.3901C37.3734 28.5249 37.1906 28.6006 37 28.6006C36.8094 28.6006 36.6266 28.5249 36.4918 28.3901C36.357 28.2553 36.2812 28.0725 36.2812 27.8818C36.2812 27.6912 36.357 27.5084 36.4918 27.3736C36.6266 27.2388 36.8094 27.1631 37 27.1631C37.1906 27.1631 37.3734 27.2388 37.5082 27.3736C37.643 27.5084 37.7187 27.6912 37.7187 27.8818ZM37.7187 27.8818H37M44.9062 27.8818C44.9062 28.0725 44.8305 28.2553 44.6957 28.3901C44.5609 28.5249 44.3781 28.6006 44.1875 28.6006C43.9969 28.6006 43.8141 28.5249 43.6793 28.3901C43.5445 28.2553 43.4687 28.0725 43.4687 27.8818C43.4687 27.6912 43.5445 27.5084 43.6793 27.3736C43.8141 27.2388 43.9969 27.1631 44.1875 27.1631C44.3781 27.1631 44.5609 27.2388 44.6957 27.3736C44.8305 27.5084 44.9062 27.6912 44.9062 27.8818ZM44.9062 27.8818H44.1875M18.3125 33.651C18.3125 36.7177 20.4649 39.3895 23.5009 39.8361C25.5843 40.1428 27.6888 40.3785 29.8125 40.5433V49.4443L37.8318 41.4269C38.2289 41.0314 38.7627 40.8036 39.323 40.7906C43.0636 40.6986 46.7952 40.3798 50.4972 39.8361C53.5351 39.3895 55.6875 36.7196 55.6875 33.6491V22.1146C55.6875 19.0441 53.5351 16.3742 50.4991 15.9276C46.0293 15.2715 41.5176 14.9429 37 14.9443C32.4153 14.9443 27.9073 15.2798 23.5009 15.9276C20.4649 16.3742 18.3125 19.046 18.3125 22.1146V33.6491V33.651Z" stroke="white" stroke-width="2" stroke-linecap="round" stroke-linejoin="round"/>
</g>
<defs>
<filter id="filter0_d_226_1150" x="0" y="0" width="74" height="74" filterUnits="userSpaceOnUse" color-interpolation-filters="sRGB">
<feFlood flood-opacity="0" result="BackgroundImageFix"/>
<feColorMatrix in="SourceAlpha" type="matrix" values="0 0 0 0 0 0 0 0 0 0 0 0 0 0 0 0 0 0 127 0" result="hardAlpha"/>
<feOffset dy="4"/>
<feGaussianBlur stdDeviation="2"/>
<feComposite in2="hardAlpha" operator="out"/>
<feColorMatrix type="matrix" values="0 0 0 0 0 0 0 0 0 0 0 0 0 0 0 0 0 0 0.25 0"/>
<feBlend mode="normal" in2="BackgroundImageFix" result="effect1_dropShadow_226_1150"/>
<feBlend mode="normal" in="SourceGraphic" in2="effect1_dropShadow_226_1150" result="shape"/>
</filter>
</defs>
</svg>
