<svg width="20" height="20" viewBox="0 0 20 20" fill="none" xmlns="http://www.w3.org/2000/svg">
<path d="M3.12109 5.25H4.70443H17.3711" stroke="#F44949" stroke-width="2" stroke-linecap="round" stroke-linejoin="round"/>
<path d="M15.7877 5.24967V16.333C15.7877 16.7529 15.6209 17.1557 15.3239 17.4526C15.027 17.7495 14.6243 17.9163 14.2043 17.9163H6.28768C5.86775 17.9163 5.46503 17.7495 5.16809 17.4526C4.87116 17.1557 4.70435 16.7529 4.70435 16.333V5.24967M7.07935 5.24967V3.66634C7.07935 3.24641 7.24616 2.84369 7.54309 2.54676C7.84003 2.24982 8.24275 2.08301 8.66268 2.08301H11.8293C12.2493 2.08301 12.652 2.24982 12.9489 2.54676C13.2459 2.84369 13.4127 3.24641 13.4127 3.66634V5.24967" stroke="#F44949" stroke-width="2" stroke-linecap="round" stroke-linejoin="round"/>
<path d="M8.66284 9.20801V13.958" stroke="#F44949" stroke-width="2" stroke-linecap="round" stroke-linejoin="round"/>
<path d="M11.8293 9.20801V13.958" stroke="#F44949" stroke-width="2" stroke-linecap="round" stroke-linejoin="round"/>
</svg>
