<svg width="31" height="48" viewBox="0 0 31 48" fill="none" xmlns="http://www.w3.org/2000/svg">
<path d="M30.5579 15.0955C30.5579 6.77869 23.832 0.032625 15.5227 0C-2.72187 0.458906 -5.20091 25.8265 12.4282 29.8862V35.113H7.29231C6.50406 35.113 5.86497 35.752 5.86497 36.5404V39.7537C5.86497 40.5419 6.50397 41.181 7.29231 41.181H12.4282V46.5726C12.4282 47.3608 13.0672 47.9999 13.8556 47.9999H17.0688C17.8571 47.9999 18.4962 47.3609 18.4962 46.5726V41.181H23.6321C24.4203 41.181 25.0594 40.542 25.0594 39.7537V36.5404C25.0594 35.7521 24.4204 35.113 23.6321 35.113H18.4962V29.8862C25.3791 28.4818 30.5579 22.3935 30.5579 15.0955ZM15.4622 24.0127C10.5374 24.0127 6.54503 20.0204 6.54503 15.0956C7.01472 3.26728 23.9114 3.27066 24.3793 15.0957C24.3793 20.0204 20.3869 24.0127 15.4622 24.0127Z" fill="#98999D"/>
</svg>
