<svg width="25" height="48" viewBox="0 0 25 48" fill="none" xmlns="http://www.w3.org/2000/svg">
<path d="M24.9839 13.227C24.9839 6.34383 19.3832 0.744141 12.5001 0.744141C5.61698 0.744141 0.0163574 6.34383 0.0163574 13.227C0.0163574 19.3207 4.40854 24.4113 10.1939 25.496V34.5335C8.75525 35.0725 7.55093 36.0984 6.79014 37.4331C6.02934 38.7677 5.76015 40.3267 6.02935 41.8392C6.29854 43.3517 7.08909 44.7221 8.26366 45.7123C9.43823 46.7025 10.9226 47.2499 12.4588 47.2594C13.995 47.2689 15.486 46.74 16.6728 45.7644C17.8596 44.7889 18.667 43.4284 18.955 41.9193C19.2429 40.4103 18.9931 38.8481 18.2489 37.5041C17.5047 36.1601 16.3132 35.1194 14.8814 34.5626V25.482C20.6292 24.3673 24.9839 19.2963 24.9839 13.227ZM4.70386 13.227C4.70386 11.685 5.1611 10.1777 6.01776 8.89559C6.87442 7.6135 8.09203 6.61424 9.51661 6.02416C10.9412 5.43408 12.5088 5.27969 14.0211 5.58051C15.5334 5.88133 16.9226 6.62385 18.0129 7.71417C19.1032 8.8045 19.8457 10.1937 20.1466 11.706C20.4474 13.2183 20.293 14.7859 19.7029 16.2104C19.1128 17.635 18.1136 18.8526 16.8315 19.7093C15.5494 20.566 14.0421 21.0232 12.5001 21.0232C10.4331 21.021 8.45139 20.1989 6.98979 18.7373C5.5282 17.2757 4.70609 15.294 4.70386 13.227ZM12.5001 42.5707C12.1276 42.5707 11.7635 42.4602 11.4537 42.2533C11.144 42.0463 10.9026 41.7522 10.76 41.408C10.6175 41.0639 10.5802 40.6852 10.6529 40.3198C10.7255 39.9545 10.9049 39.6189 11.1683 39.3555C11.4317 39.0921 11.7673 38.9127 12.1327 38.84C12.498 38.7673 12.8767 38.8046 13.2209 38.9472C13.565 39.0897 13.8592 39.3312 14.0661 39.6409C14.2731 39.9506 14.3835 40.3148 14.3835 40.6873C14.3823 41.1861 14.1834 41.6642 13.8304 42.0167C13.4773 42.3692 12.999 42.5674 12.5001 42.5679V42.5707Z" fill="#98999D"/>
</svg>
