<svg width="49" height="57" viewBox="0 0 49 57" fill="none" xmlns="http://www.w3.org/2000/svg">
<g clip-path="url(#clip0_133_4159)">
<path d="M19.7059 37.9088C30.1746 37.9088 38.6612 29.4222 38.6612 18.9534C38.6612 8.48466 30.1746 -0.00195312 19.7059 -0.00195312C9.2371 -0.00195312 0.750488 8.48466 0.750488 18.9534C0.750488 29.4222 9.2371 37.9088 19.7059 37.9088Z" fill="#27D045"/>
<path d="M19.8639 27.9573C24.9238 27.9573 29.0257 23.8555 29.0257 18.7956C29.0257 13.7357 24.9238 9.63379 19.8639 9.63379C14.804 9.63379 10.7021 13.7357 10.7021 18.7956C10.7021 23.8555 14.804 27.9573 19.8639 27.9573Z" stroke="white" stroke-width="1.57961"/>
<path d="M11.4918 24.0079L10.0386 29.1575L15.3777 27.6726L15.662 26.0298L12.1868 27.1355L13.103 23.8184L11.4918 24.0079Z" fill="white"/>
<path d="M12.1238 27.167C12.1238 27.1354 13.2295 23.4707 13.2295 23.4707L15.8833 25.9665L12.1238 27.167Z" fill="#27D045"/>
<path d="M15.9049 14.2562C15.5823 14.48 15.3073 14.7656 15.0958 15.0964C14.8843 15.4272 14.7406 15.7966 14.6728 16.1833C14.5148 17.4154 15.273 18.6791 15.273 18.6791C16.0421 19.8234 16.9553 20.8639 17.99 21.7752C18.8951 22.4914 19.9227 23.0373 21.0228 23.3864C21.6646 23.6426 22.3666 23.7084 23.0447 23.5759C23.6458 23.4109 24.1776 23.0564 24.5611 22.565C24.651 22.3414 24.7147 22.1082 24.7507 21.8699C24.7869 21.6609 24.7869 21.4471 24.7507 21.2381C24.7191 21.0169 22.4445 19.9744 22.2233 20.0376C22.0022 20.1008 21.8126 20.5115 21.5599 20.859C21.3071 21.2065 21.2124 21.3645 20.9596 21.3645C20.7069 21.3645 19.6011 20.9222 18.5586 19.9744C17.9631 19.4581 17.4977 18.8087 17.2002 18.0789C17.2002 18.0789 17.3897 17.8577 17.6425 17.5102C17.8391 17.2947 17.9801 17.0344 18.0531 16.752C18.0531 16.594 17.1685 14.351 16.9474 14.2562C16.6016 14.2076 16.2507 14.2076 15.9049 14.2562Z" fill="white"/>
</g>
<path d="M2.91759 54.4082L0.951274 47.3184H2.07636L3.45763 52.8088H3.5234L4.96006 47.3184H6.07476L7.51142 52.8123H7.57719L8.955 47.3184H10.0835L8.11377 54.4082H7.03715L5.54511 49.0978H5.48972L3.99767 54.4082H2.91759ZM12.0109 51.251V54.4082H10.9758V47.3184H11.9971V49.9563H12.0628C12.1875 49.6701 12.3779 49.4428 12.634 49.2743C12.8902 49.1059 13.2249 49.0216 13.638 49.0216C14.0026 49.0216 14.3211 49.0966 14.5934 49.2466C14.8681 49.3966 15.0804 49.6205 15.2304 49.9182C15.3827 50.2136 15.4589 50.5829 15.4589 51.026V54.4082H14.4238V51.1506C14.4238 50.7606 14.3234 50.4583 14.1226 50.2436C13.9218 50.0267 13.6426 49.9182 13.2849 49.9182C13.0402 49.9182 12.821 49.9702 12.6271 50.074C12.4356 50.1779 12.2844 50.3302 12.1736 50.531C12.0652 50.7294 12.0109 50.9695 12.0109 51.251ZM18.3876 54.5259C18.0506 54.5259 17.746 54.4636 17.4737 54.339C17.2013 54.212 16.9855 54.0286 16.8263 53.7885C16.6694 53.5485 16.5909 53.2543 16.5909 52.9058C16.5909 52.6058 16.6486 52.3588 16.764 52.1649C16.8794 51.9711 17.0352 51.8176 17.2313 51.7045C17.4275 51.5914 17.6468 51.506 17.8891 51.4483C18.1314 51.3907 18.3784 51.3468 18.6299 51.3168C18.9484 51.2799 19.2069 51.2499 19.4054 51.2268C19.6038 51.2014 19.7481 51.161 19.8381 51.1056C19.9281 51.0502 19.9731 50.9602 19.9731 50.8356V50.8114C19.9731 50.509 19.8877 50.2748 19.7169 50.1086C19.5484 49.9425 19.2969 49.8594 18.9622 49.8594C18.6138 49.8594 18.3391 49.9367 18.1383 50.0913C17.9399 50.2436 17.8025 50.4133 17.7264 50.6002L16.7536 50.3786C16.869 50.0555 17.0375 49.7948 17.259 49.5963C17.4829 49.3955 17.7402 49.2501 18.031 49.1601C18.3218 49.0678 18.6276 49.0216 18.9484 49.0216C19.1607 49.0216 19.3857 49.047 19.6235 49.0978C19.8635 49.1462 20.0873 49.2362 20.295 49.3678C20.5051 49.4993 20.677 49.6874 20.8109 49.9321C20.9447 50.1744 21.0116 50.4894 21.0116 50.8771V54.4082H20.0008V53.6812H19.9592C19.8923 53.8151 19.7919 53.9466 19.6581 54.0759C19.5242 54.2051 19.3523 54.3124 19.1423 54.3978C18.9322 54.4832 18.6807 54.5259 18.3876 54.5259ZM18.6126 53.6951C18.8988 53.6951 19.1434 53.6385 19.3465 53.5254C19.5519 53.4124 19.7077 53.2646 19.8139 53.0823C19.9223 52.8977 19.9766 52.7004 19.9766 52.4904V51.8049C19.9396 51.8418 19.8681 51.8765 19.7619 51.9088C19.6581 51.9388 19.5392 51.9653 19.4054 51.9884C19.2715 52.0092 19.1411 52.0288 19.0142 52.0472C18.8872 52.0634 18.7811 52.0772 18.6957 52.0888C18.4949 52.1142 18.3114 52.1569 18.1453 52.2169C17.9814 52.2769 17.8498 52.3634 17.7506 52.4765C17.6537 52.5873 17.6052 52.735 17.6052 52.9196C17.6052 53.1758 17.6998 53.3697 17.8891 53.5012C18.0783 53.6304 18.3195 53.6951 18.6126 53.6951ZM24.8724 49.0909V49.9217H21.968V49.0909H24.8724ZM22.7469 47.8169H23.782V52.8469C23.782 53.0477 23.812 53.1989 23.872 53.3004C23.932 53.3997 24.0093 53.4677 24.1039 53.5047C24.2008 53.5393 24.3058 53.5566 24.4189 53.5566C24.502 53.5566 24.5747 53.5508 24.637 53.5393C24.6993 53.5277 24.7478 53.5185 24.7824 53.5116L24.9694 54.3667C24.9094 54.3897 24.824 54.4128 24.7132 54.4359C24.6024 54.4613 24.4639 54.4751 24.2978 54.4774C24.0254 54.4821 23.7716 54.4336 23.5362 54.332C23.3008 54.2305 23.1104 54.0736 22.965 53.8612C22.8196 53.6489 22.7469 53.3824 22.7469 53.0616V47.8169ZM29.9163 50.389L28.9781 50.5552C28.9389 50.4352 28.8766 50.321 28.7912 50.2125C28.7081 50.104 28.595 50.0152 28.452 49.9459C28.3089 49.8767 28.13 49.8421 27.9154 49.8421C27.6223 49.8421 27.3776 49.9078 27.1815 50.0394C26.9853 50.1686 26.8872 50.336 26.8872 50.5414C26.8872 50.7191 26.953 50.8621 27.0845 50.9706C27.2161 51.0791 27.4284 51.1679 27.7215 51.2372L28.5662 51.431C29.0555 51.5441 29.4201 51.7184 29.6601 51.9538C29.9001 52.1892 30.0202 52.495 30.0202 52.8712C30.0202 53.1896 29.9278 53.4735 29.7432 53.7228C29.5609 53.9697 29.3059 54.1636 28.9781 54.3043C28.6527 54.4451 28.2754 54.5155 27.8461 54.5155C27.2507 54.5155 26.7649 54.3886 26.3887 54.1347C26.0125 53.8785 25.7817 53.5151 25.6963 53.0442L26.6968 52.8919C26.7591 53.1527 26.8872 53.35 27.0811 53.4839C27.2749 53.6154 27.5276 53.6812 27.8392 53.6812C28.1785 53.6812 28.4496 53.6108 28.6527 53.4701C28.8558 53.327 28.9574 53.1527 28.9574 52.9473C28.9574 52.7811 28.8951 52.6415 28.7704 52.5284C28.6481 52.4154 28.46 52.33 28.2062 52.2723L27.3061 52.0749C26.8099 51.9619 26.4429 51.7818 26.2052 51.5349C25.9698 51.288 25.8521 50.9752 25.8521 50.5967C25.8521 50.2829 25.9398 50.0082 26.1152 49.7728C26.2906 49.5374 26.533 49.3539 26.8422 49.2224C27.1515 49.0885 27.5057 49.0216 27.905 49.0216C28.4796 49.0216 28.932 49.1462 29.262 49.3955C29.592 49.6424 29.8101 49.9736 29.9163 50.389ZM32.7057 54.5259C32.3687 54.5259 32.0641 54.4636 31.7917 54.339C31.5194 54.212 31.3036 54.0286 31.1444 53.7885C30.9874 53.5485 30.909 53.2543 30.909 52.9058C30.909 52.6058 30.9667 52.3588 31.0821 52.1649C31.1975 51.9711 31.3532 51.8176 31.5494 51.7045C31.7456 51.5914 31.9648 51.506 32.2072 51.4483C32.4495 51.3907 32.6964 51.3468 32.948 51.3168C33.2665 51.2799 33.525 51.2499 33.7234 51.2268C33.9219 51.2014 34.0662 51.161 34.1562 51.1056C34.2462 51.0502 34.2912 50.9602 34.2912 50.8356V50.8114C34.2912 50.509 34.2058 50.2748 34.035 50.1086C33.8665 49.9425 33.615 49.8594 33.2803 49.8594C32.9318 49.8594 32.6572 49.9367 32.4564 50.0913C32.2579 50.2436 32.1206 50.4133 32.0445 50.6002L31.0717 50.3786C31.1871 50.0555 31.3556 49.7948 31.5771 49.5963C31.801 49.3955 32.0583 49.2501 32.3491 49.1601C32.6399 49.0678 32.9457 49.0216 33.2665 49.0216C33.4788 49.0216 33.7038 49.047 33.9415 49.0978C34.1815 49.1462 34.4054 49.2362 34.6131 49.3678C34.8231 49.4993 34.9951 49.6874 35.1289 49.9321C35.2628 50.1744 35.3297 50.4894 35.3297 50.8771V54.4082H34.3189V53.6812H34.2773C34.2104 53.8151 34.11 53.9466 33.9761 54.0759C33.8423 54.2051 33.6704 54.3124 33.4603 54.3978C33.2503 54.4832 32.9988 54.5259 32.7057 54.5259ZM32.9307 53.6951C33.2169 53.6951 33.4615 53.6385 33.6646 53.5254C33.87 53.4124 34.0258 53.2646 34.1319 53.0823C34.2404 52.8977 34.2946 52.7004 34.2946 52.4904V51.8049C34.2577 51.8418 34.1862 51.8765 34.08 51.9088C33.9761 51.9388 33.8573 51.9653 33.7234 51.9884C33.5896 52.0092 33.4592 52.0288 33.3322 52.0472C33.2053 52.0634 33.0992 52.0772 33.0138 52.0888C32.813 52.1142 32.6295 52.1569 32.4633 52.2169C32.2995 52.2769 32.1679 52.3634 32.0687 52.4765C31.9718 52.5873 31.9233 52.735 31.9233 52.9196C31.9233 53.1758 32.0179 53.3697 32.2072 53.5012C32.3964 53.6304 32.6376 53.6951 32.9307 53.6951ZM36.7084 56.4022V49.0909H37.7192V49.9528H37.8058C37.8658 49.8421 37.9523 49.714 38.0654 49.5686C38.1785 49.4232 38.3354 49.2963 38.5362 49.1878C38.737 49.077 39.0024 49.0216 39.3324 49.0216C39.7617 49.0216 40.1448 49.1301 40.4818 49.347C40.8187 49.564 41.083 49.8767 41.2745 50.2852C41.4684 50.6937 41.5653 51.1853 41.5653 51.7599C41.5653 52.3346 41.4695 52.8273 41.278 53.2381C41.0864 53.6466 40.8233 53.9616 40.4887 54.1832C40.154 54.4024 39.7721 54.5121 39.3428 54.5121C39.0197 54.5121 38.7555 54.4578 38.5501 54.3494C38.347 54.2409 38.1877 54.1139 38.0723 53.9686C37.9569 53.8232 37.8681 53.6939 37.8058 53.5808H37.7435V56.4022H36.7084ZM37.7227 51.7495C37.7227 52.1234 37.7769 52.4511 37.8854 52.7327C37.9939 53.0142 38.1508 53.2346 38.3562 53.3939C38.5616 53.5508 38.8132 53.6293 39.1109 53.6293C39.4201 53.6293 39.6786 53.5474 39.8863 53.3835C40.094 53.2173 40.251 52.9923 40.3571 52.7085C40.4656 52.4246 40.5198 52.1049 40.5198 51.7495C40.5198 51.3987 40.4668 51.0837 40.3606 50.8045C40.2568 50.5252 40.0998 50.3048 39.8898 50.1432C39.6821 49.9817 39.4225 49.9009 39.1109 49.9009C38.8109 49.9009 38.557 49.9782 38.3493 50.1329C38.1439 50.2875 37.9881 50.5033 37.8819 50.7802C37.7758 51.0572 37.7227 51.3803 37.7227 51.7495ZM42.725 56.4022V49.0909H43.7359V49.9528H43.8224C43.8824 49.8421 43.969 49.714 44.0821 49.5686C44.1951 49.4232 44.3521 49.2963 44.5529 49.1878C44.7537 49.077 45.0191 49.0216 45.3491 49.0216C45.7783 49.0216 46.1615 49.1301 46.4984 49.347C46.8354 49.564 47.0996 49.8767 47.2912 50.2852C47.485 50.6937 47.582 51.1853 47.582 51.7599C47.582 52.3346 47.4862 52.8273 47.2946 53.2381C47.1031 53.6466 46.84 53.9616 46.5053 54.1832C46.1707 54.4024 45.7887 54.5121 45.3595 54.5121C45.0364 54.5121 44.7721 54.4578 44.5667 54.3494C44.3636 54.2409 44.2044 54.1139 44.089 53.9686C43.9736 53.8232 43.8847 53.6939 43.8224 53.5808H43.7601V56.4022H42.725ZM43.7393 51.7495C43.7393 52.1234 43.7936 52.4511 43.902 52.7327C44.0105 53.0142 44.1675 53.2346 44.3729 53.3939C44.5783 53.5508 44.8298 53.6293 45.1275 53.6293C45.4368 53.6293 45.6953 53.5474 45.903 53.3835C46.1107 53.2173 46.2676 52.9923 46.3738 52.7085C46.4823 52.4246 46.5365 52.1049 46.5365 51.7495C46.5365 51.3987 46.4834 51.0837 46.3772 50.8045C46.2734 50.5252 46.1165 50.3048 45.9064 50.1432C45.6987 49.9817 45.4391 49.9009 45.1275 49.9009C44.8275 49.9009 44.5736 49.9782 44.3659 50.1329C44.1605 50.2875 44.0047 50.5033 43.8986 50.7802C43.7924 51.0572 43.7393 51.3803 43.7393 51.7495Z" fill="#414254"/>
<defs>
<clipPath id="clip0_133_4159">
<rect width="37.9108" height="37.9108" fill="white" transform="translate(0.750488 -0.00195312)"/>
</clipPath>
</defs>
</svg>
